<svg class="w-1/2" width="400" height="400" viewBox="0 0 421 621" fill="none" xmlns="http://www.w3.org/2000/svg">
    <g clip-path="url(#clip0_2_2)">
    <mask id="mask0_2_2" style="mask-type:luminance" maskUnits="userSpaceOnUse" x="0" y="0" width="421" height="621">
    <path d="M421 0H0V621H421V0Z" fill="white"/>
    </mask>
    <g mask="url(#mask0_2_2)">
    <path d="M173.5 80C173.5 75.3056 177.305 71.5 182 71.5H238C242.695 71.5 246.5 75.3056 246.5 80V108.5H173.5V80Z" fill="black" stroke="#7A7A7A" stroke-width="3"/>
    <path d="M290.5 211.5V168.5H302.5V211.5H290.5Z" fill="url(#paint0_linear_2_2)" stroke="#7A7A7A" stroke-width="3"/>
    <path d="M112.5 211.5V168.5H124.5V211.5H112.5Z" fill="url(#paint1_linear_2_2)" stroke="#7A7A7A" stroke-width="3"/>
    <path d="M127.5 103.5H287.5V244.5H207.5H127.5V103.5Z" fill="url(#paint2_linear_2_2)" stroke="#7A7A7A" stroke-width="3"/>
    <path d="M41.9502 568.903L45.5059 548.738L228.743 581.048L222.062 618.939C222.014 619.212 221.755 619.393 221.483 619.345L221.482 619.345L56.9566 590.335L56.6961 591.812L56.9566 590.335C46.8945 588.561 40.176 578.966 41.9502 568.903L40.473 568.643L41.9502 568.903Z" fill="url(#paint3_linear_2_2)" stroke="#7A7A7A" stroke-width="3"/>
    <path d="M227.197 620.304L233.073 619.268L232.812 617.791L238.688 616.755L238.949 618.232L244.825 617.196L244.564 615.719L250.44 614.682L250.701 616.16L256.577 615.124L256.316 613.646L262.192 612.61L262.453 614.088L268.328 613.051L268.068 611.574L273.944 610.538L274.204 612.015L280.08 610.979L279.82 609.502L285.696 608.466L285.956 609.943L291.832 608.907L291.572 607.43L297.448 606.394L297.708 607.871L303.584 606.835L303.324 605.358L309.199 604.322L309.46 605.799L315.336 604.763L315.075 603.286L320.951 602.25L321.212 603.727L327.088 602.691L326.827 601.214L332.703 600.177L332.964 601.655L338.84 600.619L338.579 599.141L344.455 598.105L344.716 599.583L350.591 598.546L350.331 597.069L356.207 596.033L356.467 597.51L362.343 596.474L362.083 594.997L367.959 593.961L368.219 595.438L374.095 594.402L373.835 592.925L379.711 591.889L379.971 593.366L385.847 592.33L385.587 590.853L388.525 590.335C389.332 590.192 390.118 590 390.879 589.761L391.328 591.192C393.025 590.659 394.611 589.913 396.061 588.988L395.254 587.723C396.627 586.848 397.867 585.801 398.952 584.616L400.058 585.629C401.238 584.339 402.245 582.901 403.053 581.351L401.723 580.658C402.466 579.234 403.026 577.709 403.379 576.121L404.843 576.446C405.216 574.767 405.375 573.022 405.295 571.245L403.797 571.312C403.761 570.515 403.673 569.711 403.531 568.903L403.054 566.198L404.531 565.938L403.577 560.527L402.1 560.787L401.146 555.377L402.623 555.116L401.669 549.705L400.192 549.966L399.975 548.738L398.543 548.99L398.283 547.513L392.464 548.539L392.725 550.016L386.906 551.042L386.646 549.565L380.827 550.591L381.088 552.068L375.269 553.094L375.009 551.617L369.19 552.643L369.451 554.12L363.632 555.146L363.372 553.669L357.553 554.695L357.814 556.172L351.995 557.198L351.735 555.721L345.916 556.747L346.177 558.224L340.358 559.25L340.098 557.773L334.279 558.799L334.54 560.276L328.721 561.302L328.461 559.825L322.642 560.851L322.903 562.328L317.084 563.354L316.824 561.877L311.005 562.903L311.266 564.38L305.447 565.406L305.187 563.928L299.368 564.954L299.629 566.432L293.81 567.458L293.55 565.98L287.731 567.006L287.992 568.484L282.173 569.51L281.913 568.032L276.094 569.058L276.355 570.536L270.536 571.562L270.276 570.084L264.457 571.11L264.718 572.587L258.899 573.613L258.639 572.136L252.82 573.162L253.081 574.639L247.262 575.665L247.002 574.188L241.183 575.214L241.444 576.691L235.625 577.717L235.365 576.24L229.546 577.266L229.807 578.743L223.988 579.769L223.728 578.292L217.909 579.318L218.17 580.795L216.738 581.048L217.056 582.851L215.579 583.112L216.736 589.673L218.213 589.413L219.37 595.974L217.893 596.235L219.05 602.796L220.527 602.536L221.684 609.097L220.207 609.358L221.364 615.919L222.841 615.659L223.419 618.939C223.467 619.212 223.726 619.393 223.998 619.345L223.999 619.345L226.937 618.827L227.197 620.304Z" fill="url(#paint4_linear_2_2)" stroke="#7A7A7A" stroke-width="3" stroke-dasharray="6 6"/>
    <path d="M48.5 296C48.5 269.214 70.2142 247.5 97 247.5H327C353.786 247.5 375.5 269.214 375.5 296V420C375.5 438.502 360.502 453.5 342 453.5H82C63.4984 453.5 48.5 438.502 48.5 420V296Z" fill="url(#paint5_linear_2_2)" stroke="#7A7A7A" stroke-width="3"/>
    <path d="M315 509H102V527H315V509Z" fill="url(#paint6_linear_2_2)"/>
    <path d="M293 187L299 192V202H293V187Z" fill="black"/>
    <path d="M111 403H328L321 412H97.5L111 403Z" fill="black"/>
    <path d="M123.958 241.481C124.626 241.173 125.388 241.137 126.083 241.381L206 269.5L289.451 241.186C289.808 241.065 290.194 241.058 290.556 241.167C292.139 241.642 292.316 243.812 290.831 244.537L220.183 279.068C211.225 283.446 200.757 283.483 191.768 279.169L123.919 246.601C121.761 245.565 121.784 242.484 123.958 241.481Z" fill="black"/>
    <path d="M1.5 505C1.5 478.214 23.2142 456.5 50 456.5H224.271H371C397.786 456.5 419.5 478.214 419.5 505V560C419.5 570.218 411.218 578.5 401 578.5H20C9.78271 578.5 1.5 570.218 1.5 560V505Z" fill="url(#paint7_linear_2_2)" stroke="#7A7A7A" stroke-width="3"/>
    <path d="M140.5 166.5L155.109 162.552C157.699 161.852 160.228 160.944 162.672 159.839L168.785 157.073C176.152 153.741 182.6 148.672 187.578 142.3L188.783 140.758C191.252 137.597 193.332 134.151 194.978 130.494L201.5 116L213.493 138.141C218.379 147.162 225.922 154.461 235.097 159.049L241.946 162.473C247.272 165.136 253.032 166.827 258.953 167.464L282.5 170L276.12 192.012C273.748 200.194 269.273 207.612 263.141 213.525C260.06 216.495 256.568 219.066 252.821 221.133C247.035 224.326 240.614 226.356 234.041 227.048L211.824 229.387C207.955 229.794 204.051 229.748 200.192 229.251L190.684 228.024C180.477 226.707 170.925 222.272 163.332 215.325L161.87 213.987C155.088 207.783 150.148 199.829 147.592 191L140.5 166.5Z" fill="black"/>
    <path d="M128 246L204.5 271.5L290 244H291.5L271 263.5L250.703 286.444C248.904 288.478 246.942 290.362 244.837 292.077L194 333.5C189.466 338.277 181.799 332.796 184.852 326.96L197.904 302.006C199.082 299.755 198.303 296.977 196.128 295.665L169.208 279.434C167.072 278.147 165.036 276.701 163.116 275.109L128 246Z" fill="black"/>
    <path d="M183.852 171.353L196.408 179.947C196.742 180.176 196.842 180.623 196.638 180.972C190.211 191.969 175.07 193.81 166.195 184.672L162.938 181.319C162.489 180.856 162.649 180.085 163.246 179.84L183.852 171.353Z" fill="url(#paint8_linear_2_2)"/>
    <path d="M283 524H139V539H283V524Z" fill="black"/>
    <path d="M213.746 536H276V531L244.873 536L211 531L213.746 536Z" fill="url(#paint9_linear_2_2)" fill-opacity="0.44"/>
    <path d="M162 534.035C162.004 531.827 157.756 530.028 152.512 530.018C147.267 530.008 143.012 531.79 143.008 533.999C143.004 536.207 147.252 538.006 152.496 538.016C157.741 538.026 161.996 536.244 162 534.035Z" fill="url(#paint10_linear_2_2)" fill-opacity="0.54"/>
    <path d="M202.215 196.267C204.222 188.883 214.796 189.179 216.387 196.664C216.734 198.293 217.627 199.755 218.919 200.806L222.702 203.884C225.166 205.888 224.619 209.792 221.699 211.042L220.192 211.688C213.751 214.446 206.471 214.495 199.993 211.825L197.928 210.974C194.904 209.728 194.206 205.757 196.624 203.553L199.81 200.651C200.863 199.691 201.621 198.451 201.995 197.076L202.215 196.267Z" fill="url(#paint11_linear_2_2)"/>
    <path d="M204 213H215V228.576C215 228.821 214.823 229.029 214.582 229.07L209 230L204.45 229.545C204.195 229.519 204 229.304 204 229.048V213Z" fill="url(#paint12_linear_2_2)"/>
    <path d="M66.9678 377.677C66.5318 380.075 63 379.757 63 377.319L63.0001 325.711C63.0001 312.45 68.2679 299.732 77.6447 290.355L102.837 265.163C104.839 263.161 108.101 263.219 110.031 265.289L122.736 278.924C124.921 281.269 124.366 285.036 121.597 286.652L98.8824 299.902C86.2639 307.263 77.4957 319.774 74.8824 334.147L66.9678 377.677Z" fill="black"/>
    <path d="M341.662 376.693C342.098 379.091 345.63 378.772 345.63 376.335L345.629 324.726C345.629 311.465 340.362 298.748 330.985 289.371L305.792 264.178C303.791 262.177 300.528 262.234 298.599 264.305L285.894 277.94C283.708 280.285 284.263 284.052 287.032 285.667L309.747 298.918C322.366 306.278 331.134 318.789 333.747 333.162L341.662 376.693Z" fill="black"/>
    <path d="M232.148 171L219.592 179.595C219.258 179.823 219.158 180.27 219.362 180.619C225.789 191.617 240.93 193.457 249.805 184.32L253.062 180.966C253.511 180.503 253.351 179.733 252.754 179.487L232.148 171Z" fill="url(#paint13_linear_2_2)"/>
    <path d="M96 423H321.5L315 509H102L96 423Z" fill="black"/>
    <path d="M210.5 480C221.27 480 230 474.18 230 467C230 459.82 221.27 454 210.5 454C199.73 454 191 459.82 191 467C191 474.18 199.73 480 210.5 480Z" fill="url(#paint14_linear_2_2)" fill-opacity="0.54"/>
    <path d="M238.131 149.988C232.338 149.044 227.253 145.604 224.222 140.578L211.145 118.899C210.533 117.883 210.933 116.561 212.006 116.056L216.72 113.838C217.708 113.373 218.886 113.786 219.367 114.766L223.971 124.146C229.157 134.709 237.902 143.105 248.668 147.856L262.5 153.96L238.131 149.988Z" fill="black"/>
    <path d="M117 187L123 192V202H117V187Z" fill="black"/>
    <g style="mix-blend-mode:multiply">
    <path d="M283 539H139V545H283V539Z" fill="black" fill-opacity="0.2"/>
    </g>
    <g style="mix-blend-mode:multiply">
    <path d="M315 509H102V515H315V509Z" fill="black" fill-opacity="0.3"/>
    </g>
    <g style="mix-blend-mode:multiply">
    <path d="M41.7765 580H403.704L403 581.5L401.791 583.514C401.611 583.816 401.285 584 400.934 584H44.5352C44.2008 584 43.8886 583.833 43.7031 583.555L43 582.5L41.7765 580Z" fill="#D9D9D9"/>
    </g>
    <g style="mix-blend-mode:multiply">
    <path d="M135.5 246H206.5H277.5L250.5 276.5L167 272.5L135.5 246Z" fill="black" fill-opacity="0.5"/>
    </g>
    <g style="mix-blend-mode:multiply">
    <path d="M333.44 365.328C334.061 367.73 337.634 367.076 337.364 364.609L334.102 334.831C332.999 324.765 328.866 315.271 322.249 307.605L304.348 286.865C302.269 284.457 298.5 284.577 296.578 287.111L291.789 293.428C290.122 295.627 290.552 298.761 292.749 300.43L308.685 312.536C317.634 319.335 324.032 328.951 326.846 339.832L333.44 365.328Z" fill="black" fill-opacity="0.3"/>
    </g>
    <g style="mix-blend-mode:multiply">
    <path d="M74.6065 365.328C73.9853 367.73 70.4119 367.076 70.6821 364.609L73.9445 334.831C75.0473 324.765 79.1803 315.271 85.7967 307.605L103.698 286.865C105.777 284.457 109.546 284.577 111.468 287.111L116.257 293.428C117.924 295.627 117.494 298.761 115.297 300.43L99.3611 312.536C90.4118 319.335 84.0141 328.951 81.2002 339.832L74.6065 365.328Z" fill="black" fill-opacity="0.3"/>
    </g>
    <g style="mix-blend-mode:multiply">
    <path d="M232.5 299.5L290.5 243.5L262 302.5L190 335L232.5 299.5Z" fill="#D9D9D9"/>
    </g>
    <g style="mix-blend-mode:multiply">
    <path d="M215 213H204V216H215V213Z" fill="black" fill-opacity="0.3"/>
    </g>
    <g style="mix-blend-mode:multiply">
    <path d="M363 448H61L64 450L67.1167 451.781C67.3717 451.927 67.6391 452.05 67.9157 452.148L73.3414 454.086C74.1102 454.361 74.9128 454.529 75.7272 454.588L81.5 455H343.767L348 454.5L352 453.5L356 452L359.003 450.713C359.333 450.571 359.647 450.395 359.94 450.186L363 448Z" fill="#D9D9D9"/>
    </g>
    <g style="mix-blend-mode:multiply">
    <path d="M197 177H162V181H197V177Z" fill="black" fill-opacity="0.7"/>
    </g>
    <g style="mix-blend-mode:multiply">
    <path d="M254 177H219V181H254V177Z" fill="black" fill-opacity="0.7"/>
    </g>
    <g style="mix-blend-mode:multiply">
    <path d="M145.638 122.862C148.153 120.347 151.375 118.659 154.874 118.023L171.026 115.086C173.352 114.663 174.527 117.784 172.5 119L164.481 121.789C155.087 125.057 147.867 132.686 145.123 142.245L141.111 156.218C140.485 158.396 137.244 157.751 137.5 155.5L140.687 132.795C141.214 129.034 142.953 125.547 145.638 122.862Z" fill="black" fill-opacity="0.2"/>
    </g>
    <g style="mix-blend-mode:multiply">
    <path d="M234.271 151.425C226.812 150.968 220.229 146.39 217.205 139.556L210.591 124.613C210.19 123.707 210.514 122.643 211.352 122.113L215.096 119.749C216.194 119.055 217.655 119.588 218.065 120.819C222.704 134.721 233.245 146.001 246.838 151.481L248.925 152.322L234.271 151.425Z" fill="black" fill-opacity="0.2"/>
    </g>
    <g style="mix-blend-mode:lighten">
    <path d="M138.223 127.022C138.384 124.685 140.176 122.79 142.5 122.5L141 126L138.5 142L137.5 149.5L136.5 152L138.223 127.022Z" fill="url(#paint15_linear_2_2)"/>
    </g>
    <path d="M144.638 119.862C147.153 117.347 150.375 115.659 153.874 115.023L170.026 112.086C172.352 111.663 173.527 114.784 171.5 116C157.078 121.016 145.994 132.729 141.78 147.406L140.111 153.218C139.485 155.396 136.244 154.751 136.5 152.5L139.687 129.795C140.214 126.034 141.953 122.547 144.638 119.862Z" fill="black"/>
    <g style="mix-blend-mode:lighten">
    <path d="M221.5 119.5L234 136.5L252.5 149.5L243 145.5L233.5 138.5L228 131.5L224.5 125.5L221.5 119.5Z" fill="url(#paint16_linear_2_2)"/>
    </g>
    <g style="mix-blend-mode:multiply">
    <path d="M176.031 85.9971C175.495 80.28 180.281 75.4801 186 76C182.381 79.2903 179.556 83.3598 177.739 87.9014L176.5 91L176.031 85.9971Z" fill="black" fill-opacity="0.3"/>
    </g>
    <g style="mix-blend-mode:lighten">
    <path d="M174.726 84.0463C173.882 78.6433 178.62 74.0218 184 75C180.432 77.5949 177.814 81.2882 176.546 85.5139L175.5 89L174.726 84.0463Z" fill="black"/>
    </g>
    <path d="M175.031 84.9971C174.495 79.28 179.281 74.4801 185 75C181.381 78.2903 178.556 82.3598 176.739 86.9014L175.5 90L175.031 84.9971Z" fill="black"/>
    <g style="mix-blend-mode:multiply">
    <path d="M143.5 175.5C148.429 172.296 155.048 174.847 156.552 180.53L157.688 184.823C157.896 185.605 158.183 186.365 158.545 187.089L163.022 196.044C165.978 201.956 170.077 207.223 175.082 211.541L193 227L201.772 227.747C211.385 228.565 221.029 226.584 229.542 222.044L243.171 214.775C250.285 210.981 256.376 205.524 260.924 198.867L274.5 179L281 175.5L275.719 197.868C273.638 206.68 268.554 214.493 261.341 219.966C259.12 221.65 256.725 223.092 254.197 224.266L249.986 226.221C246.013 228.066 241.814 229.38 237.498 230.131L217.54 233.602C212.215 234.528 206.776 234.584 201.433 233.769L190.51 232.103C183.581 231.046 176.951 228.544 171.052 224.76L169.898 224.019C159.352 217.254 151.731 206.776 148.542 194.659L143.5 175.5Z" fill="black" fill-opacity="0.3"/>
    </g>
    <path d="M312 46.4886L304.5 48.6315V80.7595V81.2087L304.253 81.584L302.179 84.736L302.1 84.8561L302 84.959C301.575 85.3942 301.271 85.9327 301.118 86.5216C301.118 86.5217 301.118 86.5218 301.118 86.5219C301.118 86.5219 301.118 86.522 301.118 86.522L299.717 91.908L298.265 91.5304L299.717 91.908C299.595 92.3778 299.572 92.8693 299.65 93.3514C299.65 93.3515 299.65 93.3516 299.65 93.3517L300.171 96.5542L300.171 96.5549C300.429 98.1501 300.085 99.7846 299.205 101.14L299.204 101.141L297.066 104.428C296.697 104.997 296.5 105.66 296.5 106.337V126C296.5 127.933 298.067 129.5 300 129.5H316C317.933 129.5 319.5 127.933 319.5 126V106.337C319.5 105.66 319.303 104.997 318.934 104.428L316.796 101.141L316.795 101.14C315.915 99.7846 315.571 98.1501 315.829 96.5549L315.829 96.5542L316.35 93.3517C316.428 92.8695 316.406 92.3779 316.283 91.908L316.283 91.908L314.848 86.3877L312 46.4886ZM312 46.4886V80.7595V81.1355L312.177 81.4671L313.894 84.6767L313.976 84.8291L314.09 84.959C314.45 85.3686 314.709 85.8573 314.847 86.3866L312 46.4886Z" fill="black" stroke="#7A7A7A" stroke-width="3"/>
    <path d="M135.396 22.4468L135.413 22.4421L135.43 22.437L203.499 2.06589L238.069 12.4367L238.073 12.4378L293.573 28.9378L293.59 28.943L293.607 28.9477L322 36.6474V46.0917L279.996 61.0873L279.944 61.1057L279.894 61.1278L203.557 94.8353L174.698 79.6721L174.625 79.6341L174.549 79.6041L144.049 67.6041L144.026 67.595L144.002 67.5866L83.5 46.09V36.6447L135.396 22.4468Z" fill="black" stroke="#7A7A7A" stroke-width="3"/>
    <path d="M110 43.9985L201.5 68.5V75.5L107.1 43L110 43.9985Z" fill="#D9D9D9"/>
    <path d="M204 95L150.013 68.1743L204 86.1743L256.013 69.1743L204 95Z" fill="#D9D9D9"/>
    </g>
    </g>
    <defs>
    <linearGradient id="paint0_linear_2_2" x1="304" y1="190" x2="289" y2="190" gradientUnits="userSpaceOnUse">
    <stop stop-color="#106857"/>
    <stop offset="1" stop-color="#1ABC9C"/>
    </linearGradient>
    <linearGradient id="paint1_linear_2_2" x1="118.5" y1="213" x2="118.5" y2="167" gradientUnits="userSpaceOnUse">
    <stop stop-color="#106857"/>
    <stop offset="1" stop-color="#1ABC9C"/>
    </linearGradient>
    <linearGradient id="paint2_linear_2_2" x1="207.5" y1="102" x2="207.5" y2="246" gradientUnits="userSpaceOnUse">
    <stop offset="0.115" stop-color="#106857"/>
    <stop offset="0.54" stop-color="#1ABC9C"/>
    <stop offset="0.665" stop-color="#FDFF9B"/>
    <stop offset="1" stop-color="#1ABC9C"/>
    </linearGradient>
    <linearGradient id="paint3_linear_2_2" x1="40.6446" y1="567.67" x2="226.837" y2="600.5" gradientUnits="userSpaceOnUse">
    <stop stop-color="#FDFF9B"/>
    <stop offset="0.5" stop-color="#1ABC9C"/>
    <stop offset="1" stop-color="#106857"/>
    </linearGradient>
    <linearGradient id="paint4_linear_2_2" x1="404.837" y1="567.67" x2="218.645" y2="600.5" gradientUnits="userSpaceOnUse">
    <stop stop-color="#106857"/>
    <stop offset="1" stop-color="#106857"/>
    </linearGradient>
    <linearGradient id="paint5_linear_2_2" x1="47" y1="350.5" x2="377" y2="350.5" gradientUnits="userSpaceOnUse">
    <stop stop-color="#FDFF9B"/>
    <stop offset="0.25" stop-color="#50FBD9"/>
    <stop offset="0.5" stop-color="#1ABC9C"/>
    <stop offset="0.75" stop-color="#1ABC9C"/>
    <stop offset="1" stop-color="#106857"/>
    </linearGradient>
    <linearGradient id="paint6_linear_2_2" x1="208.5" y1="509" x2="208.5" y2="527" gradientUnits="userSpaceOnUse">
    <stop stop-color="#106857"/>
    <stop offset="1" stop-color="#1ABC9C"/>
    </linearGradient>
    <linearGradient id="paint7_linear_2_2" x1="0" y1="517.5" x2="421" y2="517.5" gradientUnits="userSpaceOnUse">
    <stop stop-color="#FDFF9B"/>
    <stop offset="0.59" stop-color="#1ABC9C"/>
    <stop offset="0.93" stop-color="#106857"/>
    </linearGradient>
    <linearGradient id="paint8_linear_2_2" x1="178.352" y1="188" x2="178.352" y2="173" gradientUnits="userSpaceOnUse">
    <stop offset="0.24" stop-color="#50FBD9"/>
    <stop offset="0.675"/>
    </linearGradient>
    <linearGradient id="paint9_linear_2_2" x1="243.5" y1="531" x2="243.5" y2="536" gradientUnits="userSpaceOnUse">
    <stop stop-color="#FDFF9B"/>
    <stop offset="1" stop-color="#1ABC9C"/>
    </linearGradient>
    <linearGradient id="paint10_linear_2_2" x1="143.008" y1="533.978" x2="162" y2="533.914" gradientUnits="userSpaceOnUse">
    <stop stop-color="#FDFF9B"/>
    <stop offset="1" stop-color="#1ABC9C"/>
    </linearGradient>
    <linearGradient id="paint11_linear_2_2" x1="210.104" y1="222.182" x2="210.102" y2="167.191" gradientUnits="userSpaceOnUse">
    <stop stop-color="#1ABC9C"/>
    <stop offset="0.492422"/>
    </linearGradient>
    <linearGradient id="paint12_linear_2_2" x1="209.5" y1="213" x2="209.5" y2="230" gradientUnits="userSpaceOnUse">
    <stop stop-color="#1ABC9C"/>
    <stop offset="1" stop-color="#106857"/>
    </linearGradient>
    <linearGradient id="paint13_linear_2_2" x1="237.648" y1="187.647" x2="237.648" y2="172.647" gradientUnits="userSpaceOnUse">
    <stop offset="0.24" stop-color="#50FBD9"/>
    <stop offset="0.675"/>
    </linearGradient>
    <linearGradient id="paint14_linear_2_2" x1="210.5" y1="480" x2="210.5" y2="454" gradientUnits="userSpaceOnUse">
    <stop stop-color="#FDFF9B"/>
    <stop offset="1" stop-color="#1ABC9C"/>
    </linearGradient>
    <linearGradient id="paint15_linear_2_2" x1="138.75" y1="125" x2="138.75" y2="151" gradientUnits="userSpaceOnUse">
    <stop stop-color="#50FBD9"/>
    <stop offset="1" stop-color="#1ABC9C"/>
    </linearGradient>
    <linearGradient id="paint16_linear_2_2" x1="221.5" y1="134.5" x2="252.5" y2="134.5" gradientUnits="userSpaceOnUse">
    <stop stop-color="#50FBD9"/>
    <stop offset="1" stop-color="#106857"/>
    </linearGradient>
    <clipPath id="clip0_2_2">
    <rect width="421" height="621" fill="white"/>
    </clipPath>
    </defs>
</svg>
