<svg xmlns="http://www.w3.org/2000/svg" xmlns:xlink="http://www.w3.org/1999/xlink" xmlns:lucid="lucid" width="1454" height="1301.3"><g transform="translate(-1370.9548900558325 -465.31398836633565)" lucid:page-tab-id="0_0"><path d="M1391.95 499.6a6 6 0 0 1 6-6h191a6 6 0 0 1 6 6v151a6 6 0 0 1-6 6h-191a6 6 0 0 1-6-6z" stroke="#000" stroke-width="2" fill="url(#a)"/><use xlink:href="#b" transform="matrix(1,0,0,1,1403.9548900558325,505.61398836633566) translate(29.099999999999994 62.18125)"/><use xlink:href="#c" transform="matrix(1,0,0,1,1403.9548900558325,505.61398836633566) translate(128.95 62.18125)"/><use xlink:href="#d" transform="matrix(1,0,0,1,1403.9548900558325,505.61398836633566) translate(37.55 83.78125)"/><path d="M1794.95 492.3a6 6 0 0 1 6-6h191a6 6 0 0 1 6 6v165.6a6 6 0 0 1-6 6h-191a6 6 0 0 1-6-6z" stroke="#000" stroke-width="2" fill="url(#e)"/><use xlink:href="#f" transform="matrix(1,0,0,1,1806.9548900558325,498.31398836633565) translate(41.55925925925926 21.87916666666667)"/><use xlink:href="#g" transform="matrix(1,0,0,1,1806.9548900558325,498.31398836633565) translate(125.5888888888889 21.87916666666667)"/><use xlink:href="#h" transform="matrix(1,0,0,1,1806.9548900558325,498.31398836633565) translate(4.25555555555556 47.47916666666667)"/><use xlink:href="#i" transform="matrix(1,0,0,1,1806.9548900558325,498.31398836633565) translate(107.24814814814816 47.47916666666667)"/><use xlink:href="#j" transform="matrix(1,0,0,1,1806.9548900558325,498.31398836633565) translate(18.448148148148135 73.07916666666668)"/><use xlink:href="#k" transform="matrix(1,0,0,1,1806.9548900558325,498.31398836633565) translate(75.27777777777777 73.07916666666668)"/><use xlink:href="#l" transform="matrix(1,0,0,1,1806.9548900558325,498.31398836633565) translate(142.77407407407406 73.07916666666668)"/><use xlink:href="#m" transform="matrix(1,0,0,1,1806.9548900558325,498.31398836633565) translate(19.07037037037037 98.67916666666667)"/><use xlink:href="#n" transform="matrix(1,0,0,1,1806.9548900558325,498.31398836633565) translate(124.37407407407409 98.67916666666667)"/><use xlink:href="#o" transform="matrix(1,0,0,1,1806.9548900558325,498.31398836633565) translate(19.07037037037037 124.2791666666667)"/><use xlink:href="#p" transform="matrix(1,0,0,1,1806.9548900558325,498.31398836633565) translate(90.0037037037037 124.2791666666667)"/><use xlink:href="#q" transform="matrix(1,0,0,1,1806.9548900558325,498.31398836633565) translate(7.248148148148147 149.8791666666667)"/><path d="M2197.95 499.6a6 6 0 0 1 6-6h191a6 6 0 0 1 6 6v151a6 6 0 0 1-6 6h-191a6 6 0 0 1-6-6z" stroke="#000" stroke-width="2" fill="url(#r)"/><use xlink:href="#s" transform="matrix(1,0,0,1,2209.9548900558325,505.61398836633566) translate(47.55 75.2125)"/><path d="M2600.95 499.6a6 6 0 0 1 6-6h191a6 6 0 0 1 6 6v151a6 6 0 0 1-6 6h-191a6 6 0 0 1-6-6z" stroke="#000" stroke-width="2" fill="url(#t)"/><use xlink:href="#u" transform="matrix(1,0,0,1,2612.9548900558325,505.61398836633566) translate(19.174999999999997 40.4625)"/><use xlink:href="#v" transform="matrix(1,0,0,1,2612.9548900558325,505.61398836633566) translate(78.075 40.4625)"/><use xlink:href="#w" transform="matrix(1,0,0,1,2612.9548900558325,505.61398836633566) translate(19.650000000000006 62.0625)"/><use xlink:href="#x" transform="matrix(1,0,0,1,2612.9548900558325,505.61398836633566) translate(72.5 62.0625)"/><use xlink:href="#y" transform="matrix(1,0,0,1,2612.9548900558325,505.61398836633566) translate(129.35000000000002 62.0625)"/><use xlink:href="#z" transform="matrix(1,0,0,1,2612.9548900558325,505.61398836633566) translate(28.549999999999997 83.66250000000001)"/><use xlink:href="#A" transform="matrix(1,0,0,1,2612.9548900558325,505.61398836633566) translate(130.45 83.66250000000001)"/><use xlink:href="#B" transform="matrix(1,0,0,1,2612.9548900558325,505.61398836633566) translate(6.174999999999997 105.26250000000002)"/><use xlink:href="#C" transform="matrix(1,0,0,1,2612.9548900558325,505.61398836633566) translate(85.025 105.26250000000002)"/><use xlink:href="#D" transform="matrix(1,0,0,1,2612.9548900558325,505.61398836633566) translate(116.925 105.26250000000002)"/><path d="M1391.95 862.6a6 6 0 0 1 6-6h191a6 6 0 0 1 6 6v151a6 6 0 0 1-6 6h-191a6 6 0 0 1-6-6z" stroke="#000" stroke-width="2" fill="url(#E)"/><use xlink:href="#F" transform="matrix(1,0,0,1,1403.9548900558325,868.6139883663357) translate(23.099999999999994 75.2125)"/><use xlink:href="#G" transform="matrix(1,0,0,1,1403.9548900558325,868.6139883663357) translate(112 75.2125)"/><path d="M1794.95 862.6a6 6 0 0 1 6-6h191a6 6 0 0 1 6 6v151a6 6 0 0 1-6 6h-191a6 6 0 0 1-6-6z" stroke="#000" stroke-width="2" fill="url(#H)"/><use xlink:href="#I" transform="matrix(1,0,0,1,1806.9548900558325,868.6139883663357) translate(0.25 40.4625)"/><use xlink:href="#J" transform="matrix(1,0,0,1,1806.9548900558325,868.6139883663357) translate(44.85 40.4625)"/><use xlink:href="#K" transform="matrix(1,0,0,1,1806.9548900558325,868.6139883663357) translate(103.80000000000001 40.4625)"/><use xlink:href="#y" transform="matrix(1,0,0,1,1806.9548900558325,868.6139883663357) translate(148.75 40.4625)"/><use xlink:href="#L" transform="matrix(1,0,0,1,1806.9548900558325,868.6139883663357) translate(43.55 62.0625)"/><use xlink:href="#z" transform="matrix(1,0,0,1,1806.9548900558325,868.6139883663357) translate(0.625 83.66250000000001)"/><use xlink:href="#M" transform="matrix(1,0,0,1,1806.9548900558325,868.6139883663357) translate(102.525 83.66250000000001)"/><use xlink:href="#N" transform="matrix(1,0,0,1,1806.9548900558325,868.6139883663357) translate(153.375 83.66250000000001)"/><use xlink:href="#O" transform="matrix(1,0,0,1,1806.9548900558325,868.6139883663357) translate(47.55 105.26250000000002)"/><path d="M2197.95 862.6a6 6 0 0 1 6-6h191a6 6 0 0 1 6 6v151a6 6 0 0 1-6 6h-191a6 6 0 0 1-6-6z" stroke="#000" stroke-width="2" fill="url(#P)"/><use xlink:href="#Q" transform="matrix(1,0,0,1,2209.9548900558325,868.6139883663357) translate(49.074999999999996 75.2125)"/><path d="M2600.95 862.6a6 6 0 0 1 6-6h191a6 6 0 0 1 6 6v151a6 6 0 0 1-6 6h-191a6 6 0 0 1-6-6z" stroke="#000" stroke-width="2" fill="url(#R)"/><use xlink:href="#S" transform="matrix(1,0,0,1,2612.9548900558325,868.6139883663357) translate(42.099999999999994 40.4625)"/><use xlink:href="#T" transform="matrix(1,0,0,1,2612.9548900558325,868.6139883663357) translate(31.574999999999996 62.0625)"/><use xlink:href="#c" transform="matrix(1,0,0,1,2612.9548900558325,868.6139883663357) translate(126.475 62.0625)"/><use xlink:href="#U" transform="matrix(1,0,0,1,2612.9548900558325,868.6139883663357) translate(21.025000000000006 83.66250000000001)"/><use xlink:href="#V" transform="matrix(1,0,0,1,2612.9548900558325,868.6139883663357) translate(94.025 83.66250000000001)"/><use xlink:href="#W" transform="matrix(1,0,0,1,2612.9548900558325,868.6139883663357) translate(114.025 83.66250000000001)"/><use xlink:href="#X" transform="matrix(1,0,0,1,2612.9548900558325,868.6139883663357) translate(15.549999999999997 105.26250000000002)"/><use xlink:href="#Y" transform="matrix(1,0,0,1,2612.9548900558325,868.6139883663357) translate(78.5 105.26250000000002)"/><use xlink:href="#Z" transform="matrix(1,0,0,1,2612.9548900558325,868.6139883663357) translate(122.5 105.26250000000002)"/><path d="M1391.95 1225.6a6 6 0 0 1 6-6h191a6 6 0 0 1 6 6v151a6 6 0 0 1-6 6h-191a6 6 0 0 1-6-6z" stroke="#000" stroke-width="2" fill="url(#aa)"/><use xlink:href="#ab" transform="matrix(1,0,0,1,1403.9548900558325,1231.6139883663357) translate(22.25 75.2125)"/><use xlink:href="#ac" transform="matrix(1,0,0,1,1403.9548900558325,1231.6139883663357) translate(76.2 75.2125)"/><path d="M1794.95 1225.6a6 6 0 0 1 6-6h191a6 6 0 0 1 6 6v151a6 6 0 0 1-6 6h-191a6 6 0 0 1-6-6z" stroke="#000" stroke-width="2" fill="url(#ad)"/><g><use xlink:href="#ae" transform="matrix(1,0,0,1,1806.9548900558325,1231.6139883663357) translate(45.55 18.74375)"/><use xlink:href="#af" transform="matrix(1,0,0,1,1806.9548900558325,1231.6139883663357) translate(123.45 18.74375)"/><use xlink:href="#ag" transform="matrix(1,0,0,1,1806.9548900558325,1231.6139883663357) translate(12.599999999999994 40.34375)"/><use xlink:href="#ah" transform="matrix(1,0,0,1,1806.9548900558325,1231.6139883663357) translate(118.39999999999999 40.34375)"/><use xlink:href="#ai" transform="matrix(1,0,0,1,1806.9548900558325,1231.6139883663357) translate(5.700000000000003 61.94375)"/><use xlink:href="#U" transform="matrix(1,0,0,1,1806.9548900558325,1231.6139883663357) translate(31.650000000000002 61.94375)"/><use xlink:href="#aj" transform="matrix(1,0,0,1,1806.9548900558325,1231.6139883663357) translate(104.65 61.94375)"/><use xlink:href="#ak" transform="matrix(1,0,0,1,1806.9548900558325,1231.6139883663357) translate(139.64999999999998 61.94375)"/><use xlink:href="#V" transform="matrix(1,0,0,1,1806.9548900558325,1231.6139883663357) translate(5.074999999999989 83.54375000000002)"/><use xlink:href="#al" transform="matrix(1,0,0,1,1806.9548900558325,1231.6139883663357) translate(25.07499999999999 83.54375000000002)"/><use xlink:href="#am" transform="matrix(1,0,0,1,1806.9548900558325,1231.6139883663357) translate(93.02499999999999 83.54375000000002)"/><use xlink:href="#an" transform="matrix(1,0,0,1,1806.9548900558325,1231.6139883663357) translate(13.074999999999989 105.14375000000001)"/><use xlink:href="#aj" transform="matrix(1,0,0,1,1806.9548900558325,1231.6139883663357) translate(72.02499999999999 105.14375000000001)"/><use xlink:href="#ao" transform="matrix(1,0,0,1,1806.9548900558325,1231.6139883663357) translate(107.02499999999999 105.14375000000001)"/><use xlink:href="#ap" transform="matrix(1,0,0,1,1806.9548900558325,1231.6139883663357) translate(41.05 126.74375)"/></g><path d="M2197.95 1225.6a6 6 0 0 1 6-6h191a6 6 0 0 1 6 6v151a6 6 0 0 1-6 6h-191a6 6 0 0 1-6-6z" stroke="#000" stroke-width="2" fill="url(#aq)"/><g><use xlink:href="#ar" transform="matrix(1,0,0,1,2209.9548900558325,1231.6139883663357) translate(46.05 62.18125)"/><use xlink:href="#as" transform="matrix(1,0,0,1,2209.9548900558325,1231.6139883663357) translate(44.725 83.78125)"/></g><path d="M2600.95 1225.6a6 6 0 0 1 6-6h191a6 6 0 0 1 6 6v151a6 6 0 0 1-6 6h-191a6 6 0 0 1-6-6z" stroke="#000" stroke-width="2" fill="url(#at)"/><g><use xlink:href="#au" transform="matrix(1,0,0,1,2612.9548900558325,1231.6139883663357) translate(10.574999999999989 31.775)"/><use xlink:href="#av" transform="matrix(1,0,0,1,2612.9548900558325,1231.6139883663357) translate(82.52499999999999 31.775)"/><use xlink:href="#aw" transform="matrix(1,0,0,1,2612.9548900558325,1231.6139883663357) translate(0.5499999999999972 53.375)"/><use xlink:href="#ax" transform="matrix(1,0,0,1,2612.9548900558325,1231.6139883663357) translate(68.55 53.375)"/><use xlink:href="#ay" transform="matrix(1,0,0,1,2612.9548900558325,1231.6139883663357) translate(93.55 53.375)"/><use xlink:href="#az" transform="matrix(1,0,0,1,2612.9548900558325,1231.6139883663357) translate(44.199999999999996 74.97500000000001)"/><use xlink:href="#aA" transform="matrix(1,0,0,1,2612.9548900558325,1231.6139883663357) translate(6.575000000000003 96.57500000000002)"/><use xlink:href="#aj" transform="matrix(1,0,0,1,2612.9548900558325,1231.6139883663357) translate(119.47500000000001 96.57500000000002)"/><use xlink:href="#aB" transform="matrix(1,0,0,1,2612.9548900558325,1231.6139883663357) translate(154.47500000000002 96.57500000000002)"/><use xlink:href="#aC" transform="matrix(1,0,0,1,2612.9548900558325,1231.6139883663357) translate(6.1499999999999915 118.17500000000001)"/><use xlink:href="#aD" transform="matrix(1,0,0,1,2612.9548900558325,1231.6139883663357) translate(78 118.17500000000001)"/></g><path d="M1391.95 1588.6a6 6 0 0 1 6-6h191a6 6 0 0 1 6 6v151a6 6 0 0 1-6 6h-191a6 6 0 0 1-6-6z" stroke="#000" stroke-width="2" fill="url(#aE)"/><g><use xlink:href="#aF" transform="matrix(1,0,0,1,1403.9548900558325,1594.6139883663357) translate(35.599999999999994 75.2125)"/><use xlink:href="#aG" transform="matrix(1,0,0,1,1403.9548900558325,1594.6139883663357) translate(76.5 75.2125)"/></g><path d="M1794.95 1588.6a6 6 0 0 1 6-6h191a6 6 0 0 1 6 6v151a6 6 0 0 1-6 6h-191a6 6 0 0 1-6-6z" stroke="#000" stroke-width="2" fill="url(#aH)"/><g><use xlink:href="#aI" transform="matrix(1,0,0,1,1806.9548900558325,1594.6139883663357) translate(26.074999999999996 40.4625)"/><use xlink:href="#aJ" transform="matrix(1,0,0,1,1806.9548900558325,1594.6139883663357) translate(119.975 40.4625)"/><use xlink:href="#aK" transform="matrix(1,0,0,1,1806.9548900558325,1594.6139883663357) translate(3.075000000000003 62.0625)"/><use xlink:href="#aL" transform="matrix(1,0,0,1,1806.9548900558325,1594.6139883663357) translate(71.025 62.0625)"/><use xlink:href="#V" transform="matrix(1,0,0,1,1806.9548900558325,1594.6139883663357) translate(130.925 62.0625)"/><use xlink:href="#N" transform="matrix(1,0,0,1,1806.9548900558325,1594.6139883663357) translate(150.925 62.0625)"/><use xlink:href="#aM" transform="matrix(1,0,0,1,1806.9548900558325,1594.6139883663357) translate(18.075000000000003 83.66250000000001)"/><use xlink:href="#aj" transform="matrix(1,0,0,1,1806.9548900558325,1594.6139883663357) translate(107.97500000000001 83.66250000000001)"/><use xlink:href="#aB" transform="matrix(1,0,0,1,1806.9548900558325,1594.6139883663357) translate(142.97500000000002 83.66250000000001)"/><use xlink:href="#aD" transform="matrix(1,0,0,1,1806.9548900558325,1594.6139883663357) translate(42.074999999999996 105.26250000000002)"/></g><path d="M2197.95 1588.6a6 6 0 0 1 6-6h191a6 6 0 0 1 6 6v151a6 6 0 0 1-6 6h-191a6 6 0 0 1-6-6z" stroke="#000" stroke-width="2" fill="url(#aN)"/><g><use xlink:href="#aO" transform="matrix(1,0,0,1,2209.9548900558325,1594.6139883663357) translate(14.125 75.2125)"/><use xlink:href="#aP" transform="matrix(1,0,0,1,2209.9548900558325,1594.6139883663357) translate(79.97500000000001 75.2125)"/></g><path d="M2600.95 1588.6a6 6 0 0 1 6-6h191a6 6 0 0 1 6 6v151a6 6 0 0 1-6 6h-191a6 6 0 0 1-6-6z" stroke="#000" stroke-width="2" fill="url(#aQ)"/><g><use xlink:href="#aR" transform="matrix(1,0,0,1,2612.9548900558325,1594.6139883663357) translate(3.5999999999999943 14.4)"/><use xlink:href="#aS" transform="matrix(1,0,0,1,2612.9548900558325,1594.6139883663357) translate(97.5 14.4)"/><use xlink:href="#aT" transform="matrix(1,0,0,1,2612.9548900558325,1594.6139883663357) translate(160.4 14.4)"/><use xlink:href="#aU" transform="matrix(1,0,0,1,2612.9548900558325,1594.6139883663357) translate(56.575 36)"/><use xlink:href="#aV" transform="matrix(1,0,0,1,2612.9548900558325,1594.6139883663357) translate(11.599999999999994 57.6)"/><use xlink:href="#y" transform="matrix(1,0,0,1,2612.9548900558325,1594.6139883663357) translate(137.4 57.6)"/><use xlink:href="#aW" transform="matrix(1,0,0,1,2612.9548900558325,1594.6139883663357) translate(1.6749999999999972 79.20000000000002)"/><use xlink:href="#aX" transform="matrix(1,0,0,1,2612.9548900558325,1594.6139883663357) translate(113.475 79.20000000000002)"/><use xlink:href="#aY" transform="matrix(1,0,0,1,2612.9548900558325,1594.6139883663357) translate(23.025000000000006 100.80000000000001)"/><use xlink:href="#aZ" transform="matrix(1,0,0,1,2612.9548900558325,1594.6139883663357) translate(53.025000000000006 100.80000000000001)"/><use xlink:href="#ba" transform="matrix(1,0,0,1,2612.9548900558325,1594.6139883663357) translate(88.025 100.80000000000001)"/><use xlink:href="#bb" transform="matrix(1,0,0,1,2612.9548900558325,1594.6139883663357) translate(22.900000000000006 122.4)"/><use xlink:href="#aj" transform="matrix(1,0,0,1,2612.9548900558325,1594.6139883663357) translate(74.5 122.4)"/><use xlink:href="#bc" transform="matrix(1,0,0,1,2612.9548900558325,1594.6139883663357) translate(109.5 122.4)"/><use xlink:href="#bd" transform="matrix(1,0,0,1,2612.9548900558325,1594.6139883663357) translate(39.099999999999994 144)"/></g><path d="M1597.45 575.1h175.88" stroke="#3a414a" stroke-width="3" fill="none"/><path d="M1597.5 576.6h-1.55v-2.96h1.54z" stroke="#3a414a" stroke-width=".05" fill="#3a414a"/><path d="M1789.1 575.1l-14.26 4.65v-9.27z" stroke="#3a414a" stroke-width="3" fill="#3a414a"/><path d="M2403.45 575.1h175.9" stroke="#3a414a" stroke-width="3" fill="none"/><path d="M2403.5 576.6h-1.55v-2.96h1.54z" stroke="#3a414a" stroke-width=".05" fill="#3a414a"/><path d="M2595.1 575.1l-14.26 4.65v-9.27z" stroke="#3a414a" stroke-width="3" fill="#3a414a"/><path d="M1597.45 938.1h175.88" stroke="#3a414a" stroke-width="3" fill="none"/><path d="M1597.5 939.6h-1.55v-2.96h1.54z" stroke="#3a414a" stroke-width=".05" fill="#3a414a"/><path d="M1789.1 938.1l-14.26 4.65v-9.27z" stroke="#3a414a" stroke-width="3" fill="#3a414a"/><path d="M2403.45 938.1h175.9" stroke="#3a414a" stroke-width="3" fill="none"/><path d="M2403.5 939.6h-1.55v-2.96h1.54z" stroke="#3a414a" stroke-width=".05" fill="#3a414a"/><path d="M2595.1 938.1l-14.26 4.65v-9.27z" stroke="#3a414a" stroke-width="3" fill="#3a414a"/><path d="M1597.45 1301.1h175.88" stroke="#3a414a" stroke-width="3" fill="none"/><path d="M1597.5 1302.6h-1.55v-2.96h1.54z" stroke="#3a414a" stroke-width=".05" fill="#3a414a"/><path d="M1789.1 1301.1l-14.26 4.65v-9.27z" stroke="#3a414a" stroke-width="3" fill="#3a414a"/><path d="M2403.45 1301.1h175.9" stroke="#3a414a" stroke-width="3" fill="none"/><path d="M2403.5 1302.6h-1.55v-2.96h1.54z" stroke="#3a414a" stroke-width=".05" fill="#3a414a"/><path d="M2595.1 1301.1l-14.26 4.65v-9.27z" stroke="#3a414a" stroke-width="3" fill="#3a414a"/><path d="M1597.45 1664.1h175.88" stroke="#3a414a" stroke-width="3" fill="none"/><path d="M1597.5 1665.6h-1.55v-2.96h1.54z" stroke="#3a414a" stroke-width=".05" fill="#3a414a"/><path d="M1789.1 1664.1l-14.26 4.65v-9.27z" stroke="#3a414a" stroke-width="3" fill="#3a414a"/><path d="M2403.45 1664.1h175.9" stroke="#3a414a" stroke-width="3" fill="none"/><path d="M2403.5 1665.6h-1.55v-2.96h1.54z" stroke="#3a414a" stroke-width=".05" fill="#3a414a"/><path d="M2595.1 1664.1l-14.26 4.65v-9.27z" stroke="#3a414a" stroke-width="3" fill="#3a414a"/><defs><linearGradient gradientUnits="userSpaceOnUse" id="a" x1="1391.95" y1="493.61" x2="1391.95" y2="656.61"><stop offset="0%" stop-color="#fdff9b"/><stop offset="47.5%" stop-color="#50fbd9"/><stop offset="99.29%" stop-color="#106857"/></linearGradient><path d="M127-220V0H93v-220H8v-28h204v28h-85" id="be"/><path d="M100-194c62-1 85 37 85 99 1 63-27 99-86 99S16-35 15-95c0-66 28-99 85-99zM99-20c44 1 53-31 53-75 0-43-8-75-51-75s-53 32-53 75 10 74 51 75" id="bf"/><path d="M143 0L79-87 56-68V0H24v-261h32v163l83-92h37l-77 82L181 0h-38" id="bg"/><path d="M100-194c63 0 86 42 84 106H49c0 40 14 67 53 68 26 1 43-12 49-29l28 8c-11 28-37 45-77 45C44 4 14-33 15-96c1-61 26-98 85-98zm52 81c6-60-76-77-97-28-3 7-6 17-6 28h103" id="bh"/><path d="M117-194c89-4 53 116 60 194h-32v-121c0-31-8-49-39-48C34-167 62-67 57 0H25l-1-190h30c1 10-1 24 2 32 11-22 29-35 61-36" id="bi"/><path d="M210-169c-67 3-38 105-44 169h-31v-121c0-29-5-50-35-48C34-165 62-65 56 0H25l-1-190h30c1 10-1 24 2 32 10-44 99-50 107 0 11-21 27-35 58-36 85-2 47 119 55 194h-31v-121c0-29-5-49-35-48" id="bj"/><path d="M24-231v-30h32v30H24zM24 0v-190h32V0H24" id="bk"/><path d="M96-169c-40 0-48 33-48 73s9 75 48 75c24 0 41-14 43-38l32 2c-6 37-31 61-74 61-59 0-76-41-82-99-10-93 101-131 147-64 4 7 5 14 7 22l-32 3c-4-21-16-35-41-35" id="bl"/><path d="M135-143c-3-34-86-38-87 0 15 53 115 12 119 90S17 21 10-45l28-5c4 36 97 45 98 0-10-56-113-15-118-90-4-57 82-63 122-42 12 7 21 19 24 35" id="bm"/><g id="b"><use transform="matrix(0.05,0,0,0.05,0,0)" xlink:href="#be"/><use transform="matrix(0.05,0,0,0.05,8.950000000000001,0)" xlink:href="#bf"/><use transform="matrix(0.05,0,0,0.05,18.950000000000003,0)" xlink:href="#bg"/><use transform="matrix(0.05,0,0,0.05,27.950000000000003,0)" xlink:href="#bh"/><use transform="matrix(0.05,0,0,0.05,37.95,0)" xlink:href="#bi"/><use transform="matrix(0.05,0,0,0.05,47.95,0)" xlink:href="#bf"/><use transform="matrix(0.05,0,0,0.05,57.95,0)" xlink:href="#bj"/><use transform="matrix(0.05,0,0,0.05,72.9,0)" xlink:href="#bk"/><use transform="matrix(0.05,0,0,0.05,76.85000000000001,0)" xlink:href="#bl"/><use transform="matrix(0.05,0,0,0.05,85.85000000000001,0)" xlink:href="#bm"/></g><path d="M101-234c-31-9-42 10-38 44h38v23H63V0H32v-167H5v-23h27c-7-52 17-82 69-68v24" id="bn"/><path d="M114-163C36-179 61-72 57 0H25l-1-190h30c1 12-1 29 2 39 6-27 23-49 58-41v29" id="bo"/><g id="c"><use transform="matrix(0.05,0,0,0.05,0,0)" xlink:href="#bn"/><use transform="matrix(0.05,0,0,0.05,5,0)" xlink:href="#bf"/><use transform="matrix(0.05,0,0,0.05,15,0)" xlink:href="#bo"/></g><path d="M205 0l-28-72H64L36 0H1l101-248h38L239 0h-34zm-38-99l-47-123c-12 45-31 82-46 123h93" id="bp"/><path d="M106-169C34-169 62-67 57 0H25v-261h32l-1 103c12-21 28-36 61-36 89 0 53 116 60 194h-32v-121c2-32-8-49-39-48" id="bq"/><path d="M108 0H70L1-190h34L89-25l56-165h34" id="br"/><path d="M59-47c-2 24 18 29 38 22v24C64 9 27 4 27-40v-127H5v-23h24l9-43h21v43h35v23H59v120" id="bs"/><g id="d"><use transform="matrix(0.05,0,0,0.05,0,0)" xlink:href="#bp"/><use transform="matrix(0.05,0,0,0.05,12,0)" xlink:href="#bl"/><use transform="matrix(0.05,0,0,0.05,21,0)" xlink:href="#bq"/><use transform="matrix(0.05,0,0,0.05,31,0)" xlink:href="#bk"/><use transform="matrix(0.05,0,0,0.05,34.95,0)" xlink:href="#bh"/><use transform="matrix(0.05,0,0,0.05,44.95,0)" xlink:href="#br"/><use transform="matrix(0.05,0,0,0.05,53.95,0)" xlink:href="#bh"/><use transform="matrix(0.05,0,0,0.05,63.95,0)" xlink:href="#bj"/><use transform="matrix(0.05,0,0,0.05,78.9,0)" xlink:href="#bh"/><use transform="matrix(0.05,0,0,0.05,88.9,0)" xlink:href="#bi"/><use transform="matrix(0.05,0,0,0.05,98.9,0)" xlink:href="#bs"/></g><linearGradient gradientUnits="userSpaceOnUse" id="e" x1="1794.95" y1="486.31" x2="1794.95" y2="663.91"><stop offset="0%" stop-color="#fdff9b"/><stop offset="47.5%" stop-color="#50fbd9"/><stop offset="99.29%" stop-color="#106857"/></linearGradient><path d="M30-248c118-7 216 8 213 122C240-48 200 0 122 0H30v-248zM63-27c89 8 146-16 146-99s-60-101-146-95v194" id="bt"/><path d="M24 0v-261h32V0H24" id="bu"/><path d="M115-194c55 1 70 41 70 98S169 2 115 4C84 4 66-9 55-30l1 105H24l-1-265h31l2 30c10-21 28-34 59-34zm-8 174c40 0 45-34 45-75s-6-73-45-74c-42 0-51 32-51 76 0 43 10 73 51 73" id="bv"/><g id="f"><use transform="matrix(0.05925925925925927,0,0,0.05925925925925927,0,0)" xlink:href="#bt"/><use transform="matrix(0.05925925925925927,0,0,0.05925925925925927,15.34814814814815,0)" xlink:href="#bh"/><use transform="matrix(0.05925925925925927,0,0,0.05925925925925927,27.200000000000003,0)" xlink:href="#br"/><use transform="matrix(0.05925925925925927,0,0,0.05925925925925927,37.866666666666674,0)" xlink:href="#bh"/><use transform="matrix(0.05925925925925927,0,0,0.05925925925925927,49.71851851851853,0)" xlink:href="#bu"/><use transform="matrix(0.05925925925925927,0,0,0.05925925925925927,54.40000000000001,0)" xlink:href="#bf"/><use transform="matrix(0.05925925925925927,0,0,0.05925925925925927,66.25185185185187,0)" xlink:href="#bv"/></g><path d="M141-36C126-15 110 5 73 4 37 3 15-17 15-53c-1-64 63-63 125-63 3-35-9-54-41-54-24 1-41 7-42 31l-33-3c5-37 33-52 76-52 45 0 72 20 72 64v82c-1 20 7 32 28 27v20c-31 9-61-2-59-35zM48-53c0 20 12 33 32 33 41-3 63-29 60-74-43 2-92-5-92 41" id="bw"/><use transform="matrix(0.05925925925925927,0,0,0.05925925925925927,0,0)" xlink:href="#bw" id="g"/><g id="h"><use transform="matrix(0.05925925925925927,0,0,0.05925925925925927,0,0)" xlink:href="#bs"/><use transform="matrix(0.05925925925925927,0,0,0.05925925925925927,5.9259259259259265,0)" xlink:href="#bf"/><use transform="matrix(0.05925925925925927,0,0,0.05925925925925927,17.77777777777778,0)" xlink:href="#bg"/><use transform="matrix(0.05925925925925927,0,0,0.05925925925925927,28.444444444444446,0)" xlink:href="#bh"/><use transform="matrix(0.05925925925925927,0,0,0.05925925925925927,40.2962962962963,0)" xlink:href="#bi"/><use transform="matrix(0.05925925925925927,0,0,0.05925925925925927,52.14814814814815,0)" xlink:href="#bf"/><use transform="matrix(0.05925925925925927,0,0,0.05925925925925927,64,0)" xlink:href="#bj"/><use transform="matrix(0.05925925925925927,0,0,0.05925925925925927,81.71851851851852,0)" xlink:href="#bk"/><use transform="matrix(0.05925925925925927,0,0,0.05925925925925927,86.4,0)" xlink:href="#bl"/></g><path d="M179-190L93 31C79 59 56 82 12 73V49c39 6 53-20 64-50L1-190h34L92-34l54-156h33" id="bx"/><g id="i"><use transform="matrix(0.05925925925925927,0,0,0.05925925925925927,0,0)" xlink:href="#bm"/><use transform="matrix(0.05925925925925927,0,0,0.05925925925925927,10.666666666666668,0)" xlink:href="#bx"/><use transform="matrix(0.05925925925925927,0,0,0.05925925925925927,21.333333333333336,0)" xlink:href="#bm"/><use transform="matrix(0.05925925925925927,0,0,0.05925925925925927,32,0)" xlink:href="#bs"/><use transform="matrix(0.05925925925925927,0,0,0.05925925925925927,37.925925925925924,0)" xlink:href="#bh"/><use transform="matrix(0.05925925925925927,0,0,0.05925925925925927,49.77777777777778,0)" xlink:href="#bj"/></g><path d="M84 4C-5 8 30-112 23-190h32v120c0 31 7 50 39 49 72-2 45-101 50-169h31l1 190h-30c-1-10 1-25-2-33-11 22-28 36-60 37" id="by"/><path d="M177-190C167-65 218 103 67 71c-23-6-38-20-44-43l32-5c15 47 100 32 89-28v-30C133-14 115 1 83 1 29 1 15-40 15-95c0-56 16-97 71-98 29-1 48 16 59 35 1-10 0-23 2-32h30zM94-22c36 0 50-32 50-73 0-42-14-75-50-75-39 0-46 34-46 75s6 73 46 73" id="bz"/><g id="j"><use transform="matrix(0.05925925925925927,0,0,0.05925925925925927,0,0)" xlink:href="#by"/><use transform="matrix(0.05925925925925927,0,0,0.05925925925925927,11.851851851851853,0)" xlink:href="#bm"/><use transform="matrix(0.05925925925925927,0,0,0.05925925925925927,22.51851851851852,0)" xlink:href="#bk"/><use transform="matrix(0.05925925925925927,0,0,0.05925925925925927,27.200000000000003,0)" xlink:href="#bi"/><use transform="matrix(0.05925925925925927,0,0,0.05925925925925927,39.05185185185186,0)" xlink:href="#bz"/></g><path d="M233-177c-1 41-23 64-60 70L243 0h-38l-65-103H63V0H30v-248c88 3 205-21 203 71zM63-129c60-2 137 13 137-47 0-61-80-42-137-45v92" id="bA"/><g id="k"><use transform="matrix(0.05925925925925927,0,0,0.05925925925925927,0,0)" xlink:href="#bA"/><use transform="matrix(0.05925925925925927,0,0,0.05925925925925927,15.34814814814815,0)" xlink:href="#by"/><use transform="matrix(0.05925925925925927,0,0,0.05925925925925927,27.200000000000003,0)" xlink:href="#bi"/><use transform="matrix(0.05925925925925927,0,0,0.05925925925925927,39.05185185185186,0)" xlink:href="#bh"/><use transform="matrix(0.05925925925925927,0,0,0.05925925925925927,50.90370370370371,0)" xlink:href="#bm"/></g><g id="l"><use transform="matrix(0.05925925925925927,0,0,0.05925925925925927,0,0)" xlink:href="#bs"/><use transform="matrix(0.05925925925925927,0,0,0.05925925925925927,5.9259259259259265,0)" xlink:href="#bf"/></g><path d="M9 0v-24l116-142H16v-24h144v24L44-24h123V0H9" id="bB"/><g id="m"><use transform="matrix(0.05925925925925927,0,0,0.05925925925925927,0,0)" xlink:href="#bk"/><use transform="matrix(0.05925925925925927,0,0,0.05925925925925927,4.681481481481482,0)" xlink:href="#bi"/><use transform="matrix(0.05925925925925927,0,0,0.05925925925925927,16.533333333333335,0)" xlink:href="#bl"/><use transform="matrix(0.05925925925925927,0,0,0.05925925925925927,27.200000000000003,0)" xlink:href="#bh"/><use transform="matrix(0.05925925925925927,0,0,0.05925925925925927,39.05185185185186,0)" xlink:href="#bi"/><use transform="matrix(0.05925925925925927,0,0,0.05925925925925927,50.90370370370371,0)" xlink:href="#bs"/><use transform="matrix(0.05925925925925927,0,0,0.05925925925925927,56.829629629629636,0)" xlink:href="#bk"/><use transform="matrix(0.05925925925925927,0,0,0.05925925925925927,61.51111111111112,0)" xlink:href="#br"/><use transform="matrix(0.05925925925925927,0,0,0.05925925925925927,72.17777777777779,0)" xlink:href="#bk"/><use transform="matrix(0.05925925925925927,0,0,0.05925925925925927,76.85925925925928,0)" xlink:href="#bB"/><use transform="matrix(0.05925925925925927,0,0,0.05925925925925927,87.52592592592595,0)" xlink:href="#bh"/></g><path d="M85-194c31 0 48 13 60 33l-1-100h32l1 261h-30c-2-10 0-23-3-31C134-8 116 4 85 4 32 4 16-35 15-94c0-66 23-100 70-100zm9 24c-40 0-46 34-46 75 0 40 6 74 45 74 42 0 51-32 51-76 0-42-9-74-50-73" id="bC"/><g id="n"><use transform="matrix(0.05925925925925927,0,0,0.05925925925925927,0,0)" xlink:href="#bw"/><use transform="matrix(0.05925925925925927,0,0,0.05925925925925927,11.851851851851853,0)" xlink:href="#bi"/><use transform="matrix(0.05925925925925927,0,0,0.05925925925925927,23.703703703703706,0)" xlink:href="#bC"/></g><path d="M206 0h-36l-40-164L89 0H53L-1-190h32L70-26l43-164h34l41 164 42-164h31" id="bD"/><g id="o"><use transform="matrix(0.05925925925925927,0,0,0.05925925925925927,0,0)" xlink:href="#bo"/><use transform="matrix(0.05925925925925927,0,0,0.05925925925925927,7.051851851851853,0)" xlink:href="#bh"/><use transform="matrix(0.05925925925925927,0,0,0.05925925925925927,18.903703703703705,0)" xlink:href="#bD"/><use transform="matrix(0.05925925925925927,0,0,0.05925925925925927,34.25185185185185,0)" xlink:href="#bw"/><use transform="matrix(0.05925925925925927,0,0,0.05925925925925927,46.10370370370371,0)" xlink:href="#bo"/><use transform="matrix(0.05925925925925927,0,0,0.05925925925925927,53.15555555555556,0)" xlink:href="#bC"/></g><g id="p"><use transform="matrix(0.05925925925925927,0,0,0.05925925925925927,0,0)" xlink:href="#bm"/><use transform="matrix(0.05925925925925927,0,0,0.05925925925925927,10.666666666666668,0)" xlink:href="#bs"/><use transform="matrix(0.05925925925925927,0,0,0.05925925925925927,16.592592592592595,0)" xlink:href="#by"/><use transform="matrix(0.05925925925925927,0,0,0.05925925925925927,28.44444444444445,0)" xlink:href="#bC"/><use transform="matrix(0.05925925925925927,0,0,0.05925925925925927,40.296296296296305,0)" xlink:href="#bh"/><use transform="matrix(0.05925925925925927,0,0,0.05925925925925927,52.14814814814816,0)" xlink:href="#bi"/><use transform="matrix(0.05925925925925927,0,0,0.05925925925925927,64.00000000000001,0)" xlink:href="#bs"/></g><g id="q"><use transform="matrix(0.05925925925925927,0,0,0.05925925925925927,0,0)" xlink:href="#bw"/><use transform="matrix(0.05925925925925927,0,0,0.05925925925925927,11.851851851851853,0)" xlink:href="#bl"/><use transform="matrix(0.05925925925925927,0,0,0.05925925925925927,22.51851851851852,0)" xlink:href="#bl"/><use transform="matrix(0.05925925925925927,0,0,0.05925925925925927,33.18518518518519,0)" xlink:href="#bf"/><use transform="matrix(0.05925925925925927,0,0,0.05925925925925927,45.037037037037045,0)" xlink:href="#bj"/><use transform="matrix(0.05925925925925927,0,0,0.05925925925925927,62.75555555555557,0)" xlink:href="#bv"/><use transform="matrix(0.05925925925925927,0,0,0.05925925925925927,74.60740740740742,0)" xlink:href="#bu"/><use transform="matrix(0.05925925925925927,0,0,0.05925925925925927,79.2888888888889,0)" xlink:href="#bk"/><use transform="matrix(0.05925925925925927,0,0,0.05925925925925927,83.97037037037039,0)" xlink:href="#bm"/><use transform="matrix(0.05925925925925927,0,0,0.05925925925925927,94.63703703703706,0)" xlink:href="#bq"/><use transform="matrix(0.05925925925925927,0,0,0.05925925925925927,106.48888888888891,0)" xlink:href="#bj"/><use transform="matrix(0.05925925925925927,0,0,0.05925925925925927,124.20740740740743,0)" xlink:href="#bh"/><use transform="matrix(0.05925925925925927,0,0,0.05925925925925927,136.05925925925928,0)" xlink:href="#bi"/><use transform="matrix(0.05925925925925927,0,0,0.05925925925925927,147.91111111111113,0)" xlink:href="#bs"/><use transform="matrix(0.05925925925925927,0,0,0.05925925925925927,153.83703703703705,0)" xlink:href="#bm"/></g><linearGradient gradientUnits="userSpaceOnUse" id="r" x1="2197.95" y1="493.61" x2="2197.95" y2="656.61"><stop offset="0%" stop-color="#fdff9b"/><stop offset="47.5%" stop-color="#50fbd9"/><stop offset="99.29%" stop-color="#106857"/></linearGradient><path d="M240 0l2-218c-23 76-54 145-80 218h-23L58-218 59 0H30v-248h44l77 211c21-75 51-140 76-211h43V0h-30" id="bE"/><g id="s"><use transform="matrix(0.05,0,0,0.05,0,0)" xlink:href="#bE"/><use transform="matrix(0.05,0,0,0.05,14.950000000000001,0)" xlink:href="#bh"/><use transform="matrix(0.05,0,0,0.05,24.950000000000003,0)" xlink:href="#bs"/><use transform="matrix(0.05,0,0,0.05,29.950000000000003,0)" xlink:href="#bw"/><use transform="matrix(0.05,0,0,0.05,39.95,0)" xlink:href="#br"/><use transform="matrix(0.05,0,0,0.05,48.95,0)" xlink:href="#bh"/><use transform="matrix(0.05,0,0,0.05,58.95,0)" xlink:href="#bo"/><use transform="matrix(0.05,0,0,0.05,64.9,0)" xlink:href="#bm"/><use transform="matrix(0.05,0,0,0.05,73.9,0)" xlink:href="#bh"/></g><linearGradient gradientUnits="userSpaceOnUse" id="t" x1="2600.95" y1="493.61" x2="2600.95" y2="656.61"><stop offset="0%" stop-color="#fdff9b"/><stop offset="47.5%" stop-color="#50fbd9"/><stop offset="99.29%" stop-color="#106857"/></linearGradient><path d="M212-179c-10-28-35-45-73-45-59 0-87 40-87 99 0 60 29 101 89 101 43 0 62-24 78-52l27 14C228-24 195 4 139 4 59 4 22-46 18-125c-6-104 99-153 187-111 19 9 31 26 39 46" id="bF"/><g id="u"><use transform="matrix(0.05,0,0,0.05,0,0)" xlink:href="#bF"/><use transform="matrix(0.05,0,0,0.05,12.950000000000001,0)" xlink:href="#bo"/><use transform="matrix(0.05,0,0,0.05,18.900000000000002,0)" xlink:href="#bh"/><use transform="matrix(0.05,0,0,0.05,28.900000000000002,0)" xlink:href="#bw"/><use transform="matrix(0.05,0,0,0.05,38.900000000000006,0)" xlink:href="#bs"/><use transform="matrix(0.05,0,0,0.05,43.900000000000006,0)" xlink:href="#bh"/></g><g id="v"><use transform="matrix(0.05,0,0,0.05,0,0)" xlink:href="#bk"/><use transform="matrix(0.05,0,0,0.05,3.95,0)" xlink:href="#bj"/><use transform="matrix(0.05,0,0,0.05,18.900000000000002,0)" xlink:href="#bj"/><use transform="matrix(0.05,0,0,0.05,33.85,0)" xlink:href="#bh"/><use transform="matrix(0.05,0,0,0.05,43.85,0)" xlink:href="#bo"/><use transform="matrix(0.05,0,0,0.05,49.800000000000004,0)" xlink:href="#bm"/><use transform="matrix(0.05,0,0,0.05,58.800000000000004,0)" xlink:href="#bk"/><use transform="matrix(0.05,0,0,0.05,62.75,0)" xlink:href="#br"/><use transform="matrix(0.05,0,0,0.05,71.75,0)" xlink:href="#bh"/></g><g id="w"><use transform="matrix(0.05,0,0,0.05,0,0)" xlink:href="#br"/><use transform="matrix(0.05,0,0,0.05,9,0)" xlink:href="#bk"/><use transform="matrix(0.05,0,0,0.05,12.949999999999998,0)" xlink:href="#bo"/><use transform="matrix(0.05,0,0,0.05,18.9,0)" xlink:href="#bs"/><use transform="matrix(0.05,0,0,0.05,23.9,0)" xlink:href="#by"/><use transform="matrix(0.05,0,0,0.05,33.9,0)" xlink:href="#bw"/><use transform="matrix(0.05,0,0,0.05,43.9,0)" xlink:href="#bu"/></g><g id="x"><use transform="matrix(0.05,0,0,0.05,0,0)" xlink:href="#bD"/><use transform="matrix(0.05,0,0,0.05,12.950000000000001,0)" xlink:href="#bf"/><use transform="matrix(0.05,0,0,0.05,22.950000000000003,0)" xlink:href="#bo"/><use transform="matrix(0.05,0,0,0.05,28.900000000000002,0)" xlink:href="#bu"/><use transform="matrix(0.05,0,0,0.05,32.85,0)" xlink:href="#bC"/><use transform="matrix(0.05,0,0,0.05,42.85,0)" xlink:href="#bm"/></g><g id="y"><use transform="matrix(0.05,0,0,0.05,0,0)" xlink:href="#bw"/><use transform="matrix(0.05,0,0,0.05,10,0)" xlink:href="#bi"/><use transform="matrix(0.05,0,0,0.05,20,0)" xlink:href="#bC"/></g><path d="M141 0L90-78 38 0H4l68-98-65-92h35l48 74 47-74h35l-64 92 68 98h-35" id="bG"/><g id="z"><use transform="matrix(0.05,0,0,0.05,0,0)" xlink:href="#bh"/><use transform="matrix(0.05,0,0,0.05,10,0)" xlink:href="#bG"/><use transform="matrix(0.05,0,0,0.05,19,0)" xlink:href="#bv"/><use transform="matrix(0.05,0,0,0.05,29,0)" xlink:href="#bh"/><use transform="matrix(0.05,0,0,0.05,39,0)" xlink:href="#bo"/><use transform="matrix(0.05,0,0,0.05,44.95,0)" xlink:href="#bk"/><use transform="matrix(0.05,0,0,0.05,48.900000000000006,0)" xlink:href="#bh"/><use transform="matrix(0.05,0,0,0.05,58.900000000000006,0)" xlink:href="#bi"/><use transform="matrix(0.05,0,0,0.05,68.9,0)" xlink:href="#bl"/><use transform="matrix(0.05,0,0,0.05,77.9,0)" xlink:href="#bh"/><use transform="matrix(0.05,0,0,0.05,87.9,0)" xlink:href="#bm"/></g><g id="A"><use transform="matrix(0.05,0,0,0.05,0,0)" xlink:href="#bf"/><use transform="matrix(0.05,0,0,0.05,10,0)" xlink:href="#bi"/></g><g id="B"><use transform="matrix(0.05,0,0,0.05,0,0)" xlink:href="#bv"/><use transform="matrix(0.05,0,0,0.05,10,0)" xlink:href="#bu"/><use transform="matrix(0.05,0,0,0.05,13.949999999999998,0)" xlink:href="#bw"/><use transform="matrix(0.05,0,0,0.05,23.95,0)" xlink:href="#bs"/><use transform="matrix(0.05,0,0,0.05,28.950000000000003,0)" xlink:href="#bn"/><use transform="matrix(0.05,0,0,0.05,33.95,0)" xlink:href="#bf"/><use transform="matrix(0.05,0,0,0.05,43.95,0)" xlink:href="#bo"/><use transform="matrix(0.05,0,0,0.05,49.900000000000006,0)" xlink:href="#bj"/><use transform="matrix(0.05,0,0,0.05,64.85000000000001,0)" xlink:href="#bm"/></g><g id="C"><use transform="matrix(0.05,0,0,0.05,0,0)" xlink:href="#bu"/><use transform="matrix(0.05,0,0,0.05,3.95,0)" xlink:href="#bk"/><use transform="matrix(0.05,0,0,0.05,7.9,0)" xlink:href="#bg"/><use transform="matrix(0.05,0,0,0.05,16.9,0)" xlink:href="#bh"/></g><path d="M160-131c35 5 61 23 61 61C221 17 115-2 30 0v-248c76 3 177-17 177 60 0 33-19 50-47 57zm-97-11c50-1 110 9 110-42 0-47-63-36-110-37v79zm0 115c55-2 124 14 124-45 0-56-70-42-124-44v89" id="bH"/><g id="D"><use transform="matrix(0.05,0,0,0.05,0,0)" xlink:href="#bH"/><use transform="matrix(0.05,0,0,0.05,12,0)" xlink:href="#bk"/><use transform="matrix(0.05,0,0,0.05,15.949999999999998,0)" xlink:href="#bs"/><use transform="matrix(0.05,0,0,0.05,20.95,0)" xlink:href="#bj"/><use transform="matrix(0.05,0,0,0.05,35.9,0)" xlink:href="#bw"/><use transform="matrix(0.05,0,0,0.05,45.9,0)" xlink:href="#bv"/></g><linearGradient gradientUnits="userSpaceOnUse" id="E" x1="1391.95" y1="856.61" x2="1391.95" y2="1019.61"><stop offset="0%" stop-color="#fdff9b"/><stop offset="47.5%" stop-color="#50fbd9"/><stop offset="99.29%" stop-color="#106857"/></linearGradient><g id="F"><use transform="matrix(0.05,0,0,0.05,0,0)" xlink:href="#bE"/><use transform="matrix(0.05,0,0,0.05,14.950000000000001,0)" xlink:href="#bh"/><use transform="matrix(0.05,0,0,0.05,24.950000000000003,0)" xlink:href="#bs"/><use transform="matrix(0.05,0,0,0.05,29.950000000000003,0)" xlink:href="#bw"/><use transform="matrix(0.05,0,0,0.05,39.95,0)" xlink:href="#br"/><use transform="matrix(0.05,0,0,0.05,48.95,0)" xlink:href="#bh"/><use transform="matrix(0.05,0,0,0.05,58.95,0)" xlink:href="#bo"/><use transform="matrix(0.05,0,0,0.05,64.9,0)" xlink:href="#bm"/><use transform="matrix(0.05,0,0,0.05,73.9,0)" xlink:href="#bh"/></g><g id="G"><use transform="matrix(0.05,0,0,0.05,0,0)" xlink:href="#be"/><use transform="matrix(0.05,0,0,0.05,8.950000000000001,0)" xlink:href="#bf"/><use transform="matrix(0.05,0,0,0.05,18.950000000000003,0)" xlink:href="#by"/><use transform="matrix(0.05,0,0,0.05,28.950000000000003,0)" xlink:href="#bo"/><use transform="matrix(0.05,0,0,0.05,34.900000000000006,0)" xlink:href="#bm"/></g><linearGradient gradientUnits="userSpaceOnUse" id="H" x1="1794.95" y1="856.61" x2="1794.95" y2="1019.61"><stop offset="0%" stop-color="#fdff9b"/><stop offset="47.5%" stop-color="#50fbd9"/><stop offset="99.29%" stop-color="#106857"/></linearGradient><path d="M140-251c81 0 123 46 123 126C263-46 219 4 140 4 59 4 17-45 17-125s42-126 123-126zm0 227c63 0 89-41 89-101s-29-99-89-99c-61 0-89 39-89 99S79-25 140-24" id="bI"/><g id="I"><use transform="matrix(0.05,0,0,0.05,0,0)" xlink:href="#bI"/><use transform="matrix(0.05,0,0,0.05,14,0)" xlink:href="#bn"/><use transform="matrix(0.05,0,0,0.05,18.65,0)" xlink:href="#bn"/><use transform="matrix(0.05,0,0,0.05,23.65,0)" xlink:href="#bh"/><use transform="matrix(0.05,0,0,0.05,33.65,0)" xlink:href="#bo"/></g><g id="J"><use transform="matrix(0.05,0,0,0.05,0,0)" xlink:href="#bz"/><use transform="matrix(0.05,0,0,0.05,10,0)" xlink:href="#by"/><use transform="matrix(0.05,0,0,0.05,20,0)" xlink:href="#bk"/><use transform="matrix(0.05,0,0,0.05,23.95,0)" xlink:href="#bC"/><use transform="matrix(0.05,0,0,0.05,33.95,0)" xlink:href="#bh"/><use transform="matrix(0.05,0,0,0.05,43.95,0)" xlink:href="#bC"/></g><g id="K"><use transform="matrix(0.05,0,0,0.05,0,0)" xlink:href="#bs"/><use transform="matrix(0.05,0,0,0.05,5,0)" xlink:href="#bf"/><use transform="matrix(0.05,0,0,0.05,15,0)" xlink:href="#by"/><use transform="matrix(0.05,0,0,0.05,25,0)" xlink:href="#bo"/><use transform="matrix(0.05,0,0,0.05,30.950000000000003,0)" xlink:href="#bm"/></g><g id="L"><use transform="matrix(0.05,0,0,0.05,0,0)" xlink:href="#bh"/><use transform="matrix(0.05,0,0,0.05,10,0)" xlink:href="#bC"/><use transform="matrix(0.05,0,0,0.05,20,0)" xlink:href="#by"/><use transform="matrix(0.05,0,0,0.05,30,0)" xlink:href="#bl"/><use transform="matrix(0.05,0,0,0.05,39,0)" xlink:href="#bw"/><use transform="matrix(0.05,0,0,0.05,49,0)" xlink:href="#bs"/><use transform="matrix(0.05,0,0,0.05,54,0)" xlink:href="#bk"/><use transform="matrix(0.05,0,0,0.05,57.95,0)" xlink:href="#bf"/><use transform="matrix(0.05,0,0,0.05,67.95,0)" xlink:href="#bi"/><use transform="matrix(0.05,0,0,0.05,77.95,0)" xlink:href="#bw"/><use transform="matrix(0.05,0,0,0.05,87.95,0)" xlink:href="#bu"/></g><g id="M"><use transform="matrix(0.05,0,0,0.05,0,0)" xlink:href="#bD"/><use transform="matrix(0.05,0,0,0.05,12.950000000000001,0)" xlink:href="#bk"/><use transform="matrix(0.05,0,0,0.05,16.900000000000002,0)" xlink:href="#bs"/><use transform="matrix(0.05,0,0,0.05,21.900000000000002,0)" xlink:href="#bq"/><use transform="matrix(0.05,0,0,0.05,31.900000000000002,0)" xlink:href="#bk"/><use transform="matrix(0.05,0,0,0.05,35.85,0)" xlink:href="#bi"/></g><g id="N"><use transform="matrix(0.05,0,0,0.05,0,0)" xlink:href="#bs"/><use transform="matrix(0.05,0,0,0.05,5,0)" xlink:href="#bq"/><use transform="matrix(0.05,0,0,0.05,15,0)" xlink:href="#bh"/></g><g id="O"><use transform="matrix(0.05,0,0,0.05,0,0)" xlink:href="#bj"/><use transform="matrix(0.05,0,0,0.05,14.950000000000001,0)" xlink:href="#bh"/><use transform="matrix(0.05,0,0,0.05,24.950000000000003,0)" xlink:href="#bs"/><use transform="matrix(0.05,0,0,0.05,29.950000000000003,0)" xlink:href="#bw"/><use transform="matrix(0.05,0,0,0.05,39.95,0)" xlink:href="#br"/><use transform="matrix(0.05,0,0,0.05,48.95,0)" xlink:href="#bh"/><use transform="matrix(0.05,0,0,0.05,58.95,0)" xlink:href="#bo"/><use transform="matrix(0.05,0,0,0.05,64.9,0)" xlink:href="#bm"/><use transform="matrix(0.05,0,0,0.05,73.9,0)" xlink:href="#bh"/></g><linearGradient gradientUnits="userSpaceOnUse" id="P" x1="2197.95" y1="856.61" x2="2197.95" y2="1019.61"><stop offset="0%" stop-color="#fdff9b"/><stop offset="47.5%" stop-color="#50fbd9"/><stop offset="99.29%" stop-color="#106857"/></linearGradient><g id="Q"><use transform="matrix(0.05,0,0,0.05,0,0)" xlink:href="#bF"/><use transform="matrix(0.05,0,0,0.05,12.950000000000001,0)" xlink:href="#bf"/><use transform="matrix(0.05,0,0,0.05,22.950000000000003,0)" xlink:href="#bC"/><use transform="matrix(0.05,0,0,0.05,32.95,0)" xlink:href="#bh"/><use transform="matrix(0.05,0,0,0.05,42.95,0)" xlink:href="#bD"/><use transform="matrix(0.05,0,0,0.05,55.900000000000006,0)" xlink:href="#bw"/><use transform="matrix(0.05,0,0,0.05,65.9,0)" xlink:href="#bo"/><use transform="matrix(0.05,0,0,0.05,71.85000000000001,0)" xlink:href="#bm"/></g><linearGradient gradientUnits="userSpaceOnUse" id="R" x1="2600.95" y1="856.61" x2="2600.95" y2="1019.61"><stop offset="0%" stop-color="#fdff9b"/><stop offset="47.5%" stop-color="#50fbd9"/><stop offset="99.29%" stop-color="#106857"/></linearGradient><g id="S"><use transform="matrix(0.05,0,0,0.05,0,0)" xlink:href="#bF"/><use transform="matrix(0.05,0,0,0.05,12.950000000000001,0)" xlink:href="#bf"/><use transform="matrix(0.05,0,0,0.05,22.950000000000003,0)" xlink:href="#bj"/><use transform="matrix(0.05,0,0,0.05,37.900000000000006,0)" xlink:href="#bv"/><use transform="matrix(0.05,0,0,0.05,47.900000000000006,0)" xlink:href="#bh"/><use transform="matrix(0.05,0,0,0.05,57.900000000000006,0)" xlink:href="#bs"/><use transform="matrix(0.05,0,0,0.05,62.900000000000006,0)" xlink:href="#bk"/><use transform="matrix(0.05,0,0,0.05,66.85000000000001,0)" xlink:href="#bs"/><use transform="matrix(0.05,0,0,0.05,71.85000000000001,0)" xlink:href="#bk"/><use transform="matrix(0.05,0,0,0.05,75.80000000000001,0)" xlink:href="#br"/><use transform="matrix(0.05,0,0,0.05,84.80000000000001,0)" xlink:href="#bh"/></g><g id="T"><use transform="matrix(0.05,0,0,0.05,0,0)" xlink:href="#bz"/><use transform="matrix(0.05,0,0,0.05,10,0)" xlink:href="#bw"/><use transform="matrix(0.05,0,0,0.05,20,0)" xlink:href="#bj"/><use transform="matrix(0.05,0,0,0.05,34.95,0)" xlink:href="#bh"/><use transform="matrix(0.05,0,0,0.05,44.95,0)" xlink:href="#bj"/><use transform="matrix(0.05,0,0,0.05,59.900000000000006,0)" xlink:href="#bf"/><use transform="matrix(0.05,0,0,0.05,69.9,0)" xlink:href="#bC"/><use transform="matrix(0.05,0,0,0.05,79.9,0)" xlink:href="#bh"/></g><g id="U"><use transform="matrix(0.05,0,0,0.05,0,0)" xlink:href="#bm"/><use transform="matrix(0.05,0,0,0.05,9,0)" xlink:href="#bs"/><use transform="matrix(0.05,0,0,0.05,14,0)" xlink:href="#by"/><use transform="matrix(0.05,0,0,0.05,24,0)" xlink:href="#bC"/><use transform="matrix(0.05,0,0,0.05,34,0)" xlink:href="#bh"/><use transform="matrix(0.05,0,0,0.05,44,0)" xlink:href="#bi"/><use transform="matrix(0.05,0,0,0.05,54,0)" xlink:href="#bs"/><use transform="matrix(0.05,0,0,0.05,59,0)" xlink:href="#bm"/></g><g id="V"><use transform="matrix(0.05,0,0,0.05,0,0)" xlink:href="#bs"/><use transform="matrix(0.05,0,0,0.05,5,0)" xlink:href="#bf"/></g><path d="M115-194c53 0 69 39 70 98 0 66-23 100-70 100C84 3 66-7 56-30L54 0H23l1-261h32v101c10-23 28-34 59-34zm-8 174c40 0 45-34 45-75 0-40-5-75-45-74-42 0-51 32-51 76 0 43 10 73 51 73" id="bJ"/><g id="W"><use transform="matrix(0.05,0,0,0.05,0,0)" xlink:href="#bJ"/><use transform="matrix(0.05,0,0,0.05,10,0)" xlink:href="#bw"/><use transform="matrix(0.05,0,0,0.05,20,0)" xlink:href="#bs"/><use transform="matrix(0.05,0,0,0.05,25,0)" xlink:href="#bs"/><use transform="matrix(0.05,0,0,0.05,30,0)" xlink:href="#bu"/><use transform="matrix(0.05,0,0,0.05,33.95,0)" xlink:href="#bh"/></g><g id="X"><use transform="matrix(0.05,0,0,0.05,0,0)" xlink:href="#bw"/><use transform="matrix(0.05,0,0,0.05,10,0)" xlink:href="#bz"/><use transform="matrix(0.05,0,0,0.05,20,0)" xlink:href="#bw"/><use transform="matrix(0.05,0,0,0.05,30,0)" xlink:href="#bk"/><use transform="matrix(0.05,0,0,0.05,33.95,0)" xlink:href="#bi"/><use transform="matrix(0.05,0,0,0.05,43.95,0)" xlink:href="#bm"/><use transform="matrix(0.05,0,0,0.05,52.95,0)" xlink:href="#bs"/></g><g id="Y"><use transform="matrix(0.05,0,0,0.05,0,0)" xlink:href="#bh"/><use transform="matrix(0.05,0,0,0.05,10,0)" xlink:href="#bw"/><use transform="matrix(0.05,0,0,0.05,20,0)" xlink:href="#bl"/><use transform="matrix(0.05,0,0,0.05,29,0)" xlink:href="#bq"/></g><g id="Z"><use transform="matrix(0.05,0,0,0.05,0,0)" xlink:href="#bf"/><use transform="matrix(0.05,0,0,0.05,10,0)" xlink:href="#bs"/><use transform="matrix(0.05,0,0,0.05,15,0)" xlink:href="#bq"/><use transform="matrix(0.05,0,0,0.05,25,0)" xlink:href="#bh"/><use transform="matrix(0.05,0,0,0.05,35,0)" xlink:href="#bo"/></g><linearGradient gradientUnits="userSpaceOnUse" id="aa" x1="1391.95" y1="1219.61" x2="1391.95" y2="1382.61"><stop offset="0%" stop-color="#fdff9b"/><stop offset="47.5%" stop-color="#50fbd9"/><stop offset="99.29%" stop-color="#106857"/></linearGradient><path d="M143 4C61 4 22-44 18-125c-5-107 100-154 193-111 17 8 29 25 37 43l-32 9c-13-25-37-40-76-40-61 0-88 39-88 99 0 61 29 100 91 101 35 0 62-11 79-27v-45h-74v-28h105v86C228-13 192 4 143 4" id="bK"/><g id="ab"><use transform="matrix(0.05,0,0,0.05,0,0)" xlink:href="#bK"/><use transform="matrix(0.05,0,0,0.05,14,0)" xlink:href="#bw"/><use transform="matrix(0.05,0,0,0.05,24,0)" xlink:href="#bj"/><use transform="matrix(0.05,0,0,0.05,38.95,0)" xlink:href="#bh"/></g><path d="M266 0h-40l-56-210L115 0H75L2-248h35L96-30l15-64 43-154h32l59 218 59-218h35" id="bL"/><g id="ac"><use transform="matrix(0.05,0,0,0.05,0,0)" xlink:href="#bL"/><use transform="matrix(0.05,0,0,0.05,16.599999999999998,0)" xlink:href="#bf"/><use transform="matrix(0.05,0,0,0.05,26.599999999999994,0)" xlink:href="#bo"/><use transform="matrix(0.05,0,0,0.05,32.55,0)" xlink:href="#bg"/><use transform="matrix(0.05,0,0,0.05,41.55,0)" xlink:href="#bm"/><use transform="matrix(0.05,0,0,0.05,50.55,0)" xlink:href="#bq"/><use transform="matrix(0.05,0,0,0.05,60.54999999999999,0)" xlink:href="#bf"/><use transform="matrix(0.05,0,0,0.05,70.55,0)" xlink:href="#bv"/></g><linearGradient gradientUnits="userSpaceOnUse" id="ad" x1="1794.95" y1="1219.61" x2="1794.95" y2="1382.61"><stop offset="0%" stop-color="#fdff9b"/><stop offset="47.5%" stop-color="#50fbd9"/><stop offset="99.29%" stop-color="#106857"/></linearGradient><path d="M30 0v-248h187v28H63v79h144v27H63v87h162V0H30" id="bM"/><g id="ae"><use transform="matrix(0.05,0,0,0.05,0,0)" xlink:href="#bM"/><use transform="matrix(0.05,0,0,0.05,12,0)" xlink:href="#bm"/><use transform="matrix(0.05,0,0,0.05,21,0)" xlink:href="#bs"/><use transform="matrix(0.05,0,0,0.05,26,0)" xlink:href="#bw"/><use transform="matrix(0.05,0,0,0.05,36,0)" xlink:href="#bJ"/><use transform="matrix(0.05,0,0,0.05,46,0)" xlink:href="#bu"/><use transform="matrix(0.05,0,0,0.05,49.95,0)" xlink:href="#bk"/><use transform="matrix(0.05,0,0,0.05,53.900000000000006,0)" xlink:href="#bm"/><use transform="matrix(0.05,0,0,0.05,62.900000000000006,0)" xlink:href="#bq"/></g><use transform="matrix(0.05,0,0,0.05,0,0)" xlink:href="#bw" id="af"/><g id="ag"><use transform="matrix(0.05,0,0,0.05,0,0)" xlink:href="#bl"/><use transform="matrix(0.05,0,0,0.05,9,0)" xlink:href="#bf"/><use transform="matrix(0.05,0,0,0.05,19,0)" xlink:href="#bu"/><use transform="matrix(0.05,0,0,0.05,22.95,0)" xlink:href="#bu"/><use transform="matrix(0.05,0,0,0.05,26.899999999999995,0)" xlink:href="#bw"/><use transform="matrix(0.05,0,0,0.05,36.9,0)" xlink:href="#bJ"/><use transform="matrix(0.05,0,0,0.05,46.9,0)" xlink:href="#bf"/><use transform="matrix(0.05,0,0,0.05,56.900000000000006,0)" xlink:href="#bo"/><use transform="matrix(0.05,0,0,0.05,62.85,0)" xlink:href="#bw"/><use transform="matrix(0.05,0,0,0.05,72.85,0)" xlink:href="#bs"/><use transform="matrix(0.05,0,0,0.05,77.85,0)" xlink:href="#bk"/><use transform="matrix(0.05,0,0,0.05,81.8,0)" xlink:href="#br"/><use transform="matrix(0.05,0,0,0.05,90.8,0)" xlink:href="#bh"/></g><g id="ah"><use transform="matrix(0.05,0,0,0.05,0,0)" xlink:href="#bm"/><use transform="matrix(0.05,0,0,0.05,9,0)" xlink:href="#bv"/><use transform="matrix(0.05,0,0,0.05,19,0)" xlink:href="#bw"/><use transform="matrix(0.05,0,0,0.05,29,0)" xlink:href="#bl"/><use transform="matrix(0.05,0,0,0.05,38,0)" xlink:href="#bh"/></g><g id="ai"><use transform="matrix(0.05,0,0,0.05,0,0)" xlink:href="#bn"/><use transform="matrix(0.05,0,0,0.05,5,0)" xlink:href="#bf"/><use transform="matrix(0.05,0,0,0.05,15,0)" xlink:href="#bo"/></g><g id="aj"><use transform="matrix(0.05,0,0,0.05,0,0)" xlink:href="#bw"/><use transform="matrix(0.05,0,0,0.05,10,0)" xlink:href="#bi"/><use transform="matrix(0.05,0,0,0.05,20,0)" xlink:href="#bC"/></g><g id="ak"><use transform="matrix(0.05,0,0,0.05,0,0)" xlink:href="#bm"/><use transform="matrix(0.05,0,0,0.05,9,0)" xlink:href="#bs"/><use transform="matrix(0.05,0,0,0.05,14,0)" xlink:href="#bw"/><use transform="matrix(0.05,0,0,0.05,24,0)" xlink:href="#bn"/><use transform="matrix(0.05,0,0,0.05,28.649999999999995,0)" xlink:href="#bn"/></g><g id="al"><use transform="matrix(0.05,0,0,0.05,0,0)" xlink:href="#bC"/><use transform="matrix(0.05,0,0,0.05,10,0)" xlink:href="#bh"/><use transform="matrix(0.05,0,0,0.05,20,0)" xlink:href="#br"/><use transform="matrix(0.05,0,0,0.05,29,0)" xlink:href="#bh"/><use transform="matrix(0.05,0,0,0.05,39,0)" xlink:href="#bu"/><use transform="matrix(0.05,0,0,0.05,42.95,0)" xlink:href="#bf"/><use transform="matrix(0.05,0,0,0.05,52.95,0)" xlink:href="#bv"/></g><g id="am"><use transform="matrix(0.05,0,0,0.05,0,0)" xlink:href="#bk"/><use transform="matrix(0.05,0,0,0.05,3.95,0)" xlink:href="#bi"/><use transform="matrix(0.05,0,0,0.05,13.949999999999998,0)" xlink:href="#bi"/><use transform="matrix(0.05,0,0,0.05,23.95,0)" xlink:href="#bf"/><use transform="matrix(0.05,0,0,0.05,33.95,0)" xlink:href="#br"/><use transform="matrix(0.05,0,0,0.05,42.95,0)" xlink:href="#bw"/><use transform="matrix(0.05,0,0,0.05,52.95,0)" xlink:href="#bs"/><use transform="matrix(0.05,0,0,0.05,57.95,0)" xlink:href="#bk"/><use transform="matrix(0.05,0,0,0.05,61.900000000000006,0)" xlink:href="#br"/><use transform="matrix(0.05,0,0,0.05,70.9,0)" xlink:href="#bh"/></g><g id="an"><use transform="matrix(0.05,0,0,0.05,0,0)" xlink:href="#bz"/><use transform="matrix(0.05,0,0,0.05,10,0)" xlink:href="#bw"/><use transform="matrix(0.05,0,0,0.05,20,0)" xlink:href="#bj"/><use transform="matrix(0.05,0,0,0.05,34.95,0)" xlink:href="#bh"/><use transform="matrix(0.05,0,0,0.05,44.95,0)" xlink:href="#bm"/></g><g id="ao"><use transform="matrix(0.05,0,0,0.05,0,0)" xlink:href="#bz"/><use transform="matrix(0.05,0,0,0.05,10,0)" xlink:href="#bw"/><use transform="matrix(0.05,0,0,0.05,20,0)" xlink:href="#bj"/><use transform="matrix(0.05,0,0,0.05,34.95,0)" xlink:href="#bk"/><use transform="matrix(0.05,0,0,0.05,38.900000000000006,0)" xlink:href="#bi"/><use transform="matrix(0.05,0,0,0.05,48.900000000000006,0)" xlink:href="#bz"/></g><g id="ap"><use transform="matrix(0.05,0,0,0.05,0,0)" xlink:href="#bh"/><use transform="matrix(0.05,0,0,0.05,10,0)" xlink:href="#bG"/><use transform="matrix(0.05,0,0,0.05,19,0)" xlink:href="#bv"/><use transform="matrix(0.05,0,0,0.05,29,0)" xlink:href="#bh"/><use transform="matrix(0.05,0,0,0.05,39,0)" xlink:href="#bo"/><use transform="matrix(0.05,0,0,0.05,44.95,0)" xlink:href="#bk"/><use transform="matrix(0.05,0,0,0.05,48.900000000000006,0)" xlink:href="#bh"/><use transform="matrix(0.05,0,0,0.05,58.900000000000006,0)" xlink:href="#bi"/><use transform="matrix(0.05,0,0,0.05,68.9,0)" xlink:href="#bl"/><use transform="matrix(0.05,0,0,0.05,77.9,0)" xlink:href="#bh"/><use transform="matrix(0.05,0,0,0.05,87.9,0)" xlink:href="#bm"/></g><linearGradient gradientUnits="userSpaceOnUse" id="aq" x1="2197.95" y1="1219.61" x2="2197.95" y2="1382.61"><stop offset="0%" stop-color="#fdff9b"/><stop offset="47.5%" stop-color="#50fbd9"/><stop offset="99.29%" stop-color="#106857"/></linearGradient><g id="ar"><use transform="matrix(0.05,0,0,0.05,0,0)" xlink:href="#bH"/><use transform="matrix(0.05,0,0,0.05,12,0)" xlink:href="#bu"/><use transform="matrix(0.05,0,0,0.05,15.949999999999998,0)" xlink:href="#bf"/><use transform="matrix(0.05,0,0,0.05,25.950000000000003,0)" xlink:href="#bl"/><use transform="matrix(0.05,0,0,0.05,34.95,0)" xlink:href="#bg"/><use transform="matrix(0.05,0,0,0.05,43.95,0)" xlink:href="#bl"/><use transform="matrix(0.05,0,0,0.05,52.95,0)" xlink:href="#bq"/><use transform="matrix(0.05,0,0,0.05,62.95,0)" xlink:href="#bw"/><use transform="matrix(0.05,0,0,0.05,72.95,0)" xlink:href="#bk"/><use transform="matrix(0.05,0,0,0.05,76.9,0)" xlink:href="#bi"/></g><g id="as"><use transform="matrix(0.05,0,0,0.05,0,0)" xlink:href="#bL"/><use transform="matrix(0.05,0,0,0.05,16.599999999999998,0)" xlink:href="#bf"/><use transform="matrix(0.05,0,0,0.05,26.599999999999994,0)" xlink:href="#bo"/><use transform="matrix(0.05,0,0,0.05,32.55,0)" xlink:href="#bg"/><use transform="matrix(0.05,0,0,0.05,41.55,0)" xlink:href="#bm"/><use transform="matrix(0.05,0,0,0.05,50.55,0)" xlink:href="#bq"/><use transform="matrix(0.05,0,0,0.05,60.54999999999999,0)" xlink:href="#bf"/><use transform="matrix(0.05,0,0,0.05,70.55,0)" xlink:href="#bv"/><use transform="matrix(0.05,0,0,0.05,80.55,0)" xlink:href="#bm"/></g><linearGradient gradientUnits="userSpaceOnUse" id="at" x1="2600.95" y1="1219.61" x2="2600.95" y2="1382.61"><stop offset="0%" stop-color="#fdff9b"/><stop offset="47.5%" stop-color="#50fbd9"/><stop offset="99.29%" stop-color="#106857"/></linearGradient><g id="au"><use transform="matrix(0.05,0,0,0.05,0,0)" xlink:href="#bF"/><use transform="matrix(0.05,0,0,0.05,12.950000000000001,0)" xlink:href="#bf"/><use transform="matrix(0.05,0,0,0.05,22.950000000000003,0)" xlink:href="#bi"/><use transform="matrix(0.05,0,0,0.05,32.95,0)" xlink:href="#bC"/><use transform="matrix(0.05,0,0,0.05,42.95,0)" xlink:href="#by"/><use transform="matrix(0.05,0,0,0.05,52.95,0)" xlink:href="#bl"/><use transform="matrix(0.05,0,0,0.05,61.95,0)" xlink:href="#bs"/></g><g id="av"><use transform="matrix(0.05,0,0,0.05,0,0)" xlink:href="#bD"/><use transform="matrix(0.05,0,0,0.05,12.950000000000001,0)" xlink:href="#bf"/><use transform="matrix(0.05,0,0,0.05,22.950000000000003,0)" xlink:href="#bo"/><use transform="matrix(0.05,0,0,0.05,28.900000000000002,0)" xlink:href="#bg"/><use transform="matrix(0.05,0,0,0.05,37.900000000000006,0)" xlink:href="#bm"/><use transform="matrix(0.05,0,0,0.05,46.900000000000006,0)" xlink:href="#bq"/><use transform="matrix(0.05,0,0,0.05,56.900000000000006,0)" xlink:href="#bf"/><use transform="matrix(0.05,0,0,0.05,66.9,0)" xlink:href="#bv"/><use transform="matrix(0.05,0,0,0.05,76.9,0)" xlink:href="#bm"/></g><g id="aw"><use transform="matrix(0.05,0,0,0.05,0,0)" xlink:href="#bn"/><use transform="matrix(0.05,0,0,0.05,5,0)" xlink:href="#bf"/><use transform="matrix(0.05,0,0,0.05,15,0)" xlink:href="#bl"/><use transform="matrix(0.05,0,0,0.05,24,0)" xlink:href="#by"/><use transform="matrix(0.05,0,0,0.05,34,0)" xlink:href="#bm"/><use transform="matrix(0.05,0,0,0.05,43,0)" xlink:href="#bh"/><use transform="matrix(0.05,0,0,0.05,53,0)" xlink:href="#bC"/></g><g id="ax"><use transform="matrix(0.05,0,0,0.05,0,0)" xlink:href="#bf"/><use transform="matrix(0.05,0,0,0.05,10,0)" xlink:href="#bi"/></g><g id="ay"><use transform="matrix(0.05,0,0,0.05,0,0)" xlink:href="#bJ"/><use transform="matrix(0.05,0,0,0.05,10,0)" xlink:href="#bu"/><use transform="matrix(0.05,0,0,0.05,13.949999999999998,0)" xlink:href="#bf"/><use transform="matrix(0.05,0,0,0.05,23.95,0)" xlink:href="#bl"/><use transform="matrix(0.05,0,0,0.05,32.95,0)" xlink:href="#bg"/><use transform="matrix(0.05,0,0,0.05,41.95,0)" xlink:href="#bl"/><use transform="matrix(0.05,0,0,0.05,50.95,0)" xlink:href="#bq"/><use transform="matrix(0.05,0,0,0.05,60.95,0)" xlink:href="#bw"/><use transform="matrix(0.05,0,0,0.05,70.95,0)" xlink:href="#bk"/><use transform="matrix(0.05,0,0,0.05,74.9,0)" xlink:href="#bi"/></g><path d="M68-38c1 34 0 65-14 84H32c9-13 17-26 17-46H33v-38h35" id="bN"/><g id="az"><use transform="matrix(0.05,0,0,0.05,0,0)" xlink:href="#bs"/><use transform="matrix(0.05,0,0,0.05,5,0)" xlink:href="#bh"/><use transform="matrix(0.05,0,0,0.05,15,0)" xlink:href="#bl"/><use transform="matrix(0.05,0,0,0.05,24,0)" xlink:href="#bq"/><use transform="matrix(0.05,0,0,0.05,34,0)" xlink:href="#bi"/><use transform="matrix(0.05,0,0,0.05,44,0)" xlink:href="#bf"/><use transform="matrix(0.05,0,0,0.05,54,0)" xlink:href="#bu"/><use transform="matrix(0.05,0,0,0.05,57.95,0)" xlink:href="#bf"/><use transform="matrix(0.05,0,0,0.05,67.95,0)" xlink:href="#bz"/><use transform="matrix(0.05,0,0,0.05,77.95,0)" xlink:href="#bx"/><use transform="matrix(0.05,0,0,0.05,85.60000000000001,0)" xlink:href="#bN"/></g><g id="aA"><use transform="matrix(0.05,0,0,0.05,0,0)" xlink:href="#bC"/><use transform="matrix(0.05,0,0,0.05,10,0)" xlink:href="#bh"/><use transform="matrix(0.05,0,0,0.05,20,0)" xlink:href="#br"/><use transform="matrix(0.05,0,0,0.05,29,0)" xlink:href="#bh"/><use transform="matrix(0.05,0,0,0.05,39,0)" xlink:href="#bu"/><use transform="matrix(0.05,0,0,0.05,42.95,0)" xlink:href="#bf"/><use transform="matrix(0.05,0,0,0.05,52.95,0)" xlink:href="#bv"/><use transform="matrix(0.05,0,0,0.05,62.95,0)" xlink:href="#bj"/><use transform="matrix(0.05,0,0,0.05,77.9,0)" xlink:href="#bh"/><use transform="matrix(0.05,0,0,0.05,87.9,0)" xlink:href="#bi"/><use transform="matrix(0.05,0,0,0.05,97.9,0)" xlink:href="#bs"/><use transform="matrix(0.05,0,0,0.05,102.9,0)" xlink:href="#bN"/></g><g id="aB"><use transform="matrix(0.05,0,0,0.05,0,0)" xlink:href="#bk"/><use transform="matrix(0.05,0,0,0.05,3.95,0)" xlink:href="#bs"/><use transform="matrix(0.05,0,0,0.05,8.95,0)" xlink:href="#bm"/></g><g id="aC"><use transform="matrix(0.05,0,0,0.05,0,0)" xlink:href="#bv"/><use transform="matrix(0.05,0,0,0.05,10,0)" xlink:href="#bo"/><use transform="matrix(0.05,0,0,0.05,15.949999999999998,0)" xlink:href="#bw"/><use transform="matrix(0.05,0,0,0.05,25.950000000000003,0)" xlink:href="#bl"/><use transform="matrix(0.05,0,0,0.05,34.95,0)" xlink:href="#bs"/><use transform="matrix(0.05,0,0,0.05,39.95,0)" xlink:href="#bk"/><use transform="matrix(0.05,0,0,0.05,43.900000000000006,0)" xlink:href="#bl"/><use transform="matrix(0.05,0,0,0.05,52.900000000000006,0)" xlink:href="#bw"/><use transform="matrix(0.05,0,0,0.05,62.900000000000006,0)" xlink:href="#bu"/></g><g id="aD"><use transform="matrix(0.05,0,0,0.05,0,0)" xlink:href="#bw"/><use transform="matrix(0.05,0,0,0.05,10,0)" xlink:href="#bv"/><use transform="matrix(0.05,0,0,0.05,20,0)" xlink:href="#bv"/><use transform="matrix(0.05,0,0,0.05,30,0)" xlink:href="#bu"/><use transform="matrix(0.05,0,0,0.05,33.95,0)" xlink:href="#bk"/><use transform="matrix(0.05,0,0,0.05,37.900000000000006,0)" xlink:href="#bl"/><use transform="matrix(0.05,0,0,0.05,46.900000000000006,0)" xlink:href="#bw"/><use transform="matrix(0.05,0,0,0.05,56.900000000000006,0)" xlink:href="#bs"/><use transform="matrix(0.05,0,0,0.05,61.900000000000006,0)" xlink:href="#bk"/><use transform="matrix(0.05,0,0,0.05,65.85000000000001,0)" xlink:href="#bf"/><use transform="matrix(0.05,0,0,0.05,75.85000000000001,0)" xlink:href="#bi"/><use transform="matrix(0.05,0,0,0.05,85.85000000000001,0)" xlink:href="#bm"/></g><linearGradient gradientUnits="userSpaceOnUse" id="aE" x1="1391.95" y1="1582.61" x2="1391.95" y2="1745.61"><stop offset="0%" stop-color="#fdff9b"/><stop offset="47.5%" stop-color="#50fbd9"/><stop offset="99.29%" stop-color="#106857"/></linearGradient><path d="M190 0L58-211 59 0H30v-248h39L202-35l-2-213h31V0h-41" id="bO"/><g id="aF"><use transform="matrix(0.05,0,0,0.05,0,0)" xlink:href="#bO"/><use transform="matrix(0.05,0,0,0.05,12.950000000000001,0)" xlink:href="#bh"/><use transform="matrix(0.05,0,0,0.05,22.950000000000003,0)" xlink:href="#bD"/></g><g id="aG"><use transform="matrix(0.05,0,0,0.05,0,0)" xlink:href="#bF"/><use transform="matrix(0.05,0,0,0.05,12.950000000000001,0)" xlink:href="#bf"/><use transform="matrix(0.05,0,0,0.05,22.950000000000003,0)" xlink:href="#by"/><use transform="matrix(0.05,0,0,0.05,32.95,0)" xlink:href="#bo"/><use transform="matrix(0.05,0,0,0.05,38.900000000000006,0)" xlink:href="#bm"/><use transform="matrix(0.05,0,0,0.05,47.900000000000006,0)" xlink:href="#bh"/><use transform="matrix(0.05,0,0,0.05,57.900000000000006,0)" xlink:href="#bm"/></g><linearGradient gradientUnits="userSpaceOnUse" id="aH" x1="1794.95" y1="1582.61" x2="1794.95" y2="1745.61"><stop offset="0%" stop-color="#fdff9b"/><stop offset="47.5%" stop-color="#50fbd9"/><stop offset="99.29%" stop-color="#106857"/></linearGradient><path d="M33 0v-248h34V0H33" id="bP"/><g id="aI"><use transform="matrix(0.05,0,0,0.05,0,0)" xlink:href="#bP"/><use transform="matrix(0.05,0,0,0.05,5,0)" xlink:href="#bi"/><use transform="matrix(0.05,0,0,0.05,15,0)" xlink:href="#bs"/><use transform="matrix(0.05,0,0,0.05,20,0)" xlink:href="#bo"/><use transform="matrix(0.05,0,0,0.05,25.950000000000003,0)" xlink:href="#bf"/><use transform="matrix(0.05,0,0,0.05,35.95,0)" xlink:href="#bC"/><use transform="matrix(0.05,0,0,0.05,45.95,0)" xlink:href="#by"/><use transform="matrix(0.05,0,0,0.05,55.95,0)" xlink:href="#bl"/><use transform="matrix(0.05,0,0,0.05,64.95,0)" xlink:href="#bk"/><use transform="matrix(0.05,0,0,0.05,68.9,0)" xlink:href="#bi"/><use transform="matrix(0.05,0,0,0.05,78.9,0)" xlink:href="#bz"/></g><g id="aJ"><use transform="matrix(0.05,0,0,0.05,0,0)" xlink:href="#bi"/><use transform="matrix(0.05,0,0,0.05,10,0)" xlink:href="#bh"/><use transform="matrix(0.05,0,0,0.05,20,0)" xlink:href="#bD"/></g><g id="aK"><use transform="matrix(0.05,0,0,0.05,0,0)" xlink:href="#bl"/><use transform="matrix(0.05,0,0,0.05,9,0)" xlink:href="#bf"/><use transform="matrix(0.05,0,0,0.05,19,0)" xlink:href="#by"/><use transform="matrix(0.05,0,0,0.05,29,0)" xlink:href="#bo"/><use transform="matrix(0.05,0,0,0.05,34.95,0)" xlink:href="#bm"/><use transform="matrix(0.05,0,0,0.05,43.95,0)" xlink:href="#bh"/><use transform="matrix(0.05,0,0,0.05,53.95,0)" xlink:href="#bm"/></g><g id="aL"><use transform="matrix(0.05,0,0,0.05,0,0)" xlink:href="#bo"/><use transform="matrix(0.05,0,0,0.05,5.95,0)" xlink:href="#bh"/><use transform="matrix(0.05,0,0,0.05,15.949999999999998,0)" xlink:href="#bu"/><use transform="matrix(0.05,0,0,0.05,19.9,0)" xlink:href="#bw"/><use transform="matrix(0.05,0,0,0.05,29.899999999999995,0)" xlink:href="#bs"/><use transform="matrix(0.05,0,0,0.05,34.9,0)" xlink:href="#bh"/><use transform="matrix(0.05,0,0,0.05,44.9,0)" xlink:href="#bC"/></g><g id="aM"><use transform="matrix(0.05,0,0,0.05,0,0)" xlink:href="#bJ"/><use transform="matrix(0.05,0,0,0.05,10,0)" xlink:href="#bu"/><use transform="matrix(0.05,0,0,0.05,13.949999999999998,0)" xlink:href="#bf"/><use transform="matrix(0.05,0,0,0.05,23.95,0)" xlink:href="#bl"/><use transform="matrix(0.05,0,0,0.05,32.95,0)" xlink:href="#bg"/><use transform="matrix(0.05,0,0,0.05,41.95,0)" xlink:href="#bl"/><use transform="matrix(0.05,0,0,0.05,50.95,0)" xlink:href="#bq"/><use transform="matrix(0.05,0,0,0.05,60.95,0)" xlink:href="#bw"/><use transform="matrix(0.05,0,0,0.05,70.95,0)" xlink:href="#bk"/><use transform="matrix(0.05,0,0,0.05,74.9,0)" xlink:href="#bi"/></g><linearGradient gradientUnits="userSpaceOnUse" id="aN" x1="2197.95" y1="1582.61" x2="2197.95" y2="1745.61"><stop offset="0%" stop-color="#fdff9b"/><stop offset="47.5%" stop-color="#50fbd9"/><stop offset="99.29%" stop-color="#106857"/></linearGradient><g id="aO"><use transform="matrix(0.05,0,0,0.05,0,0)" xlink:href="#bt"/><use transform="matrix(0.05,0,0,0.05,12.950000000000001,0)" xlink:href="#bk"/><use transform="matrix(0.05,0,0,0.05,16.900000000000002,0)" xlink:href="#bm"/><use transform="matrix(0.05,0,0,0.05,25.900000000000002,0)" xlink:href="#bl"/><use transform="matrix(0.05,0,0,0.05,34.900000000000006,0)" xlink:href="#bf"/><use transform="matrix(0.05,0,0,0.05,44.900000000000006,0)" xlink:href="#bo"/><use transform="matrix(0.05,0,0,0.05,50.85000000000001,0)" xlink:href="#bC"/></g><g id="aP"><use transform="matrix(0.05,0,0,0.05,0,0)" xlink:href="#bP"/><use transform="matrix(0.05,0,0,0.05,5,0)" xlink:href="#bi"/><use transform="matrix(0.05,0,0,0.05,15,0)" xlink:href="#bs"/><use transform="matrix(0.05,0,0,0.05,20,0)" xlink:href="#bh"/><use transform="matrix(0.05,0,0,0.05,30,0)" xlink:href="#bz"/><use transform="matrix(0.05,0,0,0.05,40,0)" xlink:href="#bo"/><use transform="matrix(0.05,0,0,0.05,45.95,0)" xlink:href="#bw"/><use transform="matrix(0.05,0,0,0.05,55.95,0)" xlink:href="#bs"/><use transform="matrix(0.05,0,0,0.05,60.95,0)" xlink:href="#bk"/><use transform="matrix(0.05,0,0,0.05,64.9,0)" xlink:href="#bf"/><use transform="matrix(0.05,0,0,0.05,74.9,0)" xlink:href="#bi"/></g><linearGradient gradientUnits="userSpaceOnUse" id="aQ" x1="2600.95" y1="1582.61" x2="2600.95" y2="1745.61"><stop offset="0%" stop-color="#fdff9b"/><stop offset="47.5%" stop-color="#50fbd9"/><stop offset="99.29%" stop-color="#106857"/></linearGradient><path d="M30 0v-248h33v221h125V0H30" id="bQ"/><g id="aR"><use transform="matrix(0.05,0,0,0.05,0,0)" xlink:href="#bQ"/><use transform="matrix(0.05,0,0,0.05,10,0)" xlink:href="#bh"/><use transform="matrix(0.05,0,0,0.05,20,0)" xlink:href="#br"/><use transform="matrix(0.05,0,0,0.05,29,0)" xlink:href="#bh"/><use transform="matrix(0.05,0,0,0.05,39,0)" xlink:href="#bo"/><use transform="matrix(0.05,0,0,0.05,44.95,0)" xlink:href="#bw"/><use transform="matrix(0.05,0,0,0.05,54.95,0)" xlink:href="#bz"/><use transform="matrix(0.05,0,0,0.05,64.95,0)" xlink:href="#bk"/><use transform="matrix(0.05,0,0,0.05,68.9,0)" xlink:href="#bi"/><use transform="matrix(0.05,0,0,0.05,78.9,0)" xlink:href="#bz"/></g><g id="aS"><use transform="matrix(0.05,0,0,0.05,0,0)" xlink:href="#bC"/><use transform="matrix(0.05,0,0,0.05,10,0)" xlink:href="#bk"/><use transform="matrix(0.05,0,0,0.05,13.949999999999998,0)" xlink:href="#bm"/><use transform="matrix(0.05,0,0,0.05,22.95,0)" xlink:href="#bl"/><use transform="matrix(0.05,0,0,0.05,31.950000000000003,0)" xlink:href="#bf"/><use transform="matrix(0.05,0,0,0.05,41.95,0)" xlink:href="#bo"/><use transform="matrix(0.05,0,0,0.05,47.900000000000006,0)" xlink:href="#bC"/></g><g id="aT"><use transform="matrix(0.05,0,0,0.05,0,0)" xlink:href="#bs"/><use transform="matrix(0.05,0,0,0.05,5,0)" xlink:href="#bf"/></g><g id="aU"><use transform="matrix(0.05,0,0,0.05,0,0)" xlink:href="#bn"/><use transform="matrix(0.05,0,0,0.05,5,0)" xlink:href="#bw"/><use transform="matrix(0.05,0,0,0.05,15,0)" xlink:href="#bl"/><use transform="matrix(0.05,0,0,0.05,24,0)" xlink:href="#bk"/><use transform="matrix(0.05,0,0,0.05,27.950000000000003,0)" xlink:href="#bu"/><use transform="matrix(0.05,0,0,0.05,31.899999999999995,0)" xlink:href="#bk"/><use transform="matrix(0.05,0,0,0.05,35.85,0)" xlink:href="#bs"/><use transform="matrix(0.05,0,0,0.05,40.85,0)" xlink:href="#bw"/><use transform="matrix(0.05,0,0,0.05,50.85,0)" xlink:href="#bs"/><use transform="matrix(0.05,0,0,0.05,55.85,0)" xlink:href="#bh"/></g><g id="aV"><use transform="matrix(0.05,0,0,0.05,0,0)" xlink:href="#bl"/><use transform="matrix(0.05,0,0,0.05,9,0)" xlink:href="#bf"/><use transform="matrix(0.05,0,0,0.05,19,0)" xlink:href="#bj"/><use transform="matrix(0.05,0,0,0.05,33.95,0)" xlink:href="#bj"/><use transform="matrix(0.05,0,0,0.05,48.900000000000006,0)" xlink:href="#by"/><use transform="matrix(0.05,0,0,0.05,58.900000000000006,0)" xlink:href="#bi"/><use transform="matrix(0.05,0,0,0.05,68.9,0)" xlink:href="#bk"/><use transform="matrix(0.05,0,0,0.05,72.85000000000001,0)" xlink:href="#bl"/><use transform="matrix(0.05,0,0,0.05,81.85000000000001,0)" xlink:href="#bw"/><use transform="matrix(0.05,0,0,0.05,91.85000000000001,0)" xlink:href="#bs"/><use transform="matrix(0.05,0,0,0.05,96.85000000000001,0)" xlink:href="#bk"/><use transform="matrix(0.05,0,0,0.05,100.80000000000001,0)" xlink:href="#bf"/><use transform="matrix(0.05,0,0,0.05,110.80000000000001,0)" xlink:href="#bi"/></g><g id="aW"><use transform="matrix(0.05,0,0,0.05,0,0)" xlink:href="#bl"/><use transform="matrix(0.05,0,0,0.05,9,0)" xlink:href="#bf"/><use transform="matrix(0.05,0,0,0.05,19,0)" xlink:href="#bu"/><use transform="matrix(0.05,0,0,0.05,22.95,0)" xlink:href="#bu"/><use transform="matrix(0.05,0,0,0.05,26.899999999999995,0)" xlink:href="#bw"/><use transform="matrix(0.05,0,0,0.05,36.9,0)" xlink:href="#bJ"/><use transform="matrix(0.05,0,0,0.05,46.9,0)" xlink:href="#bf"/><use transform="matrix(0.05,0,0,0.05,56.900000000000006,0)" xlink:href="#bo"/><use transform="matrix(0.05,0,0,0.05,62.85,0)" xlink:href="#bw"/><use transform="matrix(0.05,0,0,0.05,72.85,0)" xlink:href="#bs"/><use transform="matrix(0.05,0,0,0.05,77.85,0)" xlink:href="#bk"/><use transform="matrix(0.05,0,0,0.05,81.8,0)" xlink:href="#bf"/><use transform="matrix(0.05,0,0,0.05,91.8,0)" xlink:href="#bi"/><use transform="matrix(0.05,0,0,0.05,101.8,0)" xlink:href="#bN"/></g><g id="aX"><use transform="matrix(0.05,0,0,0.05,0,0)" xlink:href="#bJ"/><use transform="matrix(0.05,0,0,0.05,10,0)" xlink:href="#bo"/><use transform="matrix(0.05,0,0,0.05,15.949999999999998,0)" xlink:href="#bk"/><use transform="matrix(0.05,0,0,0.05,19.9,0)" xlink:href="#bC"/><use transform="matrix(0.05,0,0,0.05,29.899999999999995,0)" xlink:href="#bz"/><use transform="matrix(0.05,0,0,0.05,39.9,0)" xlink:href="#bk"/><use transform="matrix(0.05,0,0,0.05,43.85,0)" xlink:href="#bi"/><use transform="matrix(0.05,0,0,0.05,53.85,0)" xlink:href="#bz"/></g><g id="aY"><use transform="matrix(0.05,0,0,0.05,0,0)" xlink:href="#bs"/><use transform="matrix(0.05,0,0,0.05,5,0)" xlink:href="#bq"/><use transform="matrix(0.05,0,0,0.05,15,0)" xlink:href="#bh"/></g><g id="aZ"><use transform="matrix(0.05,0,0,0.05,0,0)" xlink:href="#bz"/><use transform="matrix(0.05,0,0,0.05,10,0)" xlink:href="#bw"/><use transform="matrix(0.05,0,0,0.05,20,0)" xlink:href="#bv"/></g><g id="ba"><use transform="matrix(0.05,0,0,0.05,0,0)" xlink:href="#bJ"/><use transform="matrix(0.05,0,0,0.05,10,0)" xlink:href="#bh"/><use transform="matrix(0.05,0,0,0.05,20,0)" xlink:href="#bs"/><use transform="matrix(0.05,0,0,0.05,25,0)" xlink:href="#bD"/><use transform="matrix(0.05,0,0,0.05,37.95,0)" xlink:href="#bh"/><use transform="matrix(0.05,0,0,0.05,47.95,0)" xlink:href="#bh"/><use transform="matrix(0.05,0,0,0.05,57.95,0)" xlink:href="#bi"/></g><path d="M101-251c82-7 93 87 43 132L82-64C71-53 59-42 53-27h129V0H18c2-99 128-94 128-182 0-28-16-43-45-43s-46 15-49 41l-32-3c6-41 34-60 81-64" id="bR"/><g id="bb"><use transform="matrix(0.05,0,0,0.05,0,0)" xlink:href="#bL"/><use transform="matrix(0.05,0,0,0.05,16.599999999999998,0)" xlink:href="#bh"/><use transform="matrix(0.05,0,0,0.05,26.599999999999994,0)" xlink:href="#bJ"/><use transform="matrix(0.05,0,0,0.05,36.599999999999994,0)" xlink:href="#bR"/></g><path d="M126-127c33 6 58 20 58 59 0 88-139 92-164 29-3-8-5-16-6-25l32-3c6 27 21 44 54 44 32 0 52-15 52-46 0-38-36-46-79-43v-28c39 1 72-4 72-42 0-27-17-43-46-43-28 0-47 15-49 41l-32-3c6-42 35-63 81-64 48-1 79 21 79 65 0 36-21 52-52 59" id="bS"/><g id="bc"><use transform="matrix(0.05,0,0,0.05,0,0)" xlink:href="#bL"/><use transform="matrix(0.05,0,0,0.05,16.599999999999998,0)" xlink:href="#bh"/><use transform="matrix(0.05,0,0,0.05,26.599999999999994,0)" xlink:href="#bJ"/><use transform="matrix(0.05,0,0,0.05,36.599999999999994,0)" xlink:href="#bS"/></g><g id="bd"><use transform="matrix(0.05,0,0,0.05,0,0)" xlink:href="#bl"/><use transform="matrix(0.05,0,0,0.05,9,0)" xlink:href="#bf"/><use transform="matrix(0.05,0,0,0.05,19,0)" xlink:href="#bj"/><use transform="matrix(0.05,0,0,0.05,33.95,0)" xlink:href="#bj"/><use transform="matrix(0.05,0,0,0.05,48.900000000000006,0)" xlink:href="#by"/><use transform="matrix(0.05,0,0,0.05,58.900000000000006,0)" xlink:href="#bi"/><use transform="matrix(0.05,0,0,0.05,68.9,0)" xlink:href="#bk"/><use transform="matrix(0.05,0,0,0.05,72.85000000000001,0)" xlink:href="#bs"/><use transform="matrix(0.05,0,0,0.05,77.85000000000001,0)" xlink:href="#bk"/><use transform="matrix(0.05,0,0,0.05,81.80000000000001,0)" xlink:href="#bh"/><use transform="matrix(0.05,0,0,0.05,91.80000000000001,0)" xlink:href="#bm"/></g></defs></g></svg>