<svg width="24" height="24" viewBox="0 0 24 24" fill="none" xmlns="http://www.w3.org/2000/svg">
    <g clip-path="url(#clip0_4_87)">
    <path d="M18.9677 0H5.03226C2.25302 0 0 2.25302 0 5.03226V18.9677C0 21.747 2.25302 24 5.03226 24H18.9677C21.747 24 24 21.747 24 18.9677V5.03226C24 2.25302 21.747 0 18.9677 0Z" fill="#F5F1ED"/>
    <path d="M14.047 9.88341C15.4644 9.66392 17.5141 8.17136 17.5141 7.00804C17.5141 6.65685 17.2307 6.41541 16.8163 6.41541C16.0313 6.41541 14.7012 7.60067 14.047 9.88341ZM7.48332 15.6561C5.62981 15.6561 5.47717 17.4998 7.33068 17.4998C8.15932 17.4998 9.1624 17.1706 9.68575 16.578C8.92253 15.9195 8.29015 15.6561 7.48332 15.6561ZM19.2804 14.8659C19.3894 17.9608 17.8194 19.6948 15.1591 19.6948C13.589 19.6948 12.804 19.1021 11.1249 18.0047C10.2527 18.9705 8.59544 19.6948 7.22165 19.6948C2.48973 19.6948 2.68598 13.6587 7.50513 13.6587C8.50822 13.6587 9.35866 13.9221 10.449 14.6025L11.1686 12.0784C8.20293 11.2662 6.7201 8.98348 8.18112 5.71303H10.5362C9.22782 7.88601 10.1219 9.68586 11.7791 9.88341C12.6732 6.70074 14.5921 4.22047 17.1434 4.22047C18.5826 4.22047 19.7166 5.16429 19.7166 6.87634C19.7166 9.62002 16.1404 11.8588 13.4364 12.0784L12.3243 16.0073C13.589 17.4779 17.0998 18.9047 17.0998 14.8659H19.2804Z" fill="#12100F"/>
    </g>
    <defs>
    <clipPath id="clip0_4_87">
    <rect width="24" height="24" fill="white"/>
    </clipPath>
    </defs>
</svg>
