<svg width="637" height="900" viewBox="0 0 637 506" fill="none" xmlns="http://www.w3.org/2000/svg">
    <g clip-path="url(#clip0_8_204)">
    <mask id="mask0_8_204" style="mask-type:luminance" maskUnits="userSpaceOnUse" x="0" y="0" width="637" height="506">
    <path d="M637 0H0V506H637V0Z" fill="white"/>
    </mask>
    <g mask="url(#mask0_8_204)">
    <path d="M637 0H1V506H637V0Z" fill="black"/>
    <path d="M0 326H637.001" stroke="url(#paint0_linear_8_204)" stroke-width="5"/>
    <path d="M479.153 217C486.486 207.833 493.853 188.5 464.653 184.5C435.453 180.5 443.486 161.5 451.153 152.5C458.153 147.833 473.553 136.6 479.153 129C486.153 119.5 461.653 93.5 479.153 93C493.153 92.6 498.653 73.5 499.653 64" stroke="url(#paint1_linear_8_204)" stroke-width="3"/>
    <path d="M590 218.5C598.833 219.833 616.2 217.6 615 198C613.8 178.4 623.167 167.167 628 164C634.333 157 642 140.3 622 129.5C602 118.7 602.333 99.6667 605 91.5C610 80.1667 613.2 58.5 586 62.5C558.8 66.5 557 53.8333 559.5 47" stroke="url(#paint2_linear_8_204)" stroke-width="3"/>
    <path d="M503 157.5C498 152.333 489.5 140.5 495.5 134.5C503 127 525 121 514 112C505.2 104.8 517.333 96.3333 524.5 93C530 92 540.7 87.2 539.5 76" stroke="url(#paint3_linear_8_204)" stroke-width="3"/>
    <path d="M558.5 157.5C560.833 160.667 566.7 164.1 571.5 152.5C577.5 138 561 130 567.5 127.5C572.7 125.5 569.667 114.667 567.5 109.5" stroke="url(#paint4_linear_8_204)" stroke-width="3"/>
    <path d="M582 213C587.167 213.5 597.2 210.8 596 196C594.5 177.5 573 164 577.5 155.5C582 147 593 153.5 592.5 141.5C592 129.5 585.5 126.5 589 119.5C592.5 112.5 590 91 577.5 91" stroke="url(#paint5_linear_8_204)" stroke-width="3"/>
    <path d="M494.5 211.5C495 205.333 493.9 191.1 485.5 183.5C477.1 175.9 480 163.333 482.5 158" stroke="url(#paint6_linear_8_204)" stroke-width="3"/>
    <path d="M551 34.5C551 38.4468 548.577 42.273 544.136 45.2054C539.711 48.1275 533.482 50 526.5 50C519.518 50 513.289 48.1275 508.864 45.2054C504.423 42.273 502 38.4468 502 34.5C502 30.5532 504.423 26.727 508.864 23.7946C513.289 20.8725 519.518 19 526.5 19C533.482 19 539.711 20.8725 544.136 23.7946C548.577 26.727 551 30.5532 551 34.5Z" stroke="url(#paint7_linear_8_204)" stroke-width="4"/>
    <path d="M516.5 36L527.5 12.5L538 36L527.5 58.5L516.5 36ZM502 36L527.5 46.5L553 36L527.5 30.5L502 36Z" stroke="url(#paint8_linear_8_204)" stroke-width="3"/>
    <path d="M583.5 212C581 215.333 576.5 221 588.5 217C600.5 213 588.5 197.667 581 190.5C574.833 185.833 567.3 177.5 586.5 181.5" stroke="url(#paint9_linear_8_204)" stroke-width="3"/>
    <mask id="mask1_8_204" style="mask-type:luminance" maskUnits="userSpaceOnUse" x="455" y="146" width="155" height="204">
    <path d="M610 146H455V350H610V146Z" fill="white"/>
    </mask>
    <g mask="url(#mask1_8_204)">
    <path d="M518.325 149.702C518.325 147.658 519.974 146 522.007 146H542.625C544.658 146 546.306 147.658 546.306 149.702V160.809H518.325V149.702Z" fill="url(#paint10_linear_8_204)"/>
    <path d="M566.924 181.913H561.401V198.944H566.924V181.913Z" fill="url(#paint11_linear_8_204)"/>
    <path d="M501.39 181.913H495.867V198.944H501.39V181.913Z" fill="url(#paint12_linear_8_204)"/>
    <path d="M501.89 158.348H560.901V210.662H531.395H501.89V158.348Z" fill="black" stroke="url(#paint13_linear_8_204)"/>
    <path d="M536.713 349.334C536.783 349.736 537.165 350.005 537.566 349.934L598.139 339.194C602.144 338.483 604.818 334.643 604.112 330.616L602.707 322.603L534.157 334.758L536.713 349.334Z" fill="#106857"/>
    <path d="M537.301 349.334C537.23 349.736 536.848 350.005 536.448 349.934L475.874 339.194C471.869 338.483 469.195 334.643 469.901 330.616L471.306 322.603L539.856 334.758L537.301 349.334Z" fill="url(#paint14_linear_8_204)"/>
    <path d="M472.804 229.673C472.804 219.724 480.825 211.662 490.713 211.662H575.392C585.28 211.662 593.3 219.723 593.3 229.673V275.583C593.3 282.466 587.752 288.041 580.915 288.041H485.19C478.352 288.041 472.804 282.466 472.804 275.583V229.673Z" fill="black" stroke="url(#paint15_linear_8_204)"/>
    <path d="M570.974 308.534H492.553V315.198H570.974V308.534Z" fill="url(#paint16_linear_8_204)"/>
    <path d="M562.874 189.318L565.083 191.169V194.871H562.874V189.318Z" fill="black"/>
    <path d="M495.867 269.289H575.76L573.183 272.621H490.897L495.867 269.289Z" fill="url(#paint17_linear_8_204)"/>
    <path d="M500.638 209.488C500.884 209.374 501.164 209.361 501.42 209.451L530.843 219.862L561.567 209.379C561.699 209.334 561.841 209.332 561.974 209.372C562.557 209.548 562.622 210.351 562.076 210.62L536.065 223.404C532.767 225.025 528.913 225.039 525.603 223.442L500.623 211.384C499.829 211 499.837 209.86 500.638 209.488Z" fill="black"/>
    <path d="M455.5 307.053C455.5 297.103 463.521 289.041 473.409 289.041H537.57H591.591C601.479 289.041 609.5 297.103 609.5 307.053V327.416C609.5 331.231 606.424 334.32 602.637 334.32H462.363C458.576 334.32 455.5 331.231 455.5 327.416V307.053Z" fill="black" stroke="url(#paint18_linear_8_204)"/>
    <path d="M506.728 181.728L512.107 180.266C513.06 180.007 513.991 179.671 514.891 179.262L517.142 178.238C519.854 177.004 522.228 175.127 524.061 172.768L524.504 172.197C525.413 171.027 526.179 169.751 526.785 168.397L529.186 163.031L533.602 171.228C535.401 174.568 538.178 177.27 541.556 178.969L544.078 180.237C546.038 181.223 548.159 181.849 550.339 182.085L559.008 183.024L556.659 191.173C555.786 194.202 554.139 196.949 551.881 199.138C550.747 200.238 549.461 201.19 548.081 201.955C545.951 203.137 543.587 203.889 541.167 204.145L532.987 205.011C531.563 205.161 530.126 205.144 528.705 204.96L525.204 204.506C521.446 204.019 517.93 202.377 515.134 199.805L514.596 199.309C512.099 197.012 510.28 194.067 509.339 190.799L506.728 181.728Z" fill="#515050"/>
    <path d="M502.126 211.162L530.291 220.603L561.77 210.421H562.322L554.774 217.641L547.302 226.135C546.639 226.888 545.917 227.586 545.142 228.221L526.425 243.557C524.756 245.326 521.933 243.297 523.057 241.136L527.863 231.897C528.296 231.064 528.009 230.035 527.209 229.549L517.297 223.54C516.511 223.064 515.761 222.528 515.055 221.939L502.126 211.162Z" fill="#404040"/>
    <path d="M522.689 183.525L527.312 186.706C527.435 186.791 527.472 186.957 527.396 187.086C525.03 191.157 519.456 191.839 516.188 188.456L514.989 187.214C514.824 187.043 514.883 186.757 515.102 186.667L522.689 183.525Z" fill="url(#paint19_linear_8_204)"/>
    <path d="M559.192 314.087H506.176V319.641H559.192V314.087Z" fill="url(#paint20_linear_8_204)"/>
    <path d="M533.695 318.53H556.615V316.679L545.155 318.53L532.684 316.679L533.695 318.53Z" fill="black"/>
    <path d="M514.644 317.803C514.645 316.985 513.081 316.319 511.15 316.315C509.219 316.311 507.653 316.971 507.651 317.789C507.65 318.607 509.214 319.273 511.145 319.276C513.076 319.28 514.642 318.62 514.644 317.803Z" fill="black"/>
    <path d="M529.45 192.749C530.189 190.015 534.082 190.124 534.667 192.896C534.795 193.499 535.124 194.04 535.6 194.429L536.992 195.569C537.9 196.311 537.698 197.756 536.623 198.219L536.068 198.458C533.697 199.479 531.017 199.497 528.632 198.509L527.871 198.194C526.758 197.732 526.501 196.262 527.391 195.446L528.564 194.372C528.952 194.016 529.231 193.557 529.369 193.048L529.45 192.749Z" fill="url(#paint21_linear_8_204)"/>
    <path d="M530.107 198.944H534.157V204.711C534.157 204.801 534.092 204.878 534.003 204.893L531.948 205.238L530.273 205.069C530.179 205.06 530.107 204.98 530.107 204.885V198.944Z" fill="url(#paint22_linear_8_204)"/>
    <path d="M479.656 259.913C479.495 260.801 478.195 260.683 478.195 259.781V240.673C478.195 235.764 480.134 231.055 483.587 227.583L492.862 218.256C493.599 217.515 494.8 217.537 495.51 218.303L500.188 223.351C500.992 224.219 500.788 225.614 499.768 226.212L491.406 231.118C486.76 233.843 483.532 238.475 482.57 243.797L479.656 259.913Z" fill="black"/>
    <path d="M580.79 259.549C580.951 260.437 582.251 260.318 582.251 259.416V240.309C582.251 235.399 580.311 230.691 576.859 227.219L567.584 217.892C566.847 217.151 565.646 217.172 564.936 217.939L560.258 222.987C559.453 223.855 559.657 225.25 560.677 225.848L569.04 230.754C573.686 233.479 576.914 238.111 577.876 243.432L580.79 259.549Z" fill="black"/>
    <path d="M540.47 183.394L535.847 186.576C535.724 186.66 535.688 186.826 535.763 186.955C538.129 191.027 543.703 191.708 546.971 188.325L548.17 187.084C548.335 186.912 548.276 186.627 548.057 186.536L540.47 183.394Z" fill="url(#paint23_linear_8_204)"/>
    <path d="M490.344 276.693H573.367L570.974 308.534H492.553L490.344 276.693Z" fill="url(#paint24_linear_8_204)"/>
    <path d="M542.673 175.614C540.54 175.265 538.668 173.991 537.552 172.131L532.737 164.104C532.512 163.728 532.659 163.239 533.054 163.052L534.79 162.23C535.154 162.058 535.587 162.211 535.765 162.574L537.46 166.047C539.369 169.958 542.589 173.066 546.552 174.825L551.645 177.085L542.673 175.614Z" fill="black"/>
    <path d="M498.076 189.318L500.285 191.169V194.871H498.076V189.318Z" fill="black"/>
    <g style="mix-blend-mode:multiply">
    <path d="M559.192 319.641H506.176V321.862H559.192V319.641Z" fill="black" fill-opacity="0.2"/>
    </g>
    <g style="mix-blend-mode:multiply">
    <path d="M570.974 308.534H492.553V310.755H570.974V308.534Z" fill="black" fill-opacity="0.3"/>
    </g>
    <g style="mix-blend-mode:multiply">
    <path d="M470.38 334.82H603.632L603.557 335.005L603.373 335.376L603.189 335.746L602.821 336.301H471.408C471.279 336.301 471.159 336.233 471.092 336.121L470.647 335.376L470.463 335.005L470.38 334.82Z" fill="#D9D9D9"/>
    </g>
    <g style="mix-blend-mode:multiply">
    <path d="M504.887 211.162H531.027H557.167L547.227 222.454L516.485 220.973L504.887 211.162Z" fill="black" fill-opacity="0.5"/>
    </g>
    <g style="mix-blend-mode:multiply">
    <path d="M577.763 255.341C577.992 256.23 579.307 255.988 579.208 255.075L578.007 244.05C577.601 240.323 576.079 236.808 573.643 233.97L567.052 226.291C566.287 225.4 564.899 225.444 564.191 226.382L562.428 228.721C561.815 229.535 561.973 230.696 562.782 231.313L568.649 235.796C571.944 238.313 574.299 241.873 575.335 245.901L577.763 255.341Z" fill="black" fill-opacity="0.3"/>
    </g>
    <g style="mix-blend-mode:multiply">
    <path d="M482.468 255.341C482.239 256.23 480.924 255.988 481.023 255.075L482.224 244.05C482.63 240.323 484.152 236.808 486.588 233.97L493.179 226.291C493.944 225.4 495.332 225.444 496.039 226.382L497.802 228.721C498.416 229.535 498.258 230.696 497.449 231.313L491.582 235.796C488.287 238.313 485.932 241.873 484.896 245.901L482.468 255.341Z" fill="black" fill-opacity="0.3"/>
    </g>
    <g style="mix-blend-mode:multiply">
    <path d="M540.6 230.969L561.954 210.236L551.461 232.08L524.952 244.113L540.6 230.969Z" fill="#D9D9D9"/>
    </g>
    <g style="mix-blend-mode:multiply">
    <path d="M534.157 198.944H530.107V200.054H534.157V198.944Z" fill="black" fill-opacity="0.3"/>
    </g>
    <g style="mix-blend-mode:multiply">
    <path d="M527.53 185.615H514.644V187.096H527.53V185.615Z" fill="black" fill-opacity="0.7"/>
    </g>
    <g style="mix-blend-mode:multiply">
    <path d="M548.515 185.615H535.629V187.096H548.515V185.615Z" fill="black" fill-opacity="0.7"/>
    </g>
    <g style="mix-blend-mode:multiply">
    <path d="M508.62 165.571C509.546 164.64 510.732 164.015 512.02 163.78L517.967 162.692C518.823 162.536 519.256 163.691 518.51 164.142L515.557 165.174C512.099 166.384 509.44 169.208 508.43 172.748L506.953 177.921C506.723 178.727 505.529 178.489 505.624 177.655L506.797 169.249C506.991 167.857 507.631 166.566 508.62 165.571Z" fill="black" fill-opacity="0.2"/>
    </g>
    <g style="mix-blend-mode:multiply">
    <path d="M541.252 176.146C538.506 175.977 536.082 174.282 534.969 171.752L532.534 166.22C532.386 165.884 532.505 165.49 532.814 165.294L534.192 164.419C534.596 164.162 535.134 164.359 535.285 164.815C536.993 169.962 540.874 174.138 545.879 176.167L546.647 176.479L541.252 176.146Z" fill="black" fill-opacity="0.2"/>
    </g>
    <g style="mix-blend-mode:lighten">
    <path d="M505.89 167.111C505.949 166.247 506.609 165.545 507.464 165.437L506.912 166.733L505.992 172.657L505.624 175.434L505.255 176.359L505.89 167.111Z" fill="url(#paint25_linear_8_204)"/>
    </g>
    <path d="M508.252 164.461C509.177 163.53 510.364 162.905 511.652 162.669L517.599 161.582C518.455 161.425 518.888 162.581 518.141 163.031C512.832 164.888 508.751 169.225 507.199 174.658L506.585 176.81C506.354 177.617 505.161 177.378 505.255 176.544L506.429 168.138C506.623 166.746 507.263 165.455 508.252 164.461Z" fill="black"/>
    <g style="mix-blend-mode:lighten">
    <path d="M536.55 164.327L541.152 170.621L547.963 175.434L544.466 173.953L540.968 171.361L538.943 168.77L537.654 166.548L536.55 164.327Z" fill="url(#paint26_linear_8_204)"/>
    </g>
    <g style="mix-blend-mode:multiply">
    <path d="M519.81 151.923C519.612 149.806 521.374 148.029 523.48 148.221C522.147 149.44 521.107 150.946 520.438 152.628L519.982 153.775L519.81 151.923Z" fill="black" fill-opacity="0.3"/>
    </g>
    <g style="mix-blend-mode:lighten">
    <path d="M519.329 151.2C519.018 149.2 520.763 147.489 522.743 147.851C521.43 148.812 520.466 150.179 519.999 151.744L519.614 153.034L519.329 151.2Z" fill="url(#paint27_linear_8_204)"/>
    </g>
    <path d="M519.441 151.552C519.244 149.436 521.006 147.659 523.112 147.851C521.779 149.069 520.739 150.576 520.07 152.258L519.614 153.405L519.441 151.552Z" fill="black"/>
    <g style="mix-blend-mode:multiply">
    <path d="M507.833 185.06C509.647 183.874 512.084 184.818 512.638 186.922L513.056 188.512C513.133 188.801 513.238 189.082 513.372 189.351L515.02 192.666C516.108 194.855 517.617 196.805 519.46 198.404L526.057 204.127L529.287 204.404C532.826 204.706 536.376 203.973 539.511 202.292L544.529 199.601C547.148 198.196 549.39 196.176 551.065 193.711L556.063 186.356L558.456 185.06L556.512 193.341C555.746 196.604 553.874 199.496 551.218 201.523C550.4 202.146 549.519 202.68 548.588 203.115L547.038 203.839C545.575 204.522 544.029 205.008 542.44 205.286L535.092 206.571C533.131 206.914 531.129 206.935 529.162 206.633L525.14 206.016C522.589 205.625 520.148 204.699 517.976 203.298L517.552 203.023C513.669 200.519 510.863 196.639 509.689 192.153L507.833 185.06Z" fill="black" fill-opacity="0.3"/>
    </g>
    <path d="M538.5 295.5L533.5 298.5" stroke="black" stroke-width="0.5"/>
    </g>
    <mask id="mask2_8_204" style="mask-type:luminance" maskUnits="userSpaceOnUse" x="471" y="350" width="163" height="145">
    <path d="M471 350H634V495H471V350Z" fill="white"/>
    </mask>
    <g mask="url(#mask2_8_204)">
    <path d="M491.479 402.41C484.514 398.916 488.136 386.415 558.351 364.364L554.59 372.905L577.577 375.622L516.556 389.21L519.482 402.41L574.651 392.122L528.677 415.415L491.479 402.41Z" fill="url(#paint28_linear_8_204)" fill-opacity="0.4" stroke="black"/>
    <path d="M568.8 409.203C577.298 406.486 593.543 399.187 590.533 391.734L599.728 384.163L611.431 394.839L607.251 409.203L631.492 412.697L607.251 419.685L620.626 425.509L595.967 435.408L615.192 443.367L597.638 454.431L568.8 461.613L590.533 465.107L555.844 467.631V454.431L586.354 447.637L555.844 426.479L544.977 434.826H511.541L519.482 446.667L471.418 434.826L503.6 418.715L522.408 425.509L552.082 420.656L590.533 425.509L568.8 409.203Z" fill="url(#paint29_linear_8_204)" fill-opacity="0.4"/>
    <path d="M590.533 472.289L627.731 486.071L633.582 491.894L617.7 493.447L593.459 480.83V490.341L575.905 493.447L568.8 487.236L548.321 490.341L544.977 494.806H525.751L539.126 490.341V480.83L552.082 483.742L580.085 480.83L590.533 472.289Z" fill="url(#paint30_linear_8_204)" fill-opacity="0.4"/>
    <path d="M597.638 371.352L617.7 366.305L624.805 358.153L599.728 360.482L595.967 353.3L580.085 358.153L575.905 350.194L555.844 355.823L563.367 368.635L568.8 363.782L575.905 370.382L590.533 366.305L597.638 371.352Z" fill="url(#paint31_linear_8_204)" fill-opacity="0.4"/>
    <path d="M568.8 409.203C577.298 406.486 593.543 399.187 590.533 391.734L599.728 384.163L611.431 394.839L607.251 409.203L631.492 412.697L607.251 419.685L620.626 425.509L595.967 435.408L615.192 443.367L597.638 454.431L568.8 461.613L590.533 465.107L555.844 467.631V454.431L586.354 447.637L555.844 426.479L544.977 434.826H511.541L519.482 446.667L471.418 434.826L503.6 418.715L522.408 425.509L552.082 420.656L590.533 425.509L568.8 409.203Z" stroke="black"/>
    <path d="M590.533 472.289L627.731 486.071L633.582 491.894L617.7 493.447L593.459 480.83V490.341L575.905 493.447L568.8 487.236L548.321 490.341L544.977 494.806H525.751L539.126 490.341V480.83L552.082 483.742L580.085 480.83L590.533 472.289Z" stroke="black"/>
    <path d="M597.638 371.352L617.7 366.305L624.805 358.153L599.728 360.482L595.967 353.3L580.085 358.153L575.905 350.194L555.844 355.823L563.367 368.635L568.8 363.782L575.905 370.382L590.533 366.305L597.638 371.352Z" stroke="black"/>
    </g>
    <mask id="mask3_8_204" style="mask-type:luminance" maskUnits="userSpaceOnUse" x="1" y="7" width="163" height="145">
    <path d="M164 7H1V152H164V7Z" fill="white"/>
    </mask>
    <g mask="url(#mask3_8_204)">
    <path d="M143.521 59.4097C150.486 55.9157 146.864 43.415 76.6487 21.3641L80.4103 29.905L57.4231 32.6225L118.444 46.2102L115.518 59.4097L60.3487 49.1218L106.323 72.415L143.521 59.4097Z" fill="url(#paint32_linear_8_204)" fill-opacity="0.4" stroke="black"/>
    <path d="M66.2 66.2035C57.7018 63.486 41.4574 56.1874 44.4667 48.7336L35.2718 41.1633L23.5692 51.8394L27.7487 66.2035L3.50769 69.6975L27.7487 76.6854L14.3744 82.5087L39.0333 92.4083L19.8077 100.367L37.3615 111.431L66.2 118.613L44.4667 122.107L79.1564 124.631V111.431L48.6461 104.637L79.1564 83.4793L90.0231 91.826H123.459L115.518 103.667L163.582 91.826L131.4 75.7149L112.592 82.5087L82.9179 77.656L44.4667 82.5087L66.2 66.2035Z" fill="url(#paint33_linear_8_204)" fill-opacity="0.4"/>
    <path d="M44.4667 129.289L7.26925 143.071L1.41797 148.894L17.3 150.447L41.541 137.83V147.341L59.0949 150.447L66.2 144.236L86.6795 147.341L90.0231 151.806H109.249L95.8744 147.341V137.83L82.918 140.742L54.9154 137.83L44.4667 129.289Z" fill="url(#paint34_linear_8_204)" fill-opacity="0.4"/>
    <path d="M37.3616 28.3521L17.3 23.3052L10.1949 15.1526L35.2718 17.4819L39.0333 10.2999L54.9154 15.1526L59.0949 7.19412L79.1564 12.8233L71.6333 25.6346L66.2 20.7818L59.0949 27.3815L44.4667 23.3052L37.3616 28.3521Z" fill="url(#paint35_linear_8_204)" fill-opacity="0.4"/>
    <path d="M66.2 66.2035C57.7018 63.486 41.4574 56.1874 44.4667 48.7336L35.2718 41.1633L23.5692 51.8394L27.7487 66.2035L3.50769 69.6975L27.7487 76.6854L14.3744 82.5087L39.0333 92.4083L19.8077 100.367L37.3615 111.431L66.2 118.613L44.4667 122.107L79.1564 124.631V111.431L48.6461 104.637L79.1564 83.4793L90.0231 91.826H123.459L115.518 103.667L163.582 91.826L131.4 75.7149L112.592 82.5087L82.9179 77.656L44.4667 82.5087L66.2 66.2035Z" stroke="black"/>
    <path d="M44.4667 129.289L7.26925 143.071L1.41797 148.894L17.3 150.447L41.541 137.83V147.341L59.0949 150.447L66.2 144.236L86.6795 147.341L90.0231 151.806H109.249L95.8744 147.341V137.83L82.918 140.742L54.9154 137.83L44.4667 129.289Z" stroke="black"/>
    <path d="M37.3616 28.3521L17.3 23.3052L10.1949 15.1526L35.2718 17.4819L39.0333 10.2999L54.9154 15.1526L59.0949 7.19412L79.1564 12.8233L71.6333 25.6346L66.2 20.7818L59.0949 27.3815L44.4667 23.3052L37.3616 28.3521Z" stroke="black"/>
    </g>
    <path d="M431.667 83.3261L439 68L446 83.3261L439 98L431.667 83.3261ZM422 83.3261L439 90.1739L456 83.3261L439 79.7391L422 83.3261Z" stroke="url(#paint36_linear_8_204)" stroke-width="3"/>
    <path d="M452 84C452 86.2767 450.788 88.4824 448.544 90.1848C446.299 91.8883 443.108 93 439.5 93C435.892 93 432.701 91.8883 430.456 90.1848C428.212 88.4824 427 86.2767 427 84C427 81.7233 428.212 79.5176 430.456 77.8152C432.701 76.1117 435.892 75 439.5 75C443.108 75 446.299 76.1117 448.544 77.8152C450.788 79.5176 452 81.7233 452 84Z" stroke="url(#paint37_linear_8_204)" stroke-width="4"/>
    <path d="M627 31C627 33.2767 625.788 35.4824 623.544 37.1848C621.299 38.8883 618.108 40 614.5 40C610.892 40 607.701 38.8883 605.456 37.1848C603.212 35.4824 602 33.2767 602 31C602 28.7233 603.212 26.5176 605.456 24.8152C607.701 23.1117 610.892 22 614.5 22C618.108 22 621.299 23.1117 623.544 24.8152C625.788 26.5176 627 28.7233 627 31Z" stroke="url(#paint38_linear_8_204)" stroke-width="4"/>
    <path d="M606.667 30.3261L614 15L621 30.3261L614 45L606.667 30.3261ZM597 30.3261L614 37.1739L631 30.3261L614 26.7391L597 30.3261Z" stroke="url(#paint39_linear_8_204)" stroke-width="3"/>
    </g>
    <path d="M524.5 289.5V297.5L531.5 301.5L538.5 297.5V289.5L531.5 285L524.5 289.5Z" stroke="black" stroke-width="0.5"/>
    <path d="M526.5 298.5V292.5" stroke="black" stroke-width="0.5"/>
    <path d="M524.5 291.5L529.5 288.5" stroke="black" stroke-width="0.5"/>
    <path d="M534.5 287V291.25M534.5 291.25V295.5L531.5 297L528.5 295.5V291.5L531.5 289.5L534.5 291.25Z" stroke="black" stroke-width="0.5"/>
    <path d="M530 286L534.5 289.5" stroke="black" stroke-width="0.5"/>
    <path d="M528.5 297.5L533 300.5" stroke="black" stroke-width="0.5"/>
    <path d="M528.5 295.5V299.5" stroke="black" stroke-width="0.5"/>
    <path d="M528.5 299L528.933 299.75H528.067L528.5 299Z" fill="black"/>
    <path d="M536.5 288.5V294.5" stroke="black" stroke-width="0.5"/>
    <path d="M536.5 289L536.933 288.25L536 288L536.5 289Z" fill="black"/>
    <path d="M518 304V307.5H520" stroke="black" stroke-width="0.5"/>
    <path d="M530 308V306.25M530 306.25V304.5V304M530 306.25L532 304.5M530 306.25L532 308" stroke="black" stroke-width="0.5"/>
    <path d="M528.5 305L527.5 304L526.5 304.5L526 305V306V306.5L526.5 307L527 307.5H527.5L528 307L528.5 306.5" stroke="black" stroke-width="0.5"/>
    <path d="M535.5 305L534.5 304L533.5 304.5L533 305V306V306.5L533.5 307L534 307.5H534.5L535 307L535.5 306.5" stroke="black" stroke-width="0.5"/>
    <path d="M536.5 304.5V306.25M536.5 308V306.25M536.5 306.25H539V304.5V308" stroke="black" stroke-width="0.5"/>
    <path d="M540.5 307.5L541 306M542.5 307.5L542 306M542 306L541.5 304.5L541 306M542 306H541" stroke="black" stroke-width="0.5"/>
    <path d="M544.5 304.5V307.5" stroke="black" stroke-width="0.5"/>
    <path d="M546 307.5V304.5L548.5 307.5V304.5" stroke="black" stroke-width="0.5"/>
    <circle cx="522.5" cy="306.5" r="1.25" stroke="black" stroke-width="0.5"/>
    <path d="M515.5 306H516.5V305.5V305L516 304.5H514.5V306M515.5 306H514.5M515.5 306L516.5 306.5V307V307.5V308H516H514.5V306" stroke="black" stroke-width="0.5"/>
    <path d="M150.791 137H179.687C182.496 137 183.764 140.515 181.603 142.309L165.984 155.269L182.296 162.831C183.872 163.561 184.5 165.473 183.664 166.996L177.381 178.443C176.855 179.403 175.847 180 174.752 180H148" stroke="url(#paint40_linear_8_204)" stroke-width="3"/>
    <g clip-path="url(#clip1_8_204)">
    <path d="M125.252 205.806C121.912 218.663 108.346 226.488 94.95 223.282C81.5595 220.076 73.4079 207.053 76.7486 194.197C80.0865 181.338 93.6529 173.513 107.045 176.718C120.44 179.924 128.591 192.948 125.251 205.806L125.252 205.806H125.252Z" fill="url(#paint41_linear_8_204)"/>
    <path d="M112.025 196.581C112.523 193.387 109.99 191.67 106.526 190.525L107.649 186.198L104.906 185.542L103.812 189.754C103.09 189.582 102.35 189.419 101.614 189.258L102.715 185.017L99.9735 184.361L98.8491 188.686C98.2522 188.556 97.666 188.427 97.0972 188.291L97.1004 188.277L93.3169 187.37L92.587 190.183C92.587 190.183 94.6226 190.631 94.5797 190.659C95.6907 190.925 95.8916 191.631 95.8582 192.191L94.5782 197.119C94.6547 197.138 94.7539 197.165 94.8634 197.207C94.7719 197.185 94.6745 197.162 94.5734 197.138L92.7793 204.043C92.6435 204.367 92.2988 204.853 91.5221 204.668C91.5496 204.707 89.5279 204.191 89.5279 204.191L88.1658 207.205L91.7362 208.06C92.4004 208.22 93.0513 208.387 93.6923 208.544L92.557 212.92L95.2974 213.576L96.4218 209.247C97.1704 209.442 97.897 209.622 98.6083 209.792L97.4877 214.101L100.231 214.757L101.367 210.389C106.045 211.239 109.563 210.896 111.044 206.834C112.237 203.564 110.984 201.678 108.523 200.448C110.316 200.051 111.666 198.919 112.026 196.581L112.025 196.58L112.025 196.581ZM105.757 205.018C104.909 208.289 99.1723 206.521 97.3124 206.077L98.8191 200.28C100.679 200.726 106.643 201.608 105.757 205.018H105.757ZM106.605 196.533C105.832 199.508 101.057 197.997 99.5083 197.626L100.874 192.368C102.423 192.739 107.411 193.43 106.605 196.533H106.605Z" fill="black"/>
    </g>
    <path d="M224.996 185L224.668 186.094V217.832L224.996 218.154L239.991 209.445L224.996 185Z" fill="#1ABC9C"/>
    <path d="M224.996 185L210 209.445L224.996 218.154V202.749V185Z" fill="#FDFF9B"/>
    <path d="M224.996 220.943L224.811 221.164V232.47L224.996 233L240 212.239L224.996 220.943Z" fill="#0A4941"/>
    <path d="M224.996 233V220.943L210 212.239L224.996 233Z" fill="#FDFF9B"/>
    <path d="M224.996 218.154L239.991 209.445L224.996 202.749V218.154Z" fill="#106857"/>
    <path d="M210 209.445L224.996 218.154V202.749L210 209.445Z" fill="#0A4941"/>
    <g clip-path="url(#clip2_8_204)">
    <path d="M466 429.5C466 412.64 451.655 399 434 399C416.31 399 402 412.64 402 429.5C402 446.328 416.31 460 434 460C451.655 460 466 446.328 466 429.5Z" fill="url(#paint42_radial_8_204)"/>
    <path d="M455.759 419.969C455.621 420.725 455.483 421.086 455.276 421.481C455.069 421.941 454.862 422.434 454.655 423.485C454.586 423.88 454.517 424.209 454.483 424.471V424.504C454.414 424.932 454.379 425.227 454.207 425.72C454.069 426.148 453.828 426.838 453.241 427.561C452.759 428.152 451.966 429.171 450.897 429.303C450.793 429.303 450.621 429.303 450.517 429.27C447.483 427.791 444.897 426.706 444 426.476C442.966 426.18 443.103 424.011 443.207 422.105C443.276 421.251 443.31 420.429 443.276 419.739C443.138 417.307 442.69 414.677 440.483 413.395C439.172 412.64 437.448 412.409 435.828 412.409C436.138 412.278 436.448 412.081 436.828 411.884C437.793 411.358 438.966 410.7 440.172 410.569C440.552 410.536 440.931 410.503 441.31 410.437C443.69 410.175 445.759 409.945 447.931 410.668C448.931 410.996 450.931 412.048 451.448 413.067C451.828 413.757 452.448 414.316 453.655 415.4C454.31 415.959 454.724 416.288 455.034 416.551C455.483 416.879 455.552 416.978 455.69 417.208C456.103 417.997 455.966 418.818 455.759 419.969Z" fill="black"/>
    <path d="M444.759 429.927C444.897 429.96 444.966 430.124 444.862 430.256C444.552 430.716 444.172 431.373 443.724 432.129C443.517 432.491 443.31 432.852 443.138 433.115C442.552 434.068 442.517 434.89 442.483 435.515C442.448 436.205 442.414 436.501 441.966 436.763C441.621 436.994 441.241 437.059 438.759 437.421C438.31 437.487 438.138 437.552 437.966 437.651C437.931 437.684 437.862 437.684 437.828 437.717C437.69 437.782 437.552 437.651 437.552 437.519C437.586 437.191 437.586 436.763 437.586 436.205V436.106C437.586 435.646 437.586 435.252 437.552 434.956C437.517 434.364 437.517 434.101 437.69 433.838C437.897 433.51 438.069 433.411 438.31 433.247C438.69 433.017 439.207 432.721 439.931 431.735C440.345 431.209 440.414 430.913 440.483 430.683C440.517 430.585 440.517 430.552 440.828 430.322C441.138 430.092 442.138 429.369 443.414 429.566C443.828 429.631 444.276 429.763 444.759 429.927Z" fill="black"/>
    <path d="M434.862 440.839C434.793 440.905 434.759 440.938 434.655 440.938C434.379 440.938 434.207 440.872 434.103 440.74C433.862 440.445 433.897 439.853 433.931 439.491L435 439.228C435.069 439.787 435.103 440.543 434.862 440.839Z" fill="black"/>
    <path d="M434.931 437.224C434.897 437.355 434.897 437.519 434.897 437.717C434.897 437.782 434.897 437.848 434.897 437.914C434.897 438.078 434.897 438.341 434.897 438.473C434.552 438.571 434.276 438.571 433.931 438.571C433.931 438.473 433.931 438.308 433.931 438.21C433.931 438.144 433.931 438.045 433.931 437.98C433.931 437.881 433.931 437.815 433.931 437.717C433.931 437.519 433.931 437.224 433.966 437.125C434.069 437.125 434.172 437.092 434.276 437.059C434.483 437.026 434.793 436.961 434.966 436.994C434.966 437.059 434.966 437.158 434.931 437.224Z" fill="black"/>
    <path d="M433 440.543C432.966 441.069 432.793 441.693 432.276 441.792C432.034 441.825 431.931 441.759 431.862 441.693C431.517 441.398 431.483 440.477 431.517 439.82C431.759 439.82 432.034 439.787 432.379 439.721C432.586 439.689 432.793 439.623 432.966 439.59C433 439.853 433.034 440.182 433 440.543Z" fill="black"/>
    <path d="M432.759 438.703L431.621 439.097C431.69 438.67 431.759 438.078 431.793 437.684C431.828 437.421 431.897 437.322 431.931 437.289C431.931 437.289 431.966 437.256 432 437.256C432 437.256 432 437.256 432.034 437.256H432.069L432.793 437.224C432.759 437.552 432.759 438.275 432.759 438.703Z" fill="black"/>
    <path d="M430.897 438.374C430.828 438.538 430.759 438.998 430.724 439.327L429.31 439.294C429.379 438.867 429.517 438.44 429.621 438.111C429.759 437.782 429.862 437.519 430 437.454C430.138 437.388 430.448 437.355 430.655 437.519C430.966 437.717 431.034 438.012 430.897 438.374Z" fill="black"/>
    <path d="M430.379 442.548C430.276 442.679 430.138 442.778 430 442.778C429.828 442.811 429.724 442.745 429.621 442.679C429.172 442.285 429.207 441.003 429.241 440.379C429.828 440.247 430.483 440.149 430.793 440.116C430.793 440.609 430.828 441.956 430.379 442.548Z" fill="black"/>
    <path d="M428.517 439.228C428.448 439.393 428.379 439.557 428.345 439.721C428.172 439.787 427.655 439.721 427.138 439.623L427.483 437.487C428.069 437.322 428.759 437.289 428.897 437.454C429.138 437.684 428.69 438.768 428.517 439.228Z" fill="black"/>
    <path d="M427.862 442.844C427.586 443.172 427.172 443.337 426.586 443.304C426.172 443.304 426.034 443.14 425.966 443.041C425.655 442.548 425.966 441.398 426.276 440.675L428.207 440.773C428.241 440.905 428.241 441.069 428.241 441.233C428.276 441.792 428.207 442.449 427.862 442.844Z" fill="black"/>
    <path d="M443.862 427.298C442.103 426.838 442.276 424.406 442.414 422.039C442.448 421.218 442.517 420.429 442.483 419.772C442.345 417.569 441.966 415.17 440.103 414.086C438.103 412.935 434.828 413.198 432.828 413.428C432.103 413.626 431.414 413.79 430.862 413.757C429.69 413.691 428.759 413.231 427.931 412.804C427.31 412.475 426.759 412.179 426.207 412.179C426.172 412.179 426.138 412.179 426.138 412.179C424.586 412.278 423.862 412.64 423.207 413.198C423.034 413.33 422.828 413.724 422.172 415.532C421.828 416.452 421.793 416.945 421.724 417.405C421.655 417.832 421.621 418.293 421.379 418.983C421.207 419.443 421.069 419.837 420.966 420.232C420.655 421.251 420.379 422.072 419.621 423.058C419.517 423.157 419.414 423.354 419.276 423.518C419.103 423.781 418.897 424.11 418.586 424.471C418.379 424.734 417.931 425.72 417.966 426.016C418 426.509 418.172 426.805 418.345 427.134C418.517 427.462 418.759 427.857 418.793 428.415V428.514C418.862 429.369 418.724 429.796 417.034 431.242C415.966 432.162 415.172 433.05 414.655 433.707C414.621 433.773 414.655 433.838 414.759 433.838C414.793 433.838 414.793 433.838 414.793 433.838C414.828 433.838 414.862 433.838 414.897 433.838C414.931 433.838 414.966 433.838 415 433.838C415.034 433.838 415.069 433.838 415.103 433.838C415.517 433.871 415.931 434.036 416.207 434.331C416.241 434.397 416.345 434.397 416.414 434.364C416.69 434.266 417 434.266 417.276 434.298C417.621 434.331 418 434.43 418.241 434.66C418.31 434.726 418.414 434.759 418.517 434.726C418.793 434.66 419.103 434.66 419.379 434.759C419.586 434.824 419.793 434.956 419.931 435.12C420.034 435.219 420.207 435.252 420.345 435.186C420.414 435.153 420.517 435.087 420.621 435.054C421 434.923 421.414 434.989 421.759 435.12C421.931 435.186 422.103 435.219 422.276 435.35C422.552 435.547 422.759 435.81 422.862 436.106C422.931 436.27 423.172 436.336 423.31 436.205C423.586 436.008 423.793 435.975 424 436.04C424.103 436.073 424.172 436.139 424.241 436.238C424.345 436.369 424.517 436.501 424.655 436.435C425.241 436.27 425.931 436.369 426.448 436.632C426.621 436.731 426.828 436.862 426.931 437.059V436.961C426.931 436.928 426.966 436.895 427 436.862L427.103 436.829C427.379 436.731 428.828 436.336 429.379 436.895C429.414 436.928 429.448 436.928 429.483 436.895C429.552 436.829 429.621 436.763 429.655 436.763C430.034 436.566 430.655 436.533 431.069 436.895C431.138 436.961 431.276 436.928 431.345 436.862C431.379 436.796 431.414 436.763 431.483 436.731C431.621 436.599 431.828 436.566 432.034 436.566L432.828 436.533C433.034 436.533 433.655 436.468 433.828 436.435H433.862C433.931 436.435 434.034 436.402 434.138 436.369C434.517 436.303 434.966 436.205 435.31 436.369C435.655 436.533 435.621 436.895 435.586 437.224C435.586 437.355 435.552 437.487 435.552 437.618C435.552 437.684 435.552 437.749 435.552 437.815C435.552 438.111 435.552 438.374 435.517 438.571L435.552 438.735C435.552 438.735 435.552 438.735 435.552 438.768C435.586 438.9 435.759 438.998 435.862 438.9C436.138 438.735 436.414 438.538 436.517 438.407V438.374C436.517 438.341 436.552 438.275 436.586 438.144C436.621 437.848 436.69 437.289 436.69 436.139C436.69 436.073 436.69 436.04 436.69 436.008C436.69 435.58 436.69 435.219 436.655 434.923C436.621 434.298 436.586 433.805 436.931 433.312C437.241 432.82 437.552 432.655 437.862 432.458C438.207 432.261 438.586 432.031 439.241 431.176C439.552 430.749 439.586 430.585 439.621 430.453C439.69 430.124 439.793 429.927 440.31 429.599C440.724 429.303 441.931 428.415 443.586 428.678C444.138 428.777 445 429.04 445.897 429.369C445.931 429.369 445.966 429.401 446 429.401H446.034C446.828 429.697 447.552 430.026 448.069 430.289C448.172 430.355 448.31 430.322 448.414 430.223C448.586 430.026 448.759 429.927 448.931 429.796C449 429.763 449.069 429.73 449.103 429.697C449.138 429.697 449.138 429.664 449.138 429.664C449.276 429.566 449.276 429.303 449.103 429.237C446.793 428.152 444.586 427.495 443.862 427.298ZM427.241 427.791C426.69 430.026 423.034 432.524 421.379 432.524H421.345C421.31 432.524 421.276 432.524 421.276 432.524C421.241 432.524 421.207 432.524 421.172 432.491C421.138 432.491 421.138 432.491 421.103 432.491C420.793 432.392 420.379 432.195 420.069 431.899C419.862 431.702 419.69 431.439 419.621 431.209C419.621 431.176 419.586 431.11 419.586 431.078C419.483 430.683 419.379 430.223 419.724 429.434C419.759 429.336 419.828 429.237 419.862 429.138C419.862 429.106 419.897 429.073 419.897 429.04C419.931 428.941 419.966 428.876 420 428.81C420.034 428.678 420.103 428.58 420.138 428.514C420.138 428.481 420.172 428.448 420.172 428.415C420.276 428.152 420.276 428.054 420.31 427.955C420.31 427.89 420.345 427.758 420.379 427.627C420.483 427.199 420.552 426.838 420.586 426.542C420.655 425.983 420.759 425.49 421.069 425.03C421.138 424.964 421.172 424.899 421.241 424.833C421.276 424.8 421.276 424.8 421.31 424.767C421.345 424.734 421.345 424.734 421.379 424.702C421.448 424.636 421.552 424.603 421.621 424.57C421.655 424.57 421.69 424.537 421.724 424.537C421.793 424.504 421.862 424.504 421.931 424.471C422.241 424.406 422.586 424.406 423 424.439C423.448 424.471 423.862 424.537 424.207 424.636C424.517 424.702 424.793 424.8 425 424.899C425.034 424.899 425.034 424.932 425.069 424.932C425.103 424.964 425.138 424.964 425.207 424.997C425.276 425.03 425.31 425.03 425.379 425.063C425.448 425.096 425.517 425.129 425.586 425.162L425.655 425.194C425.897 425.293 426.138 425.425 426.31 425.556C426.414 425.622 426.483 425.687 426.552 425.753C426.586 425.786 426.621 425.786 426.621 425.819C426.655 425.852 426.655 425.852 426.69 425.885C427.414 426.476 427.379 427.298 427.241 427.791ZM428.966 419.279L428.897 419.673C428.724 420.593 428.345 421.842 426.966 422.171C425.621 422.467 425.31 422.532 424.379 422.598C424.345 422.598 424.345 422.598 424.31 422.598C423.621 422.598 422.276 422.171 422.034 421.152C421.897 420.495 422.207 420.002 422.69 419.213C422.759 419.081 422.862 418.95 422.966 418.786C423.655 417.701 423.897 416.912 424.103 416.288C424.31 415.663 424.483 415.17 424.931 414.743C425.034 414.644 425.138 414.546 425.276 414.48C425.345 414.414 425.448 414.381 425.552 414.316C425.69 414.25 425.828 414.217 425.966 414.151C426.276 414.053 426.621 414.02 426.931 414.02C427.586 414.02 428.241 414.184 428.69 414.546C428.897 414.71 429.207 415.006 429.379 415.959C429.448 416.452 429.31 417.339 428.966 419.279ZM438.862 421.908C438.379 422.697 438.138 423.124 437.724 423.453C436.897 424.11 435.966 424.241 435.172 424.241C434.621 424.241 434.138 424.143 433.828 424.11C433 423.978 431.517 423.716 431 422.565C430.897 422.335 430.897 422.204 430.897 422.006C430.897 421.842 430.897 421.513 430.793 420.823V420.79C430.759 420.462 430.724 420.1 430.793 419.64V419.574C431.069 418.194 431.172 417.997 431.207 417.865C431.345 417.602 431.69 417.471 432 417.635C432.276 417.767 432.379 418.095 432.276 418.358C432.241 418.424 432.172 418.72 431.931 419.804V419.87C431.862 420.166 431.897 420.396 431.931 420.692V420.725C432.034 421.513 432.034 421.842 432.034 422.039C432.034 422.072 432.034 422.105 432.034 422.138V422.171C432.138 422.401 432.345 422.532 432.586 422.664C432.759 422.73 432.931 422.598 432.897 422.434C432.655 421.218 432.655 419.804 433.138 418.917C433.31 418.621 433.586 418.161 433.862 417.701C433.897 417.668 433.931 417.602 433.931 417.569C433.966 417.537 433.966 417.504 434 417.471C434.138 417.274 434.241 417.109 434.345 416.945C434.345 416.912 434.379 416.912 434.379 416.879L434.414 416.846C434.448 416.814 434.448 416.781 434.483 416.748C434.483 416.748 434.483 416.715 434.517 416.715L434.552 416.682C434.552 416.649 434.586 416.649 434.586 416.616C434.69 416.485 434.793 416.353 434.862 416.222C435 416.058 434.828 415.86 434.655 415.926C434.172 416.123 433.862 416.353 433.793 416.386C433.552 416.584 433.172 416.551 432.966 416.288C432.759 416.058 432.793 415.696 433.069 415.499C433.379 415.269 434.966 414.184 436.862 414.677C438.241 415.039 438.931 416.058 439.207 416.419C439.414 416.715 440.103 417.635 440.069 418.95C440.069 419.903 439.655 420.626 438.862 421.908Z" fill="black"/>
    <path d="M426.517 415.17C426.414 415.4 426.31 415.663 426.172 415.959C425.897 416.649 425.552 417.438 425.379 417.734C425.103 418.227 424.897 418.555 424.724 418.786C424.517 419.081 424.379 419.311 424.241 419.64C424.034 420.199 424 420.823 424.138 421.513C423.759 421.481 423.172 421.251 423.103 420.922C423.069 420.692 423.207 420.462 423.621 419.772C423.69 419.64 423.793 419.476 423.897 419.344C424.621 418.161 424.931 417.274 425.138 416.616C425.379 415.926 425.483 415.63 425.862 415.367C426.103 415.269 426.31 415.203 426.517 415.17Z" fill="black"/>
    <path d="M425.793 440.017C425.379 440.806 424.897 441.529 424.586 441.891C424.31 441.233 423.862 439.689 424 438.473C424 438.44 424 438.407 424 438.374C424.034 437.98 424.138 437.651 424.345 437.355C424.483 437.158 424.828 437.059 425.207 437.059C425.483 437.059 425.793 437.125 426.069 437.256C426.207 437.322 426.414 437.487 426.414 437.914C426.483 438.505 426.172 439.294 425.793 440.017Z" fill="black"/>
    <path d="M447.862 431.242C447.897 431.275 447.897 431.308 447.897 431.341C447.793 431.571 447.621 431.735 447.448 431.932C447.241 432.162 447 432.425 446.793 432.852C446.483 433.444 446.379 433.97 446.345 435.35C446.276 436.961 446.345 437.848 446.414 438.505C446.448 439.13 446.483 439.524 446.379 440.149C446.138 441.398 445.586 442.219 444.862 443.271C443.966 444.586 443.069 445.933 441.552 446.36C441.414 446.393 441.414 446.393 441 446.393C440.655 446.393 440.069 446.393 439 446.426C437 446.492 436 446.525 435.172 446.689C434.276 446.853 433.828 447.051 433.345 447.215C432.931 447.379 432.552 447.511 431.828 447.675C431.379 447.774 430.724 447.839 428.483 447.872C426.138 447.872 424.724 447.872 422.897 447.675C420.345 447.412 419.069 447.248 418.207 446.821C416.207 445.802 415.345 443.961 413.966 440.937C413.966 440.905 414 440.872 414.034 440.872C414.103 440.905 414.172 440.937 414.241 440.97C414.31 441.003 414.379 441.003 414.414 441.003C414.552 441.036 414.69 441.036 414.828 441.003C414.862 441.003 414.862 441.003 414.897 440.97C414.931 440.97 414.966 440.97 414.966 441.003C415.069 441.233 415.207 441.43 415.448 441.562C415.69 441.693 415.966 441.693 416.207 441.693C416.483 441.693 416.759 441.661 417.034 441.628C417.172 441.628 417.31 441.693 417.379 441.792C417.621 442.384 417.931 442.778 418.414 442.844C418.448 442.844 418.483 442.844 418.517 442.844C418.621 442.844 418.793 442.811 419 442.679C419.172 442.548 419.448 442.647 419.586 442.811C419.69 442.975 419.828 443.074 419.966 443.172C420.448 443.633 421.621 443.863 422.586 443.863C423.103 443.863 423.586 443.797 423.862 443.665C424.276 443.468 424.276 443.205 424.241 443.074C424.207 442.877 424.172 442.647 424.138 442.449C424.138 442.416 424.172 442.416 424.172 442.449C424.241 442.581 424.31 442.712 424.483 442.745C424.517 442.745 424.517 442.745 424.552 442.745C424.828 442.745 425.241 442.844 425.31 443.074C425.345 443.205 425.414 443.304 425.483 443.435C425.655 443.665 425.966 443.961 426.621 443.994H426.655C427.414 443.994 428 443.764 428.379 443.304C428.414 443.271 428.414 443.238 428.448 443.205C428.586 443.008 429 443.008 429.172 443.172C429.379 443.337 429.621 443.435 429.897 443.435C429.931 443.435 430 443.435 430.034 443.435C430.379 443.402 430.655 443.238 430.897 442.942C431.034 442.745 431.138 442.515 431.207 442.252C431.241 442.186 431.345 442.154 431.414 442.219C431.552 442.351 431.793 442.482 432.138 442.482C432.207 442.482 432.31 442.482 432.414 442.449C433.069 442.318 433.414 441.792 433.552 441.233C433.552 441.2 433.586 441.2 433.586 441.233C433.759 441.43 434.069 441.661 434.586 441.661C434.621 441.661 434.655 441.661 434.655 441.661C434.931 441.661 435.172 441.529 435.345 441.332C435.552 441.069 435.621 440.675 435.655 440.313C435.655 440.214 435.724 440.116 435.862 440.05C436.414 439.82 437.103 439.327 437.31 438.998C437.31 438.998 437.31 438.966 437.345 438.966C437.379 438.867 437.483 438.801 437.552 438.801C438 438.735 438.172 438.637 438.345 438.571C438.483 438.505 438.586 438.473 438.931 438.407C441.448 438.045 441.931 437.947 442.483 437.618C443.31 437.092 443.345 436.369 443.379 435.679C443.414 435.087 443.448 434.43 443.931 433.641C444.103 433.345 444.31 433.017 444.517 432.622C444.897 431.965 445.414 431.045 445.793 430.552C445.862 430.453 446 430.42 446.103 430.486C446.966 430.782 447.724 431.11 447.862 431.242Z" fill="black"/>
    <path d="M423.379 438.407C423.276 439.228 423.207 440.346 423.345 441.792C423.379 442.186 423.448 442.614 423.517 443.041C423.414 443.107 423.034 443.205 422.414 443.172C421.517 443.14 420.621 442.942 420.345 442.647L420.31 442.614C420.103 442.449 419.931 442.318 419.931 442.022C419.931 441.923 419.966 441.825 420.069 441.661C420.138 441.595 420.207 441.496 420.276 441.365C420.414 441.168 420.621 440.937 420.828 440.609C421.414 439.689 421.621 439.393 421.897 439.031C421.931 438.998 421.931 438.966 421.966 438.933C422.138 438.735 422.31 438.473 422.621 438.045C422.828 437.749 423 437.487 423.172 437.289C423.414 436.961 423.586 436.796 423.69 436.698C423.69 436.829 423.655 437.026 423.621 437.224C423.483 437.618 423.414 437.98 423.379 438.407Z" fill="black"/>
    <path d="M422.931 425.457C422.931 425.49 422.931 425.49 422.931 425.457C422.793 425.622 422.655 425.819 422.483 426.148C422.034 427.068 422.034 427.594 422.034 428.021C422.034 428.251 422.034 428.415 421.966 428.613C421.931 428.744 421.862 428.908 421.759 429.073C421.517 429.631 421.172 430.355 421.31 431.341C421.103 431.242 420.793 431.012 420.724 430.913C420.724 430.848 420.69 430.815 420.69 430.749C420.621 430.453 420.586 430.256 420.759 429.796C421.31 428.613 421.379 428.317 421.414 427.988C421.414 427.922 421.448 427.857 421.448 427.758C421.552 427.298 421.621 426.904 421.655 426.575C421.724 426.082 421.793 425.753 421.966 425.523C422.034 425.425 422.207 425.392 422.448 425.392C422.552 425.392 422.655 425.392 422.793 425.425H422.828C422.931 425.457 422.931 425.457 422.931 425.457Z" fill="black"/>
    <path d="M422.241 437.191C422.207 436.895 422.172 436.632 422.034 436.336C422.034 436.336 422 436.27 422 436.238C421.966 436.205 421.966 436.172 421.931 436.139L421.897 436.106C421.862 436.073 421.862 436.073 421.828 436.073L421.793 436.04C421.759 436.04 421.759 436.008 421.724 436.008H421.69C421.517 435.942 421.345 435.876 421.138 435.843C421.103 435.843 421.069 435.843 421.069 435.843C421.034 435.843 421.034 435.843 421 435.843H420.966C420.931 435.843 420.897 435.876 420.828 435.876C420.793 435.876 420.793 435.909 420.759 435.909L420.724 435.942C420.69 435.975 420.69 435.975 420.655 436.008L420.621 436.04V436.073C420.552 436.172 420.483 436.27 420.414 436.369C420.241 436.599 420.069 436.862 419.897 437.092C419.724 437.322 419.586 437.519 419.414 437.749C419.31 437.881 419.241 437.98 419.138 438.111C419.138 438.144 419.103 438.144 419.103 438.177C419.207 438.21 419.31 438.21 419.414 438.242C419.655 438.275 419.897 438.308 420.103 438.341C420.586 438.407 421.103 438.44 421.586 438.407C421.621 438.407 421.621 438.407 421.655 438.407C421.759 438.242 421.931 438.045 422.103 437.782C422.207 437.651 422.31 437.519 422.379 437.388C422.276 437.355 422.241 437.256 422.241 437.191Z" fill="black"/>
    <path d="M420.483 439.13C420.448 439.491 420.034 440.412 419.379 441.299C418.828 442.022 418.483 442.219 418.414 442.219C418.138 442.186 417.897 441.562 417.69 440.937C417.621 440.675 417.517 440.444 417.483 440.214C417.345 439.754 417.31 439.097 417.345 438.703C417.897 438.998 418.862 439.064 420.241 439.064C420.31 439.097 420.414 439.097 420.483 439.13Z" fill="black"/>
    <path d="M419.517 436.172C419.276 436.533 419.034 436.862 418.793 437.191C418.655 437.355 418.552 437.519 418.414 437.684C418.345 437.782 418.241 437.881 418.172 437.98C417.966 437.947 417.793 437.881 417.586 437.848C417.414 437.815 417.276 437.749 417.103 437.684C417.069 437.684 417.034 437.651 417 437.651C416.966 437.618 416.931 437.552 416.897 437.519C416.966 437.421 417 437.289 417.069 437.191C417.172 436.994 417.276 436.796 417.414 436.599C417.621 436.27 417.862 435.909 418.241 435.679C418.276 435.679 418.276 435.646 418.31 435.646C418.448 435.58 418.586 435.515 418.759 435.482C418.793 435.482 418.897 435.482 418.966 435.482H419C419 435.482 419 435.482 419.034 435.482C419.069 435.482 419.103 435.515 419.172 435.515C419.172 435.515 419.207 435.515 419.207 435.547C419.241 435.58 419.276 435.58 419.31 435.613C419.241 435.58 419.379 435.712 419.379 435.679C419.448 435.876 419.483 435.975 419.517 436.172Z" fill="black"/>
    <path d="M417.655 435.219C417.207 435.547 416.897 436.008 416.655 436.501C416.517 436.763 416.379 437.026 416.241 437.289C416.241 437.322 416.207 437.355 416.207 437.355C416.069 437.322 415.931 437.289 415.828 437.256C415.69 437.224 415.552 437.158 415.414 437.125C415.345 437.092 415.31 437.059 415.241 437.026C415.379 436.796 415.517 436.566 415.69 436.336C415.897 436.04 416.138 435.712 416.379 435.449C416.483 435.35 416.586 435.219 416.69 435.153C416.828 435.087 416.966 435.087 417.138 435.12C417.31 435.12 417.483 435.12 417.621 435.186C417.586 435.186 417.621 435.219 417.655 435.219Z" fill="black"/>
    <path d="M416.966 440.806C416.931 440.839 416.931 440.839 416.897 440.872H416.862C416.759 440.872 416.655 440.905 416.552 440.905C416.345 440.905 416.138 440.938 415.931 440.905C415.828 440.905 415.724 440.872 415.655 440.806C415.586 440.707 415.552 440.51 415.517 440.379C415.379 439.656 415.379 438.933 415.448 438.21C415.828 438.341 416.241 438.44 416.655 438.505C416.552 439.163 416.724 440.116 416.793 440.379C416.897 440.51 416.931 440.675 416.966 440.806Z" fill="black"/>
    <path d="M415.724 434.989C415.379 435.383 415.069 435.81 414.793 436.27C414.69 436.435 414.552 436.632 414.448 436.829C414.31 436.796 414.172 436.731 414.069 436.665C413.966 436.599 413.862 436.533 413.793 436.468C413.759 436.435 413.69 436.402 413.655 436.369C413.655 436.369 413.621 436.369 413.621 436.336C413.655 436.238 413.724 436.172 413.724 436.106C413.793 435.942 413.862 435.81 413.966 435.679C414.138 435.416 414.31 435.153 414.517 434.89C414.586 434.791 414.655 434.693 414.793 434.66C414.897 434.627 415.034 434.66 415.138 434.66C415.345 434.693 415.552 434.824 415.724 434.989Z" fill="black"/>
    <path d="M413.069 436.731C413.103 436.698 413.069 436.698 413.069 436.731C413.207 436.862 413.31 436.961 413.448 437.059C413.517 437.092 413.552 437.158 413.621 437.191C413.621 437.191 413.621 437.191 413.621 437.224C413.483 437.782 413.379 438.374 413.379 438.966C413.379 438.998 413.345 438.998 413.345 438.966C413.172 438.275 412.966 437.158 413.069 436.731Z" fill="black"/>
    <path d="M414.759 437.947C414.69 438.44 414.655 438.933 414.69 439.426C414.69 439.689 414.724 439.951 414.759 440.247C414.69 440.247 414.621 440.247 414.552 440.247H414.517H414.483C414.414 440.214 414.414 440.214 414.345 440.182C414.276 440.149 414.207 440.05 414.138 439.951C414 439.721 413.966 439.459 413.966 439.196C413.931 438.703 414 438.177 414.103 437.684C414.172 437.717 414.276 437.749 414.379 437.782C414.517 437.848 414.621 437.914 414.759 437.947Z" fill="black"/>
    <mask id="mask4_8_204" style="mask-type:luminance" maskUnits="userSpaceOnUse" x="402" y="399" width="64" height="61">
    <path d="M466 429.5C466 412.64 451.655 399 434 399C416.31 399 402 412.64 402 429.5C402 446.328 416.31 460 434 460C451.655 460 466 446.328 466 429.5Z" fill="white"/>
    </mask>
    <g mask="url(#mask4_8_204)">
    <g opacity="0.8">
    <path opacity="0.8" d="M428.345 463.582C426 463.582 423.793 463.451 421.931 463.319L421.414 463.287L420.897 463.221C420.655 463.188 420.379 463.155 420.069 463.122C418.276 462.925 414.931 462.596 411.241 460.953L410.655 460.69L410.138 460.394C403.034 456.582 400.414 450.896 398.966 447.839C398.862 447.642 398.759 447.412 398.655 447.182C397.931 445.769 397.483 444.52 397.103 443.337L397.034 443.074L396.966 442.811C395.931 439.327 395.69 436.336 396.138 433.345C396.621 430.355 397.759 427.659 399.793 424.8L400.828 423.19C401.034 422.861 401.172 422.499 401.276 422.138C402.069 418.391 403.862 415.729 404.759 414.447C405 412.902 405.414 411.391 405.966 409.912L406.034 409.682L406.138 409.452C406.138 409.419 406.172 409.353 406.207 409.254C406.621 408.104 407.552 405.442 409.931 402.615L410.828 401.629L411.759 400.841C414.103 398.803 416.931 397.291 419.966 396.436C421.655 395.943 423.414 395.648 425.207 395.549H425.379H425.621C425.931 395.549 426.241 395.516 426.517 395.516C427.621 395.516 428.724 395.615 429.828 395.779C430.517 395.878 431.207 395.812 431.862 395.549C433.759 394.793 435.724 394.3 437.759 394.037C437.931 394.004 438.069 394.004 438.207 393.971C438.517 393.939 439.034 393.873 439.655 393.807C440.724 393.709 442.379 393.577 444.138 393.577C447.621 393.577 450.621 394.004 453.31 394.892L453.552 394.957L453.759 395.023C459.69 397.159 462.69 400.15 464.862 402.747L464.966 402.878L465.276 403.141C467.241 404.587 468.897 406.395 470.207 408.4L470.621 409.024L470.966 409.682C473.862 415.302 472.931 420.527 472.586 422.467L472.552 422.565C472.31 424.011 471.897 425.425 471.379 426.805C471.172 428.12 470.862 429.434 470.414 430.683C469.655 432.918 468.517 435.054 467.069 436.961C466.241 438.078 465.276 439.163 464.241 440.116C463.862 440.445 463.621 440.905 463.552 441.398C463.517 441.693 463.448 441.989 463.414 442.285C462.552 446.623 460.586 449.647 459.759 450.863L457.31 454.216C454.345 457.732 450.828 460.033 446.586 461.282L445.552 461.578L444.448 461.775C443.172 462.005 441.897 462.103 440.586 462.103C440.414 462.103 440.241 462.103 440.034 462.103H439.966H439.759H439.517C439.034 462.103 438.552 462.202 438.069 462.334C435.241 463.188 432.138 463.582 428.345 463.582Z" stroke="url(#paint43_linear_8_204)" stroke-width="1.0554" stroke-miterlimit="10"/>
    <path opacity="0.8" d="M428.345 461.249C426.103 461.249 423.931 461.117 422.138 460.986L421.724 460.953L421.31 460.887C421.034 460.855 420.724 460.822 420.414 460.789C418.655 460.624 415.759 460.296 412.517 458.85L412.034 458.62L411.586 458.39C405.276 455.07 402.966 450.107 401.586 447.149C401.483 446.952 401.379 446.689 401.241 446.459C400.586 445.21 400.172 444.027 399.828 442.975L399.759 442.745L399.69 442.548C398.793 439.426 398.552 436.796 398.966 434.2C399.379 431.636 400.414 429.237 402.207 426.739L403.552 424.669C403.793 424.307 403.966 423.88 404.034 423.453C404.69 419.903 406.448 417.405 407.241 416.255L407.345 416.123L407.379 416.058C407.379 416.025 407.414 415.992 407.414 415.959C407.448 415.795 407.517 415.663 407.552 415.532C407.759 414.086 408.138 412.64 408.655 411.259L408.724 411.062L408.793 410.865C408.828 410.799 408.828 410.733 408.897 410.536C409.276 409.451 410.069 407.184 412.138 404.752L412.897 403.897L413.655 403.24C415.69 401.465 418.138 400.15 420.759 399.427C422.276 399 423.793 398.737 425.379 398.671H425.517H425.724C426 398.671 426.241 398.638 426.483 398.638C427.621 398.638 428.724 398.343 429.828 398.54C430.69 398.704 431.552 398.606 432.345 398.277C433.828 397.652 435.828 397.422 438.103 397.127C438.276 397.094 438.414 397.094 438.517 397.061C438.828 397.028 439.31 396.962 439.862 396.929C440.862 396.831 442.414 396.732 444.103 396.732C447.276 396.732 449.966 397.127 452.345 397.883L452.552 397.948L452.724 398.014C457.966 399.92 460.552 402.418 462.586 404.883C462.69 405.015 462.828 405.146 462.862 405.212L462.897 405.245L463.276 405.573L463.31 405.639C465.069 406.921 466.552 408.498 467.69 410.273L468.034 410.799L468.31 411.358C470.793 416.189 470.034 420.626 469.69 422.499L469.655 422.598C469.414 423.978 469.034 425.293 468.517 426.608C468.345 427.857 468.034 429.106 467.621 430.289C466.931 432.261 465.931 434.134 464.655 435.843C463.793 437.026 462.759 438.111 461.655 439.064C461.138 439.524 460.793 440.116 460.724 440.806C460.655 441.299 460.586 441.759 460.517 442.252C459.759 446.098 458.034 448.727 457.207 449.91L455.207 452.671C452.552 455.925 449.414 458.028 445.621 459.145L444.759 459.408L443.828 459.573C442.724 459.77 441.586 459.869 440.483 459.836C440.31 459.836 440.138 459.836 439.966 459.836H439.931H439.828C439.828 459.836 439.793 459.836 439.724 459.836H439.517H439.31H438.931C438.414 459.869 437.897 459.934 437.379 460.099C434.862 460.887 431.931 461.249 428.345 461.249Z" stroke="url(#paint44_linear_8_204)" stroke-width="1.0554" stroke-miterlimit="10"/>
    <path opacity="0.8" d="M428.345 458.521C426.207 458.521 424.103 458.39 422.345 458.258L422 458.225L421.655 458.192C421.345 458.159 421 458.127 420.655 458.094C419 457.929 416.483 457.666 413.655 456.385L413.276 456.22L412.931 456.023C407.517 453.131 405.517 448.858 404.207 446.032C404.103 445.802 403.966 445.506 403.862 445.276C403.276 444.158 402.897 443.107 402.586 442.121L402.517 441.956L402.483 441.792C401.69 439.097 401.483 436.796 401.828 434.627C402.172 432.425 403.103 430.355 404.69 428.152L404.897 427.89L405.103 427.627C405.241 427.462 405.345 427.298 405.483 427.166L406.276 425.753C406.552 425.293 406.724 424.8 406.793 424.274C407.31 421.119 408.897 418.851 409.621 417.8C409.655 417.734 409.724 417.668 409.759 417.635L409.931 417.405C410 417.274 410.069 417.109 410.138 416.912C410.207 416.715 410.31 416.419 410.379 416.156C410.552 414.809 410.897 413.494 411.379 412.212L411.448 412.048L411.517 411.884C411.552 411.752 411.621 411.654 411.69 411.423C412.034 410.405 412.69 408.531 414.448 406.494L415.034 405.803L415.655 405.277C417.379 403.766 419.448 402.681 421.69 402.024C423 401.662 424.31 401.432 425.69 401.366H425.793H425.966C426.172 401.366 426.379 401.366 426.621 401.366C427.793 401.366 428.931 401.498 430.069 401.794C431.034 402.024 432.069 401.925 432.966 401.498C434.414 400.841 436.345 400.117 438.586 399.855C438.724 399.822 438.862 399.822 438.966 399.789C439.241 399.756 439.69 399.69 440.241 399.657C441.172 399.559 442.655 399.46 444.207 399.46C447.034 399.46 449.414 399.789 451.517 400.479L451.655 400.545L451.793 400.61C456.621 402.352 458.759 404.62 460.414 406.625C460.793 407.052 460.828 407.118 461.069 407.348L461.379 407.611L461.483 407.742C462.276 408.334 463.897 409.55 465.31 411.752L465.586 412.179L465.828 412.607C467.931 416.649 467.276 420.33 466.966 422.105L466.931 422.204C466.724 423.485 466.345 424.767 465.793 425.983V426.082C465.655 427.232 465.379 428.383 465 429.467C464.414 431.209 463.552 432.82 462.414 434.298C461.483 435.58 460.345 436.731 459.069 437.717C458.759 437.947 458.517 438.242 458.345 438.571C458.172 438.9 458.069 439.261 458.034 439.623C458 440.346 457.897 441.069 457.759 441.792C457.103 445.112 455.586 447.412 454.828 448.563L453.276 450.732C450.966 453.69 448.207 455.596 444.862 456.582L444.172 456.779L443.414 456.911C442.483 457.075 441.517 457.141 440.552 457.141C440.414 457.141 440.241 457.141 440.069 457.141H440.034H439.862C439.828 457.141 439.759 457.141 439.586 457.141H439.414H439.276L438.483 457.173C437.931 457.206 437.379 457.272 436.862 457.469C434.483 458.192 431.759 458.521 428.345 458.521Z" stroke="url(#paint45_linear_8_204)" stroke-width="0.9894" stroke-miterlimit="10"/>
    <path opacity="0.8" d="M428.345 455.793C426.31 455.793 424.276 455.662 422.586 455.53L422.345 455.497L422.103 455.464C421.759 455.432 421.379 455.366 421.034 455.333C419.483 455.169 417.345 454.939 414.931 453.887L414.655 453.755L414.379 453.624C409.793 451.159 408.103 447.544 406.862 444.914C406.724 444.651 406.586 444.356 406.483 444.093C405.966 443.074 405.621 442.121 405.345 441.299L405.31 441.168L405.207 441.069C403.862 436.533 404.379 433.345 407 429.697L407.138 429.5L407.276 429.303C407.448 429.106 407.621 428.876 407.793 428.678C408.034 428.383 408.276 428.054 408.552 427.758C408.724 427.561 408.862 427.331 408.966 427.101L409.276 426.378C409.414 426.049 409.483 425.72 409.517 425.392C409.793 422.467 411.276 420.363 412 419.311C412.069 419.246 412.138 419.114 412.172 419.081L412.345 418.818L412.414 418.753C412.517 418.588 412.69 418.194 412.828 417.8C412.897 417.537 413.034 417.109 413.172 416.748V416.715C413.31 415.499 413.621 414.283 414.069 413.133L414.103 413.034L414.138 412.935C414.207 412.738 414.276 412.574 414.345 412.344C414.655 411.456 415.172 409.945 416.586 408.268L417.034 407.742L417.483 407.348C420.828 404.456 424.552 404.226 425.793 404.127H425.862H426C426.172 404.127 426.345 404.127 426.517 404.127C428 404.127 429.448 404.423 430.828 404.982C431.069 405.08 431.345 405.113 431.586 405.113C431.862 405.113 432.103 405.047 432.345 404.916C433.621 404.226 435.931 402.944 438.897 402.615C439.034 402.582 439.172 402.582 439.276 402.582C439.552 402.55 439.966 402.517 440.448 402.451C441.345 402.385 442.69 402.287 444.138 402.287C446.655 402.287 448.724 402.582 450.483 403.141L450.586 403.174L450.69 403.207C454.828 404.686 456.586 406.559 458.069 408.334C458.448 408.827 458.655 409.024 459.069 409.419L459.31 409.616L459.483 409.813L459.621 409.912C460.31 410.437 461.621 411.391 462.793 413.198L463 413.527L463.172 413.856C464.862 417.142 464.31 420.1 464.034 421.678V421.776C463.828 422.927 463.483 424.077 463 425.162L462.966 425.26C462.966 425.293 462.966 425.293 462.931 425.359C462.897 425.457 462.897 425.556 462.897 425.655L462.862 425.786C462.759 426.772 462.517 427.725 462.172 428.645C461.655 430.124 460.931 431.505 459.966 432.754C459.034 434.036 457.966 435.087 456.793 435.909C456.276 436.27 455.862 436.731 455.552 437.289C455.241 437.848 455.103 438.44 455.103 439.064C455.103 439.82 455 440.609 454.862 441.365C454.31 444.191 453.069 446.098 452.276 447.248L451.138 448.858C449.138 451.52 446.759 453.23 443.897 454.084L443.759 454.117C443.517 454.183 443.276 454.248 443.034 454.281L442.862 454.314C442.069 454.446 441.276 454.511 440.483 454.511C440.345 454.511 440.207 454.511 440.069 454.511H440.034C439.966 454.511 439.897 454.511 439.828 454.511C439.759 454.511 439.621 454.511 439.345 454.511H439.241H439.138C438.759 454.511 438.276 454.544 437.862 454.544C437.276 454.577 436.724 454.676 436.172 454.873C434.103 455.464 431.586 455.793 428.345 455.793Z" stroke="url(#paint46_linear_8_204)" stroke-width="0.9235" stroke-miterlimit="10"/>
    <path opacity="0.8" d="M428.345 453.065C426.379 453.065 424.448 452.934 422.793 452.802H422.621L422.448 452.769C422.069 452.704 421.655 452.671 421.276 452.638C419.828 452.474 418.034 452.309 416.103 451.422L415.897 451.323L415.724 451.225C411.966 449.22 410.552 446.196 409.448 443.764C409.31 443.468 409.172 443.172 409.034 442.844C408.586 441.989 408.276 441.135 408.034 440.412L408 440.313L407.966 440.214C406.862 436.468 407.241 434.101 409.379 431.143L409.483 431.012L409.586 430.88C409.759 430.65 409.931 430.453 410.103 430.223C410.655 429.533 411.207 428.843 412 428.021C412.172 427.857 412.276 427.594 412.31 427.364L412.345 426.608L412.31 426.312V426.016C412.379 423.584 413.655 421.776 414.345 420.79C414.414 420.692 414.517 420.56 414.552 420.495L414.655 420.33L414.759 420.199C414.897 420.002 415.207 419.311 415.483 418.687C415.586 418.424 415.724 417.898 415.897 417.471C415.931 417.339 415.931 417.307 415.966 417.011C416.069 415.992 416.345 414.973 416.69 414.02L416.724 413.954L416.759 413.888C416.862 413.626 416.931 413.428 417.034 413.165C417.31 412.377 417.724 411.226 418.793 409.944L419.103 409.583L419.414 409.32C421.759 407.315 424.276 406.921 426 406.822H426.069H426.138C426.276 406.822 426.379 406.822 426.517 406.822C427.966 406.822 429.724 407.48 430.655 407.907C430.862 408.005 431.103 408.071 431.345 408.071C431.586 408.071 431.828 408.038 432.069 407.973C432.655 407.775 433.207 407.545 433.724 407.282C434.897 406.625 436.828 405.573 439.241 405.31C439.379 405.277 439.483 405.277 439.586 405.277C439.828 405.245 440.207 405.212 440.69 405.146C441.517 405.08 442.759 404.982 444.103 404.982C446.276 404.982 448.069 405.212 449.517 405.705L449.586 405.738L449.655 405.77C453.103 407.019 454.483 408.433 455.793 410.043C456.207 410.569 456.517 410.93 457.138 411.456L457.276 411.588L457.414 411.719C457.552 411.851 457.69 411.949 457.828 412.048C458.414 412.475 459.414 413.231 460.276 414.612L460.414 414.809L460.517 415.039C461.793 417.504 461.379 419.837 461.138 421.218V421.316C460.966 422.269 460.69 423.19 460.276 424.077C460.172 424.307 460.103 424.537 460.034 424.8C460 424.964 459.966 425.129 459.966 425.26L459.931 425.392C459.828 426.18 459.655 426.969 459.379 427.725C458.966 428.941 458.345 430.092 457.586 431.11C456.414 432.688 455.069 433.805 453.448 434.529C453.069 434.693 452.724 434.956 452.483 435.317C452.241 435.646 452.103 436.073 452.069 436.468C452.069 436.632 452.069 436.763 452.069 436.862C452.138 438.045 452.241 439.393 451.966 440.806C451.517 443.107 450.483 444.651 449.724 445.802C449.724 445.802 446.207 450.469 443 451.422L442.655 451.52L442.276 451.586C441.655 451.685 441.034 451.751 440.379 451.751C440.276 451.751 440.138 451.751 440 451.751C439.931 451.751 439.828 451.751 439.724 451.751C439.586 451.751 439.379 451.751 439.069 451.783H439H438.931C437.69 451.816 436.552 451.849 436.207 451.915C436.034 451.948 435.862 451.981 435.69 452.046C434 452.737 431.621 453.065 428.345 453.065Z" stroke="url(#paint47_linear_8_204)" stroke-width="0.8575" stroke-miterlimit="10"/>
    <path opacity="0.8" d="M428.345 450.37C426.483 450.37 424.621 450.239 423.034 450.14H422.966H422.897C422.448 450.074 422.034 450.041 421.655 450.009C420.31 449.877 418.897 449.713 417.379 449.055L417.276 449.023L417.172 448.99C414.241 447.412 413.138 445.079 412.103 442.811C411.966 442.482 411.793 442.154 411.621 441.825C411.276 441.168 411 440.444 410.793 439.754V439.721V439.689C409.897 436.698 410.138 435.186 411.793 432.885L411.828 432.819L411.862 432.754C412.069 432.524 412.241 432.294 412.414 432.096C413.207 431.11 413.897 430.256 415.448 428.876C415.552 428.777 415.655 428.645 415.69 428.481C415.724 428.35 415.724 428.185 415.655 428.054L415.379 427.298C415.31 427.068 415.276 426.805 415.276 426.575V426.378V426.213C415.345 424.57 416.241 423.288 416.828 422.434C416.931 422.302 417 422.171 417.069 422.072L417.138 421.974L417.207 421.875C417.517 421.481 418.034 420.33 418.31 419.64C418.379 419.41 418.552 418.851 418.724 418.424C418.828 418.095 418.897 417.767 418.931 417.438C419.034 416.616 419.207 415.795 419.517 415.039V415.006V414.973C419.655 414.644 419.759 414.381 419.828 414.119C420.069 413.428 420.345 412.64 421.103 411.752L421.241 411.588L421.379 411.456C423.034 410.01 424.862 409.747 426.241 409.649H426.276H426.31C426.379 409.649 426.483 409.649 426.552 409.649C427.931 409.649 428.966 410.175 429.655 410.536L429.828 410.602H429.862C430.069 410.7 430.207 410.799 430.379 410.865C430.793 411.062 431.31 411.128 431.759 410.996C432.724 410.766 434.207 410.207 435.172 409.682H435.207C436.241 409.09 437.828 408.235 439.69 408.038C439.793 408.005 439.931 408.005 440.034 408.005C440.241 407.973 440.621 407.94 441.034 407.907C441.793 407.841 442.966 407.742 444.172 407.742C446.034 407.742 447.517 407.94 448.655 408.301H448.69H448.724C451.483 409.287 452.517 410.339 453.621 411.719C454.069 412.278 454.517 412.804 455.345 413.494L455.414 413.56L455.483 413.626C455.69 413.823 455.931 414.02 456.207 414.217C456.69 414.579 457.379 415.072 457.966 416.025L458.034 416.123L458.103 416.222C458.966 417.931 458.69 419.541 458.483 420.758V420.856C458.345 421.612 458.138 422.335 457.793 423.058C457.621 423.453 457.483 423.88 457.414 424.307C457.379 424.57 457.345 424.767 457.31 424.932L457.276 425.063C457.207 425.687 457.069 426.279 456.862 426.871C456.552 427.824 456.069 428.711 455.448 429.533C454.414 430.979 453.241 431.866 451.69 432.326C450.931 432.557 450.31 433.017 449.897 433.641L449.759 433.805L449.621 433.97C449.241 434.397 449.345 436.04 449.414 437.026C449.483 438.111 449.552 439.228 449.345 440.28C449 442.088 448.172 443.304 447.448 444.356C447.448 444.356 444.759 448.069 442.31 448.76L442.138 448.825L441.966 448.858C441.517 448.924 441.034 448.99 440.552 448.99C440.448 448.99 440.345 448.99 440.207 448.99C440.103 448.99 440 448.99 439.862 448.99C439.69 448.99 439.448 448.99 439.034 449.023H439H438.966C437.345 449.088 436.345 449.121 435.793 449.22C435.414 449.286 435.069 449.384 434.724 449.516C433.241 450.074 431.241 450.37 428.345 450.37Z" stroke="url(#paint48_linear_8_204)" stroke-width="0.8575" stroke-miterlimit="10"/>
    </g>
    </g>
    </g>
    <path d="M498.562 182.5L501.197 160.101C501.366 158.664 502.216 157.396 503.481 156.694L518.11 148.566C518.779 148.195 519.531 148 520.296 148H544.103C544.925 148 545.732 148.225 546.435 148.652L559.62 156.642C560.822 157.371 561.615 158.62 561.762 160.019L562.503 167.052L562.504 167.067L562.507 167.082L564.91 181.5H561.958L560.395 163.524C560.148 160.681 557.769 158.5 554.916 158.5H507.796C504.848 158.5 502.424 160.825 502.301 163.771L501.52 182.5H498.562Z" fill="black" stroke="url(#paint49_linear_8_204)"/>
    <path d="M566.5 179.5C566.5 181.096 564.998 182.5 563 182.5C561.002 182.5 559.5 181.096 559.5 179.5C559.5 177.904 561.002 176.5 563 176.5C564.998 176.5 566.5 177.904 566.5 179.5Z" fill="black" stroke="url(#paint50_linear_8_204)"/>
    <path d="M503.5 179.5C503.5 181.096 501.998 182.5 500 182.5C498.002 182.5 496.5 181.096 496.5 179.5C496.5 177.904 498.002 176.5 500 176.5C501.998 176.5 503.5 177.904 503.5 179.5Z" fill="black" stroke="url(#paint51_linear_8_204)"/>
    <path d="M532.007 190L532 190L531.992 190L502.61 190.445C500.667 190.475 498.925 189.254 498.289 187.418L496.938 183.514C496.729 182.911 496.925 182.241 497.427 181.845L501.258 178.827C501.526 178.616 501.857 178.503 502.198 178.506L560.418 178.977C560.701 178.979 560.978 179.061 561.216 179.214L565.681 182.08C566.162 182.39 566.426 182.946 566.36 183.515L566.022 186.45C565.757 188.746 563.796 190.468 561.485 190.434L532.007 190Z" fill="black" stroke="url(#paint52_linear_8_204)"/>
    </g>
    <defs>
    <linearGradient id="paint0_linear_8_204" x1="nan" y1="nan" x2="nan" y2="nan" gradientUnits="userSpaceOnUse">
    <stop stop-color="#FDFF9B"/>
    <stop offset="0.5" stop-color="#50FBD9"/>
    <stop offset="1" stop-color="#106857"/>
    </linearGradient>
    <linearGradient id="paint1_linear_8_204" x1="471.827" y1="64" x2="471.827" y2="217" gradientUnits="userSpaceOnUse">
    <stop stop-color="#FDFF9B"/>
    <stop offset="1" stop-color="#50FBD9"/>
    </linearGradient>
    <linearGradient id="paint2_linear_8_204" x1="596.785" y1="47" x2="596.785" y2="218.813" gradientUnits="userSpaceOnUse">
    <stop stop-color="#FDFF9B"/>
    <stop offset="1" stop-color="#50FBD9"/>
    </linearGradient>
    <linearGradient id="paint3_linear_8_204" x1="516.515" y1="76" x2="516.515" y2="157.5" gradientUnits="userSpaceOnUse">
    <stop stop-color="#FDFF9B"/>
    <stop offset="1" stop-color="#50FBD9"/>
    </linearGradient>
    <linearGradient id="paint4_linear_8_204" x1="565.669" y1="109.5" x2="565.669" y2="160.553" gradientUnits="userSpaceOnUse">
    <stop stop-color="#FDFF9B"/>
    <stop offset="1" stop-color="#50FBD9"/>
    </linearGradient>
    <linearGradient id="paint5_linear_8_204" x1="586.49" y1="91" x2="586.49" y2="213.055" gradientUnits="userSpaceOnUse">
    <stop stop-color="#FDFF9B"/>
    <stop offset="1" stop-color="#50FBD9"/>
    </linearGradient>
    <linearGradient id="paint6_linear_8_204" x1="487.257" y1="158" x2="487.257" y2="211.5" gradientUnits="userSpaceOnUse">
    <stop stop-color="#FDFF9B"/>
    <stop offset="1" stop-color="#50FBD9"/>
    </linearGradient>
    <linearGradient id="paint7_linear_8_204" x1="526.5" y1="17" x2="526.5" y2="52" gradientUnits="userSpaceOnUse">
    <stop stop-color="#FDFF9B"/>
    <stop offset="0.5" stop-color="#50FBD9"/>
    <stop offset="1" stop-color="#0A4941"/>
    </linearGradient>
    <linearGradient id="paint8_linear_8_204" x1="530.5" y1="13.5" x2="530.5" y2="58" gradientUnits="userSpaceOnUse">
    <stop stop-color="#FDFF9B"/>
    <stop offset="1" stop-color="#50FBD9"/>
    </linearGradient>
    <linearGradient id="paint9_linear_8_204" x1="585.046" y1="181.27" x2="585.046" y2="217.963" gradientUnits="userSpaceOnUse">
    <stop stop-color="#FDFF9B"/>
    <stop offset="1" stop-color="#50FBD9"/>
    </linearGradient>
    <linearGradient id="paint10_linear_8_204" x1="532.316" y1="146" x2="532.316" y2="160.809" gradientUnits="userSpaceOnUse">
    <stop stop-color="#FDFF9B"/>
    <stop offset="0.5" stop-color="#1ABC9C"/>
    <stop offset="1" stop-color="#106857"/>
    </linearGradient>
    <linearGradient id="paint11_linear_8_204" x1="566.924" y1="190.428" x2="561.401" y2="190.428" gradientUnits="userSpaceOnUse">
    <stop stop-color="#106857"/>
    <stop offset="1" stop-color="#1ABC9C"/>
    </linearGradient>
    <linearGradient id="paint12_linear_8_204" x1="498.628" y1="198.944" x2="498.628" y2="181.913" gradientUnits="userSpaceOnUse">
    <stop stop-color="#106857"/>
    <stop offset="1" stop-color="#1ABC9C"/>
    </linearGradient>
    <linearGradient id="paint13_linear_8_204" x1="501.39" y1="184.505" x2="561.401" y2="184.505" gradientUnits="userSpaceOnUse">
    <stop stop-color="#FDFF9B"/>
    <stop offset="0.5" stop-color="#50FBD9"/>
    <stop offset="1" stop-color="#106857"/>
    </linearGradient>
    <linearGradient id="paint14_linear_8_204" x1="469.964" y1="330.255" x2="538.538" y2="342.279" gradientUnits="userSpaceOnUse">
    <stop stop-color="#FDFF9B"/>
    <stop offset="0.5" stop-color="#1ABC9C"/>
    <stop offset="1" stop-color="#106857"/>
    </linearGradient>
    <linearGradient id="paint15_linear_8_204" x1="472.304" y1="249.851" x2="593.8" y2="249.851" gradientUnits="userSpaceOnUse">
    <stop stop-color="#FDFF9B"/>
    <stop offset="0.5" stop-color="#50FBD9"/>
    <stop offset="1" stop-color="#1ABC9C"/>
    </linearGradient>
    <linearGradient id="paint16_linear_8_204" x1="531.764" y1="308.534" x2="531.764" y2="315.198" gradientUnits="userSpaceOnUse">
    <stop stop-color="#106857"/>
    <stop offset="1" stop-color="#1ABC9C"/>
    </linearGradient>
    <linearGradient id="paint17_linear_8_204" x1="490.897" y1="270.955" x2="575.76" y2="270.955" gradientUnits="userSpaceOnUse">
    <stop stop-color="#FDFF9B"/>
    <stop offset="0.5" stop-color="#50FBD9"/>
    <stop offset="1" stop-color="#1ABC9C"/>
    </linearGradient>
    <linearGradient id="paint18_linear_8_204" x1="455" y1="311.68" x2="610" y2="311.68" gradientUnits="userSpaceOnUse">
    <stop stop-color="#FDFF9B"/>
    <stop offset="0.5" stop-color="#50FBD9"/>
    <stop offset="1" stop-color="#1ABC9C"/>
    </linearGradient>
    <linearGradient id="paint19_linear_8_204" x1="520.664" y1="189.688" x2="520.664" y2="184.134" gradientUnits="userSpaceOnUse">
    <stop offset="0.24" stop-color="#50FBD9"/>
    <stop offset="0.675"/>
    </linearGradient>
    <linearGradient id="paint20_linear_8_204" x1="506.176" y1="316.864" x2="559.192" y2="316.864" gradientUnits="userSpaceOnUse">
    <stop stop-color="#FDFF9B"/>
    <stop offset="0.5" stop-color="#50FBD9"/>
    <stop offset="1" stop-color="#1ABC9C"/>
    </linearGradient>
    <linearGradient id="paint21_linear_8_204" x1="532.354" y1="202.343" x2="532.353" y2="181.984" gradientUnits="userSpaceOnUse">
    <stop stop-color="#1ABC9C"/>
    <stop offset="0.492422"/>
    </linearGradient>
    <linearGradient id="paint22_linear_8_204" x1="532.132" y1="198.944" x2="532.132" y2="205.238" gradientUnits="userSpaceOnUse">
    <stop stop-color="#1ABC9C"/>
    <stop offset="1" stop-color="#106857"/>
    </linearGradient>
    <linearGradient id="paint23_linear_8_204" x1="542.495" y1="189.557" x2="542.495" y2="184.004" gradientUnits="userSpaceOnUse">
    <stop offset="0.24" stop-color="#50FBD9"/>
    <stop offset="0.675"/>
    </linearGradient>
    <linearGradient id="paint24_linear_8_204" x1="490.344" y1="292.613" x2="573.367" y2="292.613" gradientUnits="userSpaceOnUse">
    <stop stop-color="#FDFF9B"/>
    <stop offset="0.5" stop-color="#50FBD9"/>
    <stop offset="1" stop-color="#1ABC9C"/>
    </linearGradient>
    <linearGradient id="paint25_linear_8_204" x1="506.084" y1="166.363" x2="506.084" y2="175.989" gradientUnits="userSpaceOnUse">
    <stop stop-color="#50FBD9"/>
    <stop offset="1" stop-color="#1ABC9C"/>
    </linearGradient>
    <linearGradient id="paint26_linear_8_204" x1="536.55" y1="169.88" x2="547.963" y2="169.88" gradientUnits="userSpaceOnUse">
    <stop stop-color="#50FBD9"/>
    <stop offset="1" stop-color="#106857"/>
    </linearGradient>
    <linearGradient id="paint27_linear_8_204" x1="520.719" y1="147.111" x2="520.719" y2="153.034" gradientUnits="userSpaceOnUse">
    <stop stop-color="#FDFF9B"/>
    <stop offset="1" stop-color="#50FBD9"/>
    </linearGradient>
    <linearGradient id="paint28_linear_8_204" x1="533.294" y1="364.364" x2="533.294" y2="415.415" gradientUnits="userSpaceOnUse">
    <stop stop-color="#7ADBF0"/>
    <stop offset="1" stop-color="#98CDAA"/>
    </linearGradient>
    <linearGradient id="paint29_linear_8_204" x1="641.314" y1="425.897" x2="461.596" y2="425.897" gradientUnits="userSpaceOnUse">
    <stop stop-color="#7ADBF0"/>
    <stop offset="1" stop-color="#7CD299"/>
    </linearGradient>
    <linearGradient id="paint30_linear_8_204" x1="641.314" y1="425.897" x2="461.596" y2="425.897" gradientUnits="userSpaceOnUse">
    <stop stop-color="#7ADBF0"/>
    <stop offset="1" stop-color="#7CD299"/>
    </linearGradient>
    <linearGradient id="paint31_linear_8_204" x1="641.314" y1="425.897" x2="461.596" y2="425.897" gradientUnits="userSpaceOnUse">
    <stop stop-color="#7ADBF0"/>
    <stop offset="1" stop-color="#7CD299"/>
    </linearGradient>
    <linearGradient id="paint32_linear_8_204" x1="101.706" y1="21.3641" x2="101.706" y2="72.415" gradientUnits="userSpaceOnUse">
    <stop stop-color="#7ADBF0"/>
    <stop offset="1" stop-color="#98CDAA"/>
    </linearGradient>
    <linearGradient id="paint33_linear_8_204" x1="-6.3141" y1="82.8969" x2="173.404" y2="82.8969" gradientUnits="userSpaceOnUse">
    <stop stop-color="#7ADBF0"/>
    <stop offset="1" stop-color="#7CD299"/>
    </linearGradient>
    <linearGradient id="paint34_linear_8_204" x1="-6.31408" y1="82.8969" x2="173.404" y2="82.8969" gradientUnits="userSpaceOnUse">
    <stop stop-color="#7ADBF0"/>
    <stop offset="1" stop-color="#7CD299"/>
    </linearGradient>
    <linearGradient id="paint35_linear_8_204" x1="-6.31412" y1="82.8969" x2="173.404" y2="82.8969" gradientUnits="userSpaceOnUse">
    <stop stop-color="#7ADBF0"/>
    <stop offset="1" stop-color="#7CD299"/>
    </linearGradient>
    <linearGradient id="paint36_linear_8_204" x1="441" y1="68.6522" x2="441" y2="97.6739" gradientUnits="userSpaceOnUse">
    <stop stop-color="#FDFF9B"/>
    <stop offset="1" stop-color="#50FBD9"/>
    </linearGradient>
    <linearGradient id="paint37_linear_8_204" x1="439.5" y1="73" x2="439.5" y2="95" gradientUnits="userSpaceOnUse">
    <stop stop-color="#FDFF9B"/>
    <stop offset="0.5" stop-color="#50FBD9"/>
    <stop offset="1" stop-color="#0A4941"/>
    </linearGradient>
    <linearGradient id="paint38_linear_8_204" x1="614.5" y1="20" x2="614.5" y2="42" gradientUnits="userSpaceOnUse">
    <stop stop-color="#FDFF9B"/>
    <stop offset="0.5" stop-color="#50FBD9"/>
    <stop offset="1" stop-color="#0A4941"/>
    </linearGradient>
    <linearGradient id="paint39_linear_8_204" x1="616" y1="15.6522" x2="616" y2="44.6739" gradientUnits="userSpaceOnUse">
    <stop stop-color="#FDFF9B"/>
    <stop offset="1" stop-color="#50FBD9"/>
    </linearGradient>
    <linearGradient id="paint40_linear_8_204" x1="168" y1="137" x2="168" y2="180" gradientUnits="userSpaceOnUse">
    <stop stop-color="#FDFF9B"/>
    <stop offset="1" stop-color="#50FBD9"/>
    </linearGradient>
    <linearGradient id="paint41_linear_8_204" x1="101" y1="176" x2="101" y2="224" gradientUnits="userSpaceOnUse">
    <stop stop-color="#FDFF9B"/>
    <stop offset="1" stop-color="#2F9581"/>
    </linearGradient>
    <radialGradient id="paint42_radial_8_204" cx="0" cy="0" r="1" gradientUnits="userSpaceOnUse" gradientTransform="translate(434.001 432.686) rotate(90) scale(34.2617 35.9467)">
    <stop offset="0.1667" stop-color="#50FBD9"/>
    <stop offset="1" stop-color="#0A4941"/>
    </radialGradient>
    <linearGradient id="paint43_linear_8_204" x1="397.519" y1="392.142" x2="467.16" y2="468.83" gradientUnits="userSpaceOnUse">
    <stop offset="0.2057" stop-color="#50FBD9"/>
    <stop offset="0.3984" stop-color="#FDFF9B"/>
    <stop offset="0.6015" stop-color="#2F9581"/>
    <stop offset="0.8411" stop-color="#0A4941"/>
    </linearGradient>
    <linearGradient id="paint44_linear_8_204" x1="400.362" y1="395.298" x2="464.551" y2="466.271" gradientUnits="userSpaceOnUse">
    <stop offset="0.2057" stop-color="#50FBD9"/>
    <stop offset="0.3984" stop-color="#EBBF9A"/>
    <stop offset="0.6015" stop-color="#106857"/>
    <stop offset="0.8411" stop-color="#0A4941"/>
    </linearGradient>
    <linearGradient id="paint45_linear_8_204" x1="403.233" y1="398.027" x2="461.969" y2="463.283" gradientUnits="userSpaceOnUse">
    <stop offset="0.2057" stop-color="#50FBD9"/>
    <stop offset="0.3984" stop-color="#FDFF9B"/>
    <stop offset="0.6015" stop-color="#1ABC9C"/>
    <stop offset="0.8411" stop-color="#106857"/>
    </linearGradient>
    <linearGradient id="paint46_linear_8_204" x1="406.101" y1="400.765" x2="459.372" y2="460.288" gradientUnits="userSpaceOnUse">
    <stop offset="0.2057" stop-color="#FDFF9B"/>
    <stop offset="0.3984" stop-color="#1ABC9C"/>
    <stop offset="0.6015" stop-color="#50FBD9"/>
    <stop offset="0.8411" stop-color="#0A4941"/>
    </linearGradient>
    <linearGradient id="paint47_linear_8_204" x1="408.952" y1="403.509" x2="456.768" y2="457.294" gradientUnits="userSpaceOnUse">
    <stop offset="0.2057" stop-color="#FDFF9B"/>
    <stop offset="0.3984" stop-color="#50FBD9"/>
    <stop offset="0.6015" stop-color="#106857"/>
    <stop offset="0.8411" stop-color="#1ABC9C"/>
    </linearGradient>
    <linearGradient id="paint48_linear_8_204" x1="411.84" y1="406.219" x2="454.197" y2="454.287" gradientUnits="userSpaceOnUse">
    <stop offset="0.2057" stop-color="#FDFF9B"/>
    <stop offset="0.3984" stop-color="#1ABC9C"/>
    <stop offset="0.6015" stop-color="#106857"/>
    <stop offset="0.8411" stop-color="#0A4941"/>
    </linearGradient>
    <linearGradient id="paint49_linear_8_204" x1="531.75" y1="147.5" x2="531.75" y2="183" gradientUnits="userSpaceOnUse">
    <stop stop-color="#FDFF9B"/>
    <stop offset="0.5" stop-color="#50FBD9"/>
    <stop offset="1" stop-color="#106857"/>
    </linearGradient>
    <linearGradient id="paint50_linear_8_204" x1="563" y1="176" x2="563" y2="183" gradientUnits="userSpaceOnUse">
    <stop stop-color="#106857"/>
    <stop offset="0.5" stop-color="#50FBD9"/>
    <stop offset="1" stop-color="#0A4941"/>
    </linearGradient>
    <linearGradient id="paint51_linear_8_204" x1="500" y1="176" x2="500" y2="183" gradientUnits="userSpaceOnUse">
    <stop stop-color="#106857"/>
    <stop offset="0.5" stop-color="#50FBD9"/>
    <stop offset="1" stop-color="#0A4941"/>
    </linearGradient>
    <linearGradient id="paint52_linear_8_204" x1="496" y1="184.5" x2="567" y2="184.5" gradientUnits="userSpaceOnUse">
    <stop stop-color="#FDFF9B"/>
    <stop offset="0.5" stop-color="#50FBD9"/>
    <stop offset="1" stop-color="#106857"/>
    </linearGradient>
    <clipPath id="clip0_8_204">
    <rect width="637" height="506" fill="white"/>
    </clipPath>
    <clipPath id="clip1_8_204">
    <rect width="50" height="48" fill="white" transform="translate(76 176)"/>
    </clipPath>
    <clipPath id="clip2_8_204">
    <rect width="64" height="61" fill="white" transform="translate(402 399)"/>
    </clipPath>
    </defs>
</svg>

