<svg width="120" height="120" viewBox="0 0 626 612" fill="none" xmlns="http://www.w3.org/2000/svg">
    <ellipse cx="313" cy="306" rx="313" ry="306" fill="black"/>
    <path d="M269 32C269 26.4772 273.477 22 279 22H335C340.523 22 345 26.4772 345 32V62H269V32Z" fill="url(#paint0_linear_0_1)"/>
    <rect x="386" y="119" width="15" height="46" fill="url(#paint1_linear_0_1)"/>
    <rect x="208" y="119" width="15" height="46" fill="url(#paint2_linear_0_1)"/>
    <path d="M223 54H386V198H304.5H223V54Z" fill="url(#paint3_linear_0_1)"/>
    <path d="M318.942 571.2C319.134 572.288 320.171 573.014 321.259 572.822L485.785 543.812C496.663 541.894 503.926 531.521 502.008 520.643L498.192 499L312 531.831L318.942 571.2Z" fill="url(#paint4_linear_0_1)"/>
    <path d="M320.539 571.2C320.347 572.288 319.31 573.014 318.222 572.822L153.696 543.812C142.818 541.894 135.555 531.521 137.473 520.643L141.289 499L327.481 531.831L320.539 571.2Z" fill="url(#paint5_linear_0_1)"/>
    <path d="M144 248C144 220.386 166.386 198 194 198H424C451.614 198 474 220.386 474 248V372C474 391.33 458.33 407 439 407H179C159.67 407 144 391.33 144 372V248Z" fill="url(#paint6_linear_0_1)"/>
    <rect x="199" y="461" width="213" height="18" fill="url(#paint7_linear_0_1)"/>
    <path d="M390 139L396 144V154H390V139Z" fill="black"/>
    <path d="M208 355H425L418 364H194.5L208 355Z" fill="black"/>
    <path d="M220.958 193.481C221.626 193.173 222.388 193.137 223.083 193.381L303 221.5L386.451 193.186C386.808 193.065 387.194 193.058 387.556 193.167V193.167C389.139 193.642 389.316 195.812 387.831 196.537L317.183 231.068C308.225 235.446 297.757 235.483 288.768 231.169L220.919 198.601C218.761 197.565 218.784 194.484 220.958 193.481V193.481Z" fill="black"/>
    <path d="M97 457C97 429.386 119.386 407 147 407H321.271H468C495.614 407 518 429.386 518 457V512C518 523.046 509.046 532 498 532H117C105.954 532 97 523.046 97 512V457Z" fill="url(#paint8_linear_0_1)"/>
    <path d="M237.5 118.5L252.109 114.552C254.699 113.852 257.228 112.944 259.672 111.839L265.785 109.073C273.152 105.741 279.6 100.672 284.578 94.3002L285.783 92.7579C288.252 89.5975 290.332 86.1514 291.978 82.494L298.5 68L310.493 90.1414C315.379 99.1617 322.922 106.461 332.097 111.049L338.946 114.473C344.272 117.136 350.032 118.827 355.953 119.464L379.5 122L373.12 144.012C370.748 152.194 366.273 159.612 360.141 165.525V165.525C357.06 168.495 353.568 171.066 349.821 173.133V173.133C344.035 176.326 337.614 178.356 331.041 179.048L308.824 181.387C304.955 181.794 301.051 181.748 297.192 181.251L287.684 180.024C277.477 178.707 267.925 174.272 260.332 167.325L258.87 165.987C252.088 159.783 247.148 151.829 244.592 143L237.5 118.5Z" fill="black"/>
    <path d="M225 198L301.5 223.5L387 196H388.5L368 215.5L347.703 238.444C345.904 240.478 343.942 242.362 341.837 244.077L291 285.5V285.5C286.466 290.277 278.799 284.796 281.852 278.96L294.904 254.006C296.082 251.755 295.303 248.977 293.128 247.665L266.208 231.434C264.072 230.147 262.036 228.701 260.116 227.109L225 198Z" fill="black"/>
    <path d="M280.852 123.353L293.408 131.947C293.742 132.176 293.842 132.623 293.638 132.972V132.972C287.211 143.969 272.07 145.81 263.195 136.672L259.938 133.319C259.489 132.856 259.649 132.085 260.246 131.84L280.852 123.353Z" fill="url(#paint9_linear_0_1)"/>
    <rect x="236" y="476" width="144" height="15" fill="black"/>
    <path d="M310.746 488H373V483L341.873 488L308 483L310.746 488Z" fill="url(#paint10_linear_0_1)" fill-opacity="0.44"/>
    <ellipse cx="249.504" cy="486.017" rx="3.99903" ry="9.49614" transform="rotate(-89.8898 249.504 486.017)" fill="url(#paint11_linear_0_1)" fill-opacity="0.54"/>
    <path d="M299.215 148.267C301.222 140.883 311.796 141.179 313.387 148.664V148.664C313.734 150.293 314.627 151.755 315.919 152.806L319.702 155.884C322.166 157.888 321.619 161.792 318.699 163.042L317.192 163.688C310.751 166.446 303.471 166.495 296.993 163.825L294.928 162.974C291.904 161.728 291.206 157.757 293.624 155.553L296.81 152.651C297.863 151.691 298.621 150.451 298.995 149.076L299.215 148.267Z" fill="url(#paint12_linear_0_1)"/>
    <path d="M301 165H312V180.576C312 180.821 311.823 181.029 311.582 181.07L306 182L301.45 181.545C301.195 181.519 301 181.304 301 181.048V165Z" fill="url(#paint13_linear_0_1)"/>
    <path d="M163.968 329.677C163.532 332.075 160 331.757 160 329.319L160 277.711C160 264.45 165.268 251.732 174.645 242.355L199.837 217.163C201.839 215.161 205.101 215.219 207.031 217.289L219.736 230.924C221.921 233.269 221.366 237.036 218.597 238.652L195.882 251.902C183.264 259.263 174.496 271.774 171.882 286.147L163.968 329.677Z" fill="black"/>
    <path d="M438.662 328.693C439.098 331.091 442.63 330.772 442.63 328.335L442.629 276.726C442.629 263.465 437.362 250.748 427.985 241.371L402.792 216.178C400.791 214.177 397.528 214.234 395.599 216.305L382.894 229.94C380.708 232.285 381.263 236.052 384.032 237.667L406.747 250.918C419.366 258.278 428.134 270.789 430.747 285.162L438.662 328.693Z" fill="black"/>
    <path d="M329.148 123L316.592 131.595C316.258 131.823 316.158 132.27 316.362 132.619V132.619C322.789 143.617 337.93 145.457 346.805 136.32L350.062 132.966C350.511 132.503 350.351 131.733 349.754 131.487L329.148 123Z" fill="url(#paint14_linear_0_1)"/>
    <path d="M193 375H418.5L412 461H199L193 375Z" fill="black"/>
    <ellipse cx="307.5" cy="419" rx="19.5" ry="13" fill="url(#paint15_linear_0_1)" fill-opacity="0.54"/>
    <path d="M335.131 101.988C329.338 101.044 324.253 97.6037 321.222 92.5784L308.145 70.8986C307.533 69.8831 307.933 68.5609 309.006 68.0559L313.72 65.8377C314.708 65.3728 315.886 65.786 316.367 66.7659L320.971 76.1455C326.157 86.7088 334.902 95.1047 345.668 99.8556L359.5 105.96L335.131 101.988Z" fill="black"/>
    <path d="M214 139L220 144V154H214V139Z" fill="black"/>
    <g style="mix-blend-mode:multiply">
    <rect x="236" y="491" width="144" height="6" fill="black" fill-opacity="0.2"/>
    </g>
    <g style="mix-blend-mode:multiply">
    <rect x="199" y="461" width="213" height="6" fill="black" fill-opacity="0.3"/>
    </g>
    <g style="mix-blend-mode:multiply">
    <path d="M139 532H501V536H139V532Z" fill="#D9D9D9"/>
    </g>
    <g style="mix-blend-mode:multiply">
    <path d="M232.5 198H303.5H374.5L347.5 228.5L264 224.5L232.5 198Z" fill="black" fill-opacity="0.5"/>
    </g>
    <g style="mix-blend-mode:multiply">
    <path d="M430.44 317.328C431.061 319.73 434.634 319.076 434.364 316.609L431.102 286.831C429.999 276.765 425.866 267.271 419.249 259.605L401.348 238.865C399.269 236.457 395.5 236.577 393.578 239.111L388.789 245.428C387.122 247.627 387.552 250.761 389.749 252.43L405.685 264.536C414.634 271.335 421.032 280.951 423.846 291.832L430.44 317.328Z" fill="black" fill-opacity="0.3"/>
    </g>
    <g style="mix-blend-mode:multiply">
    <path d="M171.607 317.328C170.985 319.73 167.412 319.076 167.682 316.609L170.945 286.831C172.047 276.765 176.18 267.271 182.797 259.605L200.698 238.865C202.777 236.457 206.546 236.577 208.468 239.111L213.257 245.428C214.924 247.627 214.494 250.761 212.297 252.43L196.361 264.536C187.412 271.335 181.014 280.951 178.2 291.832L171.607 317.328Z" fill="black" fill-opacity="0.3"/>
    </g>
    <g style="mix-blend-mode:multiply">
    <path d="M329.5 251.5L387.5 195.5L359 254.5L287 287L329.5 251.5Z" fill="#D9D9D9"/>
    </g>
    <g style="mix-blend-mode:multiply">
    <rect x="301" y="165" width="11" height="3" fill="black" fill-opacity="0.3"/>
    </g>
    <g style="mix-blend-mode:multiply">
    <rect x="157" y="400" width="303" height="7" fill="#D9D9D9"/>
    </g>
    <g style="mix-blend-mode:multiply">
    <rect x="259" y="129" width="35" height="4" fill="black" fill-opacity="0.7"/>
    </g>
    <g style="mix-blend-mode:multiply">
    <rect x="316" y="129" width="35" height="4" fill="black" fill-opacity="0.7"/>
    </g>
    <g style="mix-blend-mode:multiply">
    <path d="M242.638 74.862C245.153 72.3473 248.375 70.6592 251.874 70.023L268.026 67.0861C270.352 66.6632 271.527 69.7836 269.5 71V71L261.481 73.7894C252.087 77.0567 244.867 84.6856 242.123 94.2449L238.111 108.218C237.485 110.396 234.244 109.751 234.5 107.5V107.5L237.687 84.7952C238.214 81.0343 239.953 77.5475 242.638 74.862V74.862Z" fill="black" fill-opacity="0.2"/>
    </g>
    <g style="mix-blend-mode:multiply">
    <path d="M331.271 103.425C323.812 102.968 317.229 98.3903 314.205 91.5563L307.591 76.6134C307.19 75.7065 307.514 74.6425 308.352 74.113L312.096 71.7485C313.194 71.0553 314.655 71.5876 315.065 72.8189V72.8189C319.704 86.7212 330.245 98.0008 343.838 103.481L345.925 104.322L331.271 103.425Z" fill="black" fill-opacity="0.2"/>
    </g>
    <g style="mix-blend-mode:lighten">
    <path d="M235.223 79.0216C235.384 76.6855 237.176 74.7904 239.5 74.5V74.5L238 78L235.5 94L234.5 101.5L233.5 104L235.223 79.0216Z" fill="url(#paint16_linear_0_1)"/>
    </g>
    <path d="M241.638 71.862C244.153 69.3473 247.375 67.6592 250.874 67.023L267.026 64.0861C269.352 63.6632 270.527 66.7836 268.5 68V68V68C254.078 73.0164 242.994 84.7292 238.78 99.4059L237.111 105.218C236.485 107.396 233.244 106.751 233.5 104.5V104.5L236.687 81.7952C237.214 78.0343 238.953 74.5475 241.638 71.862V71.862Z" fill="black"/>
    <g style="mix-blend-mode:lighten">
    <path d="M318.5 71.5L331 88.5L349.5 101.5L340 97.5L330.5 90.5L325 83.5L321.5 77.5L318.5 71.5Z" fill="url(#paint17_linear_0_1)"/>
    </g>
    <g style="mix-blend-mode:multiply">
    <path d="M273.031 37.9971C272.495 32.28 277.281 27.4801 283 28V28V28C279.381 31.2903 276.556 35.3598 274.739 39.9014L273.5 43L273.031 37.9971Z" fill="black" fill-opacity="0.3"/>
    </g>
    <g style="mix-blend-mode:lighten">
    <path d="M271.726 36.0463C270.882 30.6433 275.62 26.0218 281 27V27V27C277.432 29.5949 274.814 33.2882 273.546 37.5139L272.5 41L271.726 36.0463Z" fill="url(#paint18_linear_0_1)"/>
    </g>
    <path d="M272.031 36.9971C271.495 31.28 276.281 26.4801 282 27V27V27C278.381 30.2903 275.556 34.3598 273.739 38.9014L272.5 42L272.031 36.9971Z" fill="black"/>
    <g style="mix-blend-mode:multiply">
    <path d="M240.5 127.5V127.5C245.429 124.296 252.048 126.847 253.552 132.53L254.688 136.823C254.896 137.605 255.183 138.365 255.545 139.089L260.022 148.044C262.978 153.956 267.077 159.223 272.082 163.541L290 179L298.772 179.747C308.385 180.565 318.029 178.584 326.542 174.044L340.171 166.775C347.285 162.981 353.376 157.524 357.924 150.867L371.5 131L378 127.5L372.719 149.868C370.638 158.68 365.554 166.493 358.341 171.966V171.966C356.12 173.65 353.725 175.092 351.197 176.266L346.986 178.221C343.013 180.066 338.814 181.38 334.498 182.131L314.54 185.602C309.215 186.528 303.776 186.584 298.433 185.769L287.51 184.103C280.581 183.046 273.951 180.544 268.052 176.76L266.898 176.019C256.352 169.254 248.731 158.776 245.542 146.659L240.5 127.5Z" fill="black" fill-opacity="0.3"/>
    </g>
    <defs>
    <linearGradient id="paint0_linear_0_1" x1="307" y1="22" x2="307" y2="62" gradientUnits="userSpaceOnUse">
    <stop stop-color="#FDFF9B"/>
    <stop offset="0.5" stop-color="#1ABC9C"/>
    <stop offset="1" stop-color="#106857"/>
    </linearGradient>
    <linearGradient id="paint1_linear_0_1" x1="401" y1="142" x2="386" y2="142" gradientUnits="userSpaceOnUse">
    <stop stop-color="#106857"/>
    <stop offset="1" stop-color="#1ABC9C"/>
    </linearGradient>
    <linearGradient id="paint2_linear_0_1" x1="215.5" y1="165" x2="215.5" y2="119" gradientUnits="userSpaceOnUse">
    <stop stop-color="#106857"/>
    <stop offset="1" stop-color="#1ABC9C"/>
    </linearGradient>
    <linearGradient id="paint3_linear_0_1" x1="304.5" y1="54" x2="304.5" y2="198" gradientUnits="userSpaceOnUse">
    <stop offset="0.115" stop-color="#106857"/>
    <stop offset="0.54" stop-color="#1ABC9C"/>
    <stop offset="0.665" stop-color="#FDFF9B"/>
    <stop offset="1" stop-color="#1ABC9C"/>
    </linearGradient>
    <linearGradient id="paint4_linear_0_1" x1="501.837" y1="519.67" x2="315.645" y2="552.5" gradientUnits="userSpaceOnUse">
    <stop stop-color="#106857"/>
    <stop offset="1" stop-color="#106857"/>
    </linearGradient>
    <linearGradient id="paint5_linear_0_1" x1="137.645" y1="519.67" x2="323.837" y2="552.5" gradientUnits="userSpaceOnUse">
    <stop stop-color="#FDFF9B"/>
    <stop offset="0.5" stop-color="#1ABC9C"/>
    <stop offset="1" stop-color="#106857"/>
    </linearGradient>
    <linearGradient id="paint6_linear_0_1" x1="144" y1="302.5" x2="474" y2="302.5" gradientUnits="userSpaceOnUse">
    <stop stop-color="#FDFF9B"/>
    <stop offset="0.25" stop-color="#50FBD9"/>
    <stop offset="0.5" stop-color="#1ABC9C"/>
    <stop offset="0.75" stop-color="#1ABC9C"/>
    <stop offset="1" stop-color="#106857"/>
    </linearGradient>
    <linearGradient id="paint7_linear_0_1" x1="305.5" y1="461" x2="305.5" y2="479" gradientUnits="userSpaceOnUse">
    <stop stop-color="#106857"/>
    <stop offset="1" stop-color="#1ABC9C"/>
    </linearGradient>
    <linearGradient id="paint8_linear_0_1" x1="97" y1="469.5" x2="518" y2="469.5" gradientUnits="userSpaceOnUse">
    <stop stop-color="#FDFF9B"/>
    <stop offset="0.59" stop-color="#1ABC9C"/>
    <stop offset="0.93" stop-color="#106857"/>
    </linearGradient>
    <linearGradient id="paint9_linear_0_1" x1="275.352" y1="140" x2="275.352" y2="125" gradientUnits="userSpaceOnUse">
    <stop offset="0.24" stop-color="#50FBD9"/>
    <stop offset="0.675"/>
    </linearGradient>
    <linearGradient id="paint10_linear_0_1" x1="340.5" y1="483" x2="340.5" y2="488" gradientUnits="userSpaceOnUse">
    <stop stop-color="#FDFF9B"/>
    <stop offset="1" stop-color="#1ABC9C"/>
    </linearGradient>
    <linearGradient id="paint11_linear_0_1" x1="249.525" y1="476.521" x2="249.625" y2="495.513" gradientUnits="userSpaceOnUse">
    <stop stop-color="#FDFF9B"/>
    <stop offset="1" stop-color="#1ABC9C"/>
    </linearGradient>
    <linearGradient id="paint12_linear_0_1" x1="307.104" y1="174.182" x2="307.102" y2="119.191" gradientUnits="userSpaceOnUse">
    <stop stop-color="#1ABC9C"/>
    <stop offset="0.492422"/>
    </linearGradient>
    <linearGradient id="paint13_linear_0_1" x1="306.5" y1="165" x2="306.5" y2="182" gradientUnits="userSpaceOnUse">
    <stop stop-color="#1ABC9C"/>
    <stop offset="1" stop-color="#106857"/>
    </linearGradient>
    <linearGradient id="paint14_linear_0_1" x1="334.648" y1="139.647" x2="334.648" y2="124.647" gradientUnits="userSpaceOnUse">
    <stop offset="0.24" stop-color="#50FBD9"/>
    <stop offset="0.675"/>
    </linearGradient>
    <linearGradient id="paint15_linear_0_1" x1="307.5" y1="432" x2="307.5" y2="406" gradientUnits="userSpaceOnUse">
    <stop stop-color="#FDFF9B"/>
    <stop offset="1" stop-color="#1ABC9C"/>
    </linearGradient>
    <linearGradient id="paint16_linear_0_1" x1="235.75" y1="77" x2="235.75" y2="103" gradientUnits="userSpaceOnUse">
    <stop stop-color="#50FBD9"/>
    <stop offset="1" stop-color="#1ABC9C"/>
    </linearGradient>
    <linearGradient id="paint17_linear_0_1" x1="318.5" y1="86.5" x2="349.5" y2="86.5" gradientUnits="userSpaceOnUse">
    <stop stop-color="#50FBD9"/>
    <stop offset="1" stop-color="#106857"/>
    </linearGradient>
    <linearGradient id="paint18_linear_0_1" x1="275.5" y1="25" x2="275.5" y2="41" gradientUnits="userSpaceOnUse">
    <stop stop-color="#FDFF9B"/>
    <stop offset="1" stop-color="#50FBD9"/>
    </linearGradient>
    </defs>
</svg>