<svg width="120" height="120" viewBox="0 0 120 120" fill="none" xmlns="http://www.w3.org/2000/svg">
    <g clip-path="url(#clip0_17_960)">
    <path d="M60 118.658C93.1371 118.658 120 92.396 120 60C120 27.604 93.1371 1.34186 60 1.34186C26.8629 1.34186 0 27.604 0 60C0 92.396 26.8629 118.658 60 118.658Z" fill="black"/>
    <path d="M51.5655 7.47605C51.5655 6.41736 52.4237 5.55911 53.4824 5.55911H64.2172C65.276 5.55911 66.1342 6.41736 66.1342 7.47605V13.2268H51.5655V7.47605Z" fill="url(#paint0_linear_17_960)"/>
    <path d="M76.869 24.1534H73.9936V32.9712H76.869V24.1534Z" fill="url(#paint1_linear_17_960)"/>
    <path d="M42.7476 24.1534H39.8722V32.9712H42.7476V24.1534Z" fill="url(#paint2_linear_17_960)"/>
    <path d="M42.7476 11.6933H73.9936V39.2971H58.3706H42.7476V11.6933Z" fill="url(#paint3_linear_17_960)"/>
    <path d="M61.1391 110.837C61.1759 111.046 61.3746 111.185 61.5832 111.148L93.1217 105.587C95.207 105.219 96.5992 103.231 96.2316 101.146L95.5001 96.9968L59.8083 103.29L61.1391 110.837Z" fill="url(#paint4_linear_17_960)"/>
    <path d="M61.4452 110.837C61.4084 111.046 61.2096 111.185 61.001 111.148L29.4625 105.587C27.3772 105.219 25.985 103.231 26.3526 101.146L27.0841 96.9968L62.7759 103.29L61.4452 110.837Z" fill="url(#paint5_linear_17_960)"/>
    <path d="M27.6038 48.8818C27.6038 43.5884 31.8951 39.2971 37.1885 39.2971H81.2779C86.5714 39.2971 90.8626 43.5884 90.8626 48.8818V72.6517C90.8626 76.3572 87.8588 79.361 84.1533 79.361H34.3131C30.6077 79.361 27.6038 76.3572 27.6038 72.6517V48.8818Z" fill="url(#paint6_linear_17_960)"/>
    <path d="M78.9776 89.7125H38.147V93.1629H78.9776V89.7125Z" fill="url(#paint7_linear_17_960)"/>
    <path d="M74.7604 27.9872L75.9105 28.9457V30.8626H74.7604V27.9872Z" fill="black"/>
    <path d="M39.8722 69.393H81.4696L80.1278 71.1182H37.2843L39.8722 69.393Z" fill="black"/>
    <path d="M42.3562 38.4309C42.4842 38.3718 42.6303 38.3649 42.7635 38.4117L58.0831 43.8019L74.0801 38.3743C74.1485 38.3511 74.2225 38.3498 74.2919 38.3707C74.5953 38.4617 74.6293 38.8777 74.3446 39.0167L60.8019 45.636C59.0847 46.4753 57.078 46.4824 55.3549 45.6554L42.3487 39.4123C41.935 39.2137 41.9394 38.6231 42.3562 38.4309Z" fill="black"/>
    <path d="M18.5942 88.9457C18.5942 83.6523 22.8855 79.361 28.1789 79.361H61.5855H89.7124C95.0059 79.361 99.2971 83.6523 99.2971 88.9457V99.4888C99.2971 101.606 97.5807 103.323 95.4632 103.323H22.4281C20.3107 103.323 18.5942 101.606 18.5942 99.4888V88.9457Z" fill="url(#paint8_linear_17_960)"/>
    <path d="M45.5272 24.0575L48.3276 23.3007C48.8241 23.1665 49.3089 22.9924 49.7774 22.7806L50.9492 22.2504C52.3614 21.6117 53.5974 20.64 54.5517 19.4186L54.7827 19.1229C55.256 18.5171 55.6547 17.8565 55.9702 17.1554L57.2205 14.377L59.5194 18.6213C60.456 20.3505 61.902 21.7497 63.6608 22.6292L64.9737 23.2855C65.9946 23.796 67.0988 24.1202 68.2338 24.2423L72.7476 24.7284L71.5246 28.948C71.0699 30.5164 70.2121 31.9384 69.0366 33.0719C68.446 33.6412 67.7766 34.134 67.0583 34.5303C65.9492 35.1424 64.7183 35.5315 63.4583 35.6641L59.1995 36.1125C58.4578 36.1905 57.7095 36.1817 56.9697 36.0864L55.1471 35.8512C53.1905 35.5988 51.3594 34.7486 49.9039 33.4169L49.6236 33.1604C48.3236 31.9712 47.3766 30.4464 46.8866 28.754L45.5272 24.0575Z" fill="black"/>
    <path d="M43.131 39.2971L57.7955 44.1853L74.1853 38.9137H74.4728L70.5431 42.6518L66.6523 47.05C66.3075 47.4399 65.9314 47.801 65.5279 48.1298L55.7827 56.0703C54.9136 56.986 53.4439 55.9353 54.0291 54.8166L56.5311 50.0331C56.7569 49.6016 56.6076 49.0691 56.1907 48.8176L51.0303 45.7062C50.6208 45.4595 50.2305 45.1823 49.8625 44.8771L43.131 39.2971Z" fill="black"/>
    <path d="M53.8375 24.9878L56.2444 26.6352C56.3084 26.6791 56.3276 26.7648 56.2884 26.8317C55.0564 28.9397 52.154 29.2926 50.4527 27.541L49.8284 26.8982C49.7423 26.8095 49.773 26.6617 49.8874 26.6147L53.8375 24.9878Z" fill="url(#paint9_linear_17_960)"/>
    <path d="M72.8435 92.5879H45.2396V95.4633H72.8435V92.5879Z" fill="black"/>
    <path d="M59.5679 94.8882H71.5016V93.9297L65.5348 94.8882L59.0415 93.9297L59.5679 94.8882Z" fill="url(#paint10_linear_17_960)" fill-opacity="0.44"/>
    <path d="M49.6486 94.5116C49.6494 94.0882 48.8351 93.7434 47.8297 93.7415C46.8244 93.7395 46.0087 94.0812 46.0079 94.5045C46.0071 94.9279 46.8214 95.2727 47.8268 95.2746C48.8321 95.2766 49.6478 94.9349 49.6486 94.5116Z" fill="url(#paint11_linear_17_960)" fill-opacity="0.54"/>
    <path d="M57.3575 29.7636C57.7422 28.3482 59.7692 28.4049 60.0742 29.8397C60.1407 30.152 60.3119 30.4323 60.5595 30.6337L61.2847 31.2238C61.7571 31.6079 61.6522 32.3563 61.0925 32.5959L60.8036 32.7197C59.5689 33.2484 58.1733 33.2578 56.9316 32.746L56.5357 32.5829C55.956 32.344 55.8222 31.5828 56.2857 31.1603L56.8965 30.604C57.0983 30.42 57.2436 30.1823 57.3153 29.9187L57.3575 29.7636Z" fill="url(#paint12_linear_17_960)"/>
    <path d="M57.6997 32.9713H59.8083V35.9571C59.8083 36.004 59.7744 36.0439 59.7282 36.0518L58.6581 36.23L57.7859 36.1428C57.7371 36.1378 57.6997 36.0966 57.6997 36.0475V32.9713Z" fill="url(#paint13_linear_17_960)"/>
    <path d="M31.4316 64.5387C31.348 64.9984 30.6709 64.9374 30.6709 64.4701V54.5772C30.6709 52.0351 31.6808 49.5972 33.4783 47.7997L38.3074 42.9705C38.6912 42.5868 39.3165 42.5979 39.6865 42.9947L42.1219 45.6084C42.5408 46.058 42.4344 46.7801 41.9036 47.0898L37.5493 49.6298C35.1305 51.0408 33.4497 53.4391 32.9486 56.1943L31.4316 64.5387Z" fill="black"/>
    <path d="M84.0885 64.3501C84.1721 64.8098 84.8492 64.7486 84.8492 64.2815L84.849 54.3884C84.849 51.8463 83.8393 49.4086 82.0418 47.6111L77.2125 42.7817C76.8289 42.3982 76.2034 42.4091 75.8337 42.8061L73.3982 45.4198C72.9792 45.8693 73.0855 46.5914 73.6163 46.901L77.9707 49.4412C80.3896 50.852 82.0704 53.2503 82.5713 56.0055L84.0885 64.3501Z" fill="black"/>
    <path id="right-eye" d="M63.0955 24.9201L60.6886 26.5677C60.6246 26.6114 60.6054 26.6971 60.6445 26.764C61.8765 28.8723 64.7789 29.225 66.4802 27.4735L67.1046 26.8306C67.1906 26.7418 67.16 26.5942 67.0455 26.547L63.0955 24.9201Z" fill="url(#paint14_linear_17_960)"/>
    <path d="M36.9968 73.2268H80.2236L78.9776 89.7125H38.147L36.9968 73.2268Z" fill="black"/>
    <path d="M58.9457 84.1534C61.0101 84.1534 62.6837 83.0376 62.6837 81.6613C62.6837 80.285 61.0101 79.1693 58.9457 79.1693C56.8812 79.1693 55.2077 80.285 55.2077 81.6613C55.2077 83.0376 56.8812 84.1534 58.9457 84.1534Z" fill="url(#paint15_linear_17_960)" fill-opacity="0.54"/>
    <path d="M64.2424 20.8923C63.1319 20.7113 62.1571 20.0518 61.5761 19.0885L59.0693 14.9326C58.952 14.738 59.0287 14.4845 59.2344 14.3877L60.138 13.9625C60.3274 13.8734 60.5532 13.9526 60.6454 14.1404L61.528 15.9384C62.5221 17.9633 64.1985 19.5728 66.2622 20.4835L68.9137 21.6537L64.2424 20.8923Z" fill="black"/>
    <path d="M41.0224 27.9872L42.1725 28.9457V30.8626H41.0224V27.9872Z" fill="black"/>
    <g style="mix-blend-mode:multiply">
    <path d="M72.8435 95.4633H45.2396V96.6134H72.8435V95.4633Z" fill="black" fill-opacity="0.2"/>
    </g>
    <g style="mix-blend-mode:multiply">
    <path d="M78.9776 89.7125H38.147V90.8626H78.9776V89.7125Z" fill="black" fill-opacity="0.3"/>
    </g>
    <g style="mix-blend-mode:multiply">
    <path d="M26.6454 103.323H96.0383V104.089H26.6454V103.323Z" fill="#D9D9D9"/>
    </g>
    <g style="mix-blend-mode:multiply">
    <path d="M44.5687 39.2971H58.1789H71.7891L66.6134 45.1438L50.607 44.377L44.5687 39.2971Z" fill="black" fill-opacity="0.5"/>
    </g>
    <g style="mix-blend-mode:multiply">
    <path d="M82.5125 62.1715C82.6315 62.632 83.3164 62.5066 83.2647 62.0337L82.6394 56.3254C82.4279 54.3958 81.6357 52.5759 80.3672 51.1064L76.9357 47.1307C76.5372 46.6691 75.8147 46.6921 75.4463 47.1778L74.5282 48.3888C74.2087 48.8103 74.2911 49.4111 74.7123 49.731L77.7671 52.0516C79.4826 53.355 80.709 55.1983 81.2484 57.2841L82.5125 62.1715Z" fill="black" fill-opacity="0.3"/>
    </g>
    <g style="mix-blend-mode:multiply">
    <path d="M32.8959 62.1715C32.7767 62.632 32.0917 62.5066 32.1435 62.0337L32.769 56.3254C32.9802 54.3958 33.7725 52.5759 35.0409 51.1064L38.4724 47.1307C38.871 46.6691 39.5935 46.6921 39.9619 47.1778L40.8799 48.3888C41.1995 48.8103 41.117 49.4111 40.6959 49.731L37.6411 52.0516C35.9256 53.355 34.6992 55.1983 34.1597 57.2841L32.8959 62.1715Z" fill="black" fill-opacity="0.3"/>
    </g>
    <g style="mix-blend-mode:multiply">
    <path d="M63.163 49.5527L74.2812 38.8179L68.8179 50.1278L55.016 56.3578L63.163 49.5527Z" fill="#D9D9D9"/>
    </g>
    <g style="mix-blend-mode:multiply">
    <path d="M59.8083 32.9713H57.6997V33.5463H59.8083V32.9713Z" fill="black" fill-opacity="0.3"/>
    </g>
    <g style="mix-blend-mode:multiply">
    <path d="M88.1789 78.0192H30.0959V79.361H88.1789V78.0192Z" fill="#D9D9D9"/>
    </g>
    <g style="mix-blend-mode:multiply">
    <path d="M56.3578 26.0703H49.6486V26.8371H56.3578V26.0703Z" fill="black" fill-opacity="0.7"/>
    </g>
    <g style="mix-blend-mode:multiply">
    <path d="M67.2843 26.0703H60.5751V26.8371H67.2843V26.0703Z" fill="black" fill-opacity="0.7"/>
    </g>
    <g style="mix-blend-mode:multiply">
    <path d="M46.5121 15.6924C46.9942 15.2103 47.6118 14.8867 48.2825 14.7648L51.3788 14.2018C51.8247 14.1207 52.0499 14.7189 51.6613 14.9521L50.1241 15.4868C48.3234 16.1131 46.9393 17.5755 46.4133 19.408L45.6443 22.0865C45.5243 22.504 44.903 22.3804 44.9521 21.9489L45.563 17.5965C45.664 16.8756 45.9974 16.2072 46.5121 15.6924Z" fill="black" fill-opacity="0.2"/>
    </g>
    <g style="mix-blend-mode:multiply">
    <path d="M63.5024 21.1677C62.0726 21.0801 60.8107 20.2026 60.231 18.8926L58.9631 16.0281C58.8863 15.8543 58.9484 15.6503 59.109 15.5488L59.8267 15.0955C60.0372 14.9627 60.3172 15.0647 60.3958 15.3007C61.2851 17.9657 63.3057 20.1279 65.9114 21.1785L66.3115 21.3397L63.5024 21.1677Z" fill="black" fill-opacity="0.2"/>
    </g>
    <g style="mix-blend-mode:lighten">
    <path d="M45.0907 16.4898C45.1215 16.042 45.465 15.6787 45.9105 15.623L45.623 16.2939L45.1438 19.361L44.9521 20.7987L44.7604 21.278L45.0907 16.4898Z" fill="url(#paint16_linear_17_960)"/>
    </g>
    <path d="M46.3204 15.1173C46.8025 14.6353 47.4201 14.3117 48.0909 14.1897L51.1871 13.6267C51.633 13.5457 51.8582 14.1438 51.4696 14.377C48.705 15.3386 46.5803 17.5839 45.7725 20.3973L45.4526 21.5114C45.3326 21.9289 44.7113 21.8053 44.7604 21.3738L45.3713 17.0214C45.4723 16.3005 45.8057 15.6321 46.3204 15.1173Z" fill="black"/>
    <g style="mix-blend-mode:lighten">
    <path d="M61.0543 15.0479L63.4505 18.3067L66.9968 20.7987L65.1757 20.0319L63.3546 18.6901L62.3003 17.3482L61.6294 16.1981L61.0543 15.0479Z" fill="url(#paint17_linear_17_960)"/>
    </g>
    <g style="mix-blend-mode:multiply">
    <path d="M52.3382 8.62563C52.2354 7.5297 53.1529 6.60959 54.2492 6.70925C53.5554 7.33998 53.0139 8.12007 52.6656 8.99067L52.4281 9.58465L52.3382 8.62563Z" fill="black" fill-opacity="0.3"/>
    </g>
    <g style="mix-blend-mode:lighten">
    <path d="M52.0881 8.25168C51.9263 7.21596 52.8345 6.33005 53.8658 6.51756C53.1819 7.01499 52.68 7.72297 52.4369 8.533L52.2364 9.20127L52.0881 8.25168Z" fill="url(#paint18_linear_17_960)"/>
    </g>
    <path d="M52.1465 8.43395C52.0438 7.33802 52.9612 6.41791 54.0575 6.51757C53.3638 7.1483 52.8222 7.92839 52.4739 8.79899L52.2364 9.39297L52.1465 8.43395Z" fill="black"/>
    <g style="mix-blend-mode:multiply">
    <path d="M46.1022 25.7828C47.0471 25.1686 48.3159 25.6576 48.6042 26.747L48.822 27.5699C48.8619 27.7198 48.9169 27.8655 48.9863 28.0043L49.8445 29.7209C50.4111 30.8542 51.1969 31.8638 52.1563 32.6916L55.5911 35.655L57.2726 35.7982C59.1153 35.955 60.964 35.5752 62.5959 34.7049L65.2085 33.3115C66.5722 32.5842 67.7398 31.5382 68.6116 30.262L71.2141 26.4537L72.4601 25.7828L71.4477 30.0705C71.0488 31.7597 70.0742 33.2574 68.6916 34.3066C68.2658 34.6294 67.8067 34.9058 67.3221 35.1309L66.5149 35.5056C65.7533 35.8593 64.9484 36.1112 64.121 36.2551L60.2952 36.9205C59.2744 37.098 58.2318 37.1088 57.2076 36.9525L55.1137 36.6332C53.7855 36.4305 52.5146 35.9509 51.3838 35.2256L51.1626 35.0835C49.141 33.7867 47.6801 31.7782 47.0688 29.4554L46.1022 25.7828Z" fill="black" fill-opacity="0.3"/>
    </g>
    </g>
    <defs>
    <linearGradient id="paint0_linear_17_960" x1="58.8498" y1="5.55911" x2="58.8498" y2="13.2268" gradientUnits="userSpaceOnUse">
    <stop stop-color="#FE8019"/>
    <stop offset="0.5" stop-color="#504945"/>
    <stop offset="1" stop-color="#282828"/>
    </linearGradient>
    <linearGradient id="paint1_linear_17_960" x1="75.4313" y1="32.9712" x2="75.4313" y2="24.1534" gradientUnits="userSpaceOnUse">
    <stop stop-color="#282828"/>
    <stop offset="1" stop-color="#FE8019"/>
    </linearGradient>
    <linearGradient id="paint2_linear_17_960" x1="41.3099" y1="32.9712" x2="41.3099" y2="24.1534" gradientUnits="userSpaceOnUse">
    <stop stop-color="#282828"/>
    <stop offset="1" stop-color="#FE8019"/>
    </linearGradient>
    <linearGradient id="paint3_linear_17_960" x1="58.3706" y1="11.6933" x2="58.3706" y2="39.2971" gradientUnits="userSpaceOnUse">
    <stop offset="0.115" stop-color="#FE8019"/>
    <stop offset="0.54" stop-color="#504945"/>
    <stop offset="0.665" stop-color="#D65D0E"/>
    <stop offset="1" stop-color="#282C34"/>
    </linearGradient>
    <linearGradient id="paint4_linear_17_960" x1="96.1988" y1="100.959" x2="60.507" y2="107.252" gradientUnits="userSpaceOnUse">
    <stop stop-color="#282828"/>
    <stop offset="0.63" stop-color="#282828"/>
    </linearGradient>
    <linearGradient id="paint5_linear_17_960" x1="26.3856" y1="100.959" x2="62.0774" y2="107.252" gradientUnits="userSpaceOnUse">
    <stop stop-color="#FE8019"/>
    <stop offset="0.5" stop-color="#504945"/>
    <stop offset="1" stop-color="#282828"/>
    </linearGradient>
    <linearGradient id="paint6_linear_17_960" x1="27.6038" y1="59.3291" x2="90.8626" y2="59.3291" gradientUnits="userSpaceOnUse">
    <stop stop-color="#FE8019"/>
    <stop offset="0.33" stop-color="#D65D0E"/>
    <stop offset="0.48" stop-color="#504945"/>
    <stop offset="0.57" stop-color="#3C3836"/>
    <stop offset="1" stop-color="#282828"/>
    </linearGradient>
    <linearGradient id="paint7_linear_17_960" x1="58.5623" y1="89.7125" x2="58.5623" y2="93.1629" gradientUnits="userSpaceOnUse">
    <stop stop-color="#106857"/>
    <stop offset="1" stop-color="#1ABC9C"/>
    </linearGradient>
    <linearGradient id="paint8_linear_17_960" x1="18.5942" y1="91.3419" x2="99.2971" y2="91.3419" gradientUnits="userSpaceOnUse">
    <stop stop-color="#FE8019"/>
    <stop offset="0.43" stop-color="#D65D0E"/>
    <stop offset="0.52" stop-color="#504945"/>
    <stop offset="0.67" stop-color="#3C3836"/>
    <stop offset="1" stop-color="#282828"/>
    </linearGradient>
    <linearGradient id="paint9_linear_17_960" x1="52.7831" y1="28.1789" x2="52.7831" y2="25.3035" gradientUnits="userSpaceOnUse">
    <stop stop-color="#FFBD87"/>
    <stop offset="0.4"/>
    </linearGradient>
    <linearGradient id="paint10_linear_17_960" x1="65.2716" y1="93.9297" x2="65.2716" y2="94.8882" gradientUnits="userSpaceOnUse">
    <stop stop-color="#FE8019"/>
    <stop offset="1" stop-color="#282828"/>
    </linearGradient>
    <linearGradient id="paint11_linear_17_960" x1="46.0079" y1="94.5005" x2="49.6486" y2="94.4884" gradientUnits="userSpaceOnUse">
    <stop stop-color="#FE8019"/>
    <stop offset="1" stop-color="#282828"/>
    </linearGradient>
    <linearGradient id="paint12_linear_17_960" x1="58.8698" y1="34.7314" x2="58.8694" y2="24.19" gradientUnits="userSpaceOnUse">
    <stop stop-color="#D65D0E"/>
    <stop offset="0.492422"/>
    </linearGradient>
    <linearGradient id="paint13_linear_17_960" x1="58.754" y1="32.9713" x2="58.754" y2="36.23" gradientUnits="userSpaceOnUse">
    <stop stop-color="#282828"/>
    <stop offset="1" stop-color="#D65D0E"/>
    </linearGradient>
    <linearGradient id="paint14_linear_17_960" x1="64.1498" y1="28.1113" x2="64.1498" y2="25.2359" gradientUnits="userSpaceOnUse">
    <stop stop-color="#FFBD87"/>
    <stop offset="0.4"/>
    </linearGradient>
    <linearGradient id="paint15_linear_17_960" x1="55.2077" y1="81.6613" x2="62.6837" y2="81.6613" gradientUnits="userSpaceOnUse">
    <stop stop-color="#FE8019"/>
    <stop offset="1" stop-color="#282828"/>
    </linearGradient>
    <linearGradient id="paint16_linear_17_960" x1="45.1917" y1="16.1022" x2="45.1917" y2="21.0863" gradientUnits="userSpaceOnUse">
    <stop stop-color="#FFBD87"/>
    <stop offset="1" stop-color="#FE8019"/>
    </linearGradient>
    <linearGradient id="paint17_linear_17_960" x1="61.0543" y1="17.9233" x2="66.9968" y2="17.9233" gradientUnits="userSpaceOnUse">
    <stop stop-color="#FFBD87"/>
    <stop offset="1" stop-color="#FE8019"/>
    </linearGradient>
    <linearGradient id="paint18_linear_17_960" x1="52.8115" y1="6.13417" x2="52.8115" y2="9.20127" gradientUnits="userSpaceOnUse">
    <stop stop-color="#FFBD87"/>
    <stop offset="1" stop-color="#FE8019"/>
    </linearGradient>
    <clipPath id="clip0_17_960">
    <rect width="120" height="120" fill="white"/>
    </clipPath>
    </defs>
</svg>
