<svg width="100" height="100" viewBox="0 0 100 100" fill="none" xmlns="http://www.w3.org/2000/svg">
    <g clip-path="url(#clip0_4_77)">
    <path d="M54.81 8.91L75.15 29.05C76.88 30.76 77.73 32.49 77.7 34.24C77.67 35.98 76.93 37.58 75.47 39.02C73.95 40.53 72.31 41.3 70.55 41.33C68.79 41.36 67.05 40.51 65.31 38.8L44.51 18.2C42.15 15.86 39.87 14.2 37.67 13.23C35.48 12.26 33.17 12.11 30.75 12.77C28.33 13.43 25.73 15.14 22.95 17.9C19.11 21.7 17.28 25.27 17.47 28.61C17.66 31.95 19.56 35.4 23.18 38.99L44.15 59.76C45.9 61.49 46.76 63.22 46.73 64.94C46.7 66.66 45.95 68.26 44.47 69.72C42.99 71.18 41.37 71.95 39.59 72.01C37.82 72.07 36.06 71.23 34.31 69.5L13.99 49.36C10.68 46.08 8.29 42.98 6.82 40.06C5.35 37.14 4.8 33.83 5.18 30.14C5.52 26.98 6.54 23.92 8.22 20.95C9.91 17.98 12.32 14.95 15.45 11.84C19.18 8.14 22.74 5.31 26.14 3.34C29.54 1.37 32.82 0.27 35.99 0.0399997C39.16 -0.19 42.29 0.44 45.39 1.93C48.48 3.42 51.62 5.74 54.82 8.91H54.81Z" fill="url(#paint0_linear_4_77)"/>
    <path d="M22.92 90.19L2.58 70.05C0.850003 68.34 2.88599e-06 66.61 0.0300029 64.86C0.0600029 63.11 0.800003 61.52 2.26 60.08C3.78 58.57 5.42 57.8 7.18 57.77C8.94 57.74 10.68 58.58 12.42 60.3L33.22 80.9C35.59 83.24 37.86 84.9 40.06 85.87C42.26 86.84 44.56 86.99 46.98 86.33C49.4 85.67 52 83.96 54.78 81.2C58.62 77.4 60.45 73.83 60.26 70.49C60.07 67.15 58.17 63.69 54.55 60.11L43.38 49.14C41.63 47.41 40.77 45.68 40.8 43.96C40.83 42.24 41.58 40.64 43.06 39.18C44.54 37.72 46.16 36.95 47.94 36.89C49.71 36.83 51.47 37.67 53.22 39.4L63.75 49.74C67.06 53.02 69.45 56.12 70.92 59.04C72.39 61.96 72.94 65.27 72.56 68.96C72.22 72.12 71.2 75.18 69.52 78.15C67.83 81.12 65.42 84.15 62.29 87.26C58.56 90.96 55 93.79 51.6 95.76C48.2 97.73 44.92 98.83 41.75 99.06C38.58 99.29 35.45 98.66 32.35 97.17C29.26 95.68 26.11 93.36 22.92 90.19Z" fill="url(#paint1_linear_4_77)"/>
    <path d="M35.6 38.22C39.7256 38.22 43.07 34.8756 43.07 30.75C43.07 26.6244 39.7256 23.28 35.6 23.28C31.4744 23.28 28.13 26.6244 28.13 30.75C28.13 34.8756 31.4744 38.22 35.6 38.22Z" fill="url(#paint2_radial_4_77)"/>
    </g>
    <defs>
    <linearGradient id="paint0_linear_4_77" x1="71.8172" y1="20.5633" x2="8.78738" y2="48.5721" gradientUnits="userSpaceOnUse">
    <stop stop-color="#070100"/>
    <stop offset="0.36" stop-color="#77390D"/>
    <stop offset="0.67" stop-color="#EA8101"/>
    <stop offset="1" stop-color="#F4B852"/>
    </linearGradient>
    <linearGradient id="paint1_linear_4_77" x1="7.66724" y1="79.199" x2="80.7015" y2="57.4529" gradientUnits="userSpaceOnUse">
    <stop stop-color="#070100"/>
    <stop offset="0.37" stop-color="#77390D"/>
    <stop offset="0.67" stop-color="#EA8101"/>
    <stop offset="1" stop-color="#F4FB52"/>
    </linearGradient>
    <radialGradient id="paint2_radial_4_77" cx="0" cy="0" r="1" gradientUnits="userSpaceOnUse" gradientTransform="translate(35.59 30.76) scale(7.47)">
    <stop stop-color="#F4B852"/>
    <stop offset="0.33" stop-color="#EA8101"/>
    <stop offset="0.64" stop-color="#77390D"/>
    <stop offset="1" stop-color="#070100"/>
    </radialGradient>
    <clipPath id="clip0_4_77">
    <rect width="100" height="100" fill="white"/>
    </clipPath>
    </defs>
</svg>
