<svg width="3" height="2" viewBox="0 0 3 2" fill="none" xmlns="http://www.w3.org/2000/svg">
    <path d="M1 0.4C1 0.179086 1.17909 0 1.4 0H2.6C2.82091 0 3 0.179086 3 0.4V1.6C3 1.82091 2.82091 2 2.6 2H1.4C1.17909 2 1 1.82091 1 1.6V0.4Z" fill="url(#paint0_linear_17_959)"/>
    <path d="M1.00071 0.5L1.5 0.000707113L1.99929 0.5L1.5 0.999293L1.00071 0.5Z" fill="url(#paint1_linear_17_959)" stroke="black" stroke-width="0.001"/>
    <path d="M2.00071 0.5L2.5 0.000707113L2.99929 0.5L2.5 0.999293L2.00071 0.5Z" fill="url(#paint2_linear_17_959)" stroke="black" stroke-width="0.001"/>
    <path d="M2.00071 1.5L2.5 1.00071L2.99929 1.5L2.5 1.99929L2.00071 1.5Z" fill="url(#paint3_linear_17_959)" stroke="black" stroke-width="0.001"/>
    <path d="M1.00071 1.5L1.5 1.00071L1.99929 1.5L1.5 1.99929L1.00071 1.5Z" fill="url(#paint4_linear_17_959)" stroke="black" stroke-width="0.001"/>
    <path d="M1.06732 0.259508L1.37525 0.0629316L1.55025 0.383611L1.24233 0.580187L1.06732 0.259508Z" fill="url(#paint5_linear_17_959)" stroke="black" stroke-width="0.001"/>
    <path d="M2.06732 0.259508L2.37525 0.0629316L2.55025 0.383611L2.24233 0.580187L2.06732 0.259508Z" fill="url(#paint6_linear_17_959)" stroke="black" stroke-width="0.001"/>
    <path d="M1.06732 1.25951L1.37525 1.06293L1.55025 1.38361L1.24233 1.58019L1.06732 1.25951Z" fill="url(#paint7_linear_17_959)" stroke="black" stroke-width="0.001"/>
    <path d="M2.06732 1.25951L2.37525 1.06293L2.55025 1.38361L2.24233 1.58019L2.06732 1.25951Z" fill="url(#paint8_linear_17_959)" stroke="black" stroke-width="0.001"/>
    <path d="M2.05968 1.0101L2.37414 0.807693L2.55206 1.13663L2.2376 1.33903L2.05968 1.0101Z" fill="url(#paint9_linear_17_959)" stroke="black" stroke-width="0.001"/>
    <path d="M1.04393 1.1682L1.28003 1.05045L1.43011 1.26744L1.19401 1.38518L1.04393 1.1682Z" fill="url(#paint10_linear_17_959)" stroke="black" stroke-width="0.001"/>
    <path d="M1.44017 0.807522L1.87306 0.534887L2.12088 0.982448L1.68799 1.25508L1.44017 0.807522Z" fill="url(#paint11_linear_17_959)" stroke="black" stroke-width="0.001"/>
    <path d="M2.04393 1.1682L2.28003 1.05045L2.43011 1.26744L2.19401 1.38518L2.04393 1.1682Z" fill="url(#paint12_linear_17_959)" stroke="black" stroke-width="0.001"/>
    <path d="M1.02156 1.08121L1.1369 1.02516L1.21093 1.12987L1.09559 1.18592L1.02156 1.08121Z" fill="url(#paint13_linear_17_959)" stroke="black" stroke-width="0.001"/>
    <path d="M1.6448 1.01612L1.86911 1.42371L2.26212 1.17476L2.03782 0.767176L1.6448 1.01612Z" fill="url(#paint14_linear_17_959)" stroke="black" stroke-width="0.001"/>
    <path d="M1.08694 0.936242L1.21483 1.12563L1.4182 1.02137L1.2903 0.831979L1.08694 0.936242Z" fill="url(#paint15_linear_17_959)" stroke="black" stroke-width="0.001"/>
    <path d="M1 0.5C0.723862 0.5 1.20863 0.500013 1 0.5C1.27614 0.5 1.98337 0.342825 1.98337 0.342825C1.98511 -0.0794187 1 0.5 1 0.5Z" fill="white"/>
    <path d="M2.77606 1.47842L2.64772 1.26124L2.86487 1.13284L2.99321 1.35002L2.77606 1.47842Z" fill="url(#paint16_linear_17_959)" stroke="black" stroke-width="0.001"/>
    <path d="M2.59542 0.826726L2.83392 0.648717L2.95706 0.919659L2.71855 1.09767L2.59542 0.826726Z" fill="url(#paint17_linear_17_959)" stroke="black" stroke-width="0.001"/>
    <path d="M1.74574 1.40386L1.93071 1.70231L2.23664 1.53001L2.05168 1.23156L1.74574 1.40386Z" fill="url(#paint18_linear_17_959)" stroke="black" stroke-width="0.001"/>
    <path d="M2.00152 1.77145L1.8599 1.56622L1.63688 1.67775L1.7785 1.88297L2.00152 1.77145Z" fill="url(#paint19_linear_17_959)" stroke="black" stroke-width="0.001"/>
    <path d="M2.02985 1.65063L2.2315 1.5241L2.34716 1.73217L2.14551 1.85871L2.02985 1.65063Z" fill="url(#paint20_linear_17_959)" stroke="black" stroke-width="0.001"/>
    <path d="M2.72715 1.05972L2.59039 0.877053L2.3825 0.97115L2.51926 1.15381L2.72715 1.05972Z" fill="url(#paint21_linear_17_959)" stroke="black" stroke-width="0.001"/>
    <path d="M2.09263 1.64792L2.02322 1.5193L1.9004 1.59852L1.96981 1.72714L2.09263 1.64792Z" fill="url(#paint22_linear_17_959)" stroke="black" stroke-width="0.001"/>
    <path d="M2.12137 0.862798L2.22694 1.03508L2.40249 0.93504L2.29692 0.762761L2.12137 0.862798Z" fill="url(#paint23_linear_17_959)" stroke="black" stroke-width="0.001"/>
    <path d="M2.81836 1.70925L2.61551 1.87812L2.5192 1.63238L2.72205 1.46351L2.81836 1.70925Z" fill="url(#paint24_linear_17_959)" stroke="black" stroke-width="0.001"/>
    <path d="M2.19664 1.69348L2.40576 1.56885L2.52888 1.77886L2.31977 1.90349L2.19664 1.69348Z" fill="url(#paint25_linear_17_959)" stroke="black" stroke-width="0.001"/>
    <path d="M2.26772 0.951068L2.02954 1.12443L1.90444 0.857713L2.14263 0.684353L2.26772 0.951068Z" fill="url(#paint26_linear_17_959)" stroke="black" stroke-width="0.001"/>
    <path d="M1.75688 0.159981L2.01347 0.0290334L2.17514 0.267466L1.91855 0.398413L1.75688 0.159981Z" fill="url(#paint27_linear_17_959)" stroke="black" stroke-width="0.001"/>
    <path d="M1.01477 0.718836L1.2586 0.596705L1.41334 0.82126L1.16951 0.94339L1.01477 0.718836Z" fill="url(#paint28_linear_17_959)" stroke="black" stroke-width="0.001"/>
    <path d="M1.81902 0.616109L1.91487 0.880041L2.12609 0.695019L2.03024 0.431087L1.81902 0.616109Z" fill="url(#paint29_linear_17_959)" stroke="black" stroke-width="0.001"/>
    <path d="M1.70549 1.0642L1.48593 0.801775L1.16706 0.92583L1.38662 1.18825L1.70549 1.0642Z" fill="url(#paint30_linear_17_959)" stroke="black" stroke-width="0.001"/>
    <path d="M1.5736 1.53338L1.46374 1.32681L1.2679 1.45482L1.37776 1.66139L1.5736 1.53338Z" fill="url(#paint31_linear_17_959)" stroke="black" stroke-width="0.001"/>
    <path d="M1.85569 1.60587L1.70708 1.38926L1.47245 1.50738L1.62106 1.72399L1.85569 1.60587Z" fill="url(#paint32_linear_17_959)" stroke="black" stroke-width="0.001"/>
    <path d="M2.93616 1.13992L2.77918 0.798926L2.47725 1.02199L2.63423 1.36298L2.93616 1.13992Z" fill="url(#paint33_linear_17_959)" stroke="black" stroke-width="0.001"/>
    <path d="M2.17438 0.621059L2.3304 0.817571L2.56183 0.720627L2.40581 0.524115L2.17438 0.621059Z" fill="url(#paint34_linear_17_959)" stroke="black" stroke-width="0.001"/>
    <defs>
    <linearGradient id="paint0_linear_17_959" x1="2" y1="0" x2="2" y2="2" gradientUnits="userSpaceOnUse">
    <stop stop-color="white"/>
    <stop offset="0.2" stop-color="#F2F2F2"/>
    <stop offset="0.4" stop-color="#D9D9D9"/>
    <stop offset="0.6" stop-color="#B3B3B3"/>
    <stop offset="0.8" stop-color="#808080"/>
    <stop offset="1"/>
    </linearGradient>
    <linearGradient id="paint1_linear_17_959" x1="1.5" y1="0" x2="1.5" y2="1" gradientUnits="userSpaceOnUse">
    <stop stop-color="#D9D9D9"/>
    <stop offset="0.5" stop-color="#F2F2F2"/>
    <stop offset="1" stop-color="white"/>
    </linearGradient>
    <linearGradient id="paint2_linear_17_959" x1="2.5" y1="0" x2="2.5" y2="1" gradientUnits="userSpaceOnUse">
    <stop stop-color="#D9D9D9"/>
    <stop offset="0.5" stop-color="#F2F2F2"/>
    <stop offset="1" stop-color="white"/>
    </linearGradient>
    <linearGradient id="paint3_linear_17_959" x1="2.5" y1="1" x2="2.5" y2="2" gradientUnits="userSpaceOnUse">
    <stop stop-color="#D9D9D9"/>
    <stop offset="0.5" stop-color="#F2F2F2"/>
    <stop offset="1" stop-color="white"/>
    </linearGradient>
    <linearGradient id="paint4_linear_17_959" x1="1.5" y1="1" x2="1.5" y2="2" gradientUnits="userSpaceOnUse">
    <stop stop-color="#D9D9D9"/>
    <stop offset="0.5" stop-color="#F2F2F2"/>
    <stop offset="1" stop-color="white"/>
    </linearGradient>
    <linearGradient id="paint5_linear_17_959" x1="1.37543" y1="0.062222" x2="1.24214" y2="0.580897" gradientUnits="userSpaceOnUse">
    <stop stop-color="#D9D9D9"/>
    <stop offset="0.5" stop-color="#F2F2F2"/>
    <stop offset="1" stop-color="white"/>
    </linearGradient>
    <linearGradient id="paint6_linear_17_959" x1="2.37543" y1="0.062222" x2="2.24214" y2="0.580897" gradientUnits="userSpaceOnUse">
    <stop stop-color="#D9D9D9"/>
    <stop offset="0.5" stop-color="#F2F2F2"/>
    <stop offset="1" stop-color="white"/>
    </linearGradient>
    <linearGradient id="paint7_linear_17_959" x1="1.37543" y1="1.06222" x2="1.24214" y2="1.5809" gradientUnits="userSpaceOnUse">
    <stop stop-color="#D9D9D9"/>
    <stop offset="0.5" stop-color="#F2F2F2"/>
    <stop offset="1" stop-color="white"/>
    </linearGradient>
    <linearGradient id="paint8_linear_17_959" x1="2.37543" y1="1.06222" x2="2.24214" y2="1.5809" gradientUnits="userSpaceOnUse">
    <stop stop-color="#D9D9D9"/>
    <stop offset="0.5" stop-color="#F2F2F2"/>
    <stop offset="1" stop-color="white"/>
    </linearGradient>
    <linearGradient id="paint9_linear_17_959" x1="2.37432" y1="0.80698" x2="2.23741" y2="1.33975" gradientUnits="userSpaceOnUse">
    <stop stop-color="#D9D9D9"/>
    <stop offset="0.5" stop-color="#F2F2F2"/>
    <stop offset="1" stop-color="white"/>
    </linearGradient>
    <linearGradient id="paint10_linear_17_959" x1="1.28019" y1="1.04981" x2="1.19384" y2="1.38583" gradientUnits="userSpaceOnUse">
    <stop stop-color="#D9D9D9"/>
    <stop offset="0.5" stop-color="#F2F2F2"/>
    <stop offset="1" stop-color="white"/>
    </linearGradient>
    <linearGradient id="paint11_linear_17_959" x1="1.87324" y1="0.534182" x2="1.68781" y2="1.25579" gradientUnits="userSpaceOnUse">
    <stop stop-color="#D9D9D9"/>
    <stop offset="0.5" stop-color="#F2F2F2"/>
    <stop offset="1" stop-color="white"/>
    </linearGradient>
    <linearGradient id="paint12_linear_17_959" x1="2.28019" y1="1.04981" x2="2.19384" y2="1.38583" gradientUnits="userSpaceOnUse">
    <stop stop-color="#D9D9D9"/>
    <stop offset="0.5" stop-color="#F2F2F2"/>
    <stop offset="1" stop-color="white"/>
    </linearGradient>
    <linearGradient id="paint13_linear_17_959" x1="1.13706" y1="1.02452" x2="1.09542" y2="1.18655" gradientUnits="userSpaceOnUse">
    <stop stop-color="#D9D9D9"/>
    <stop offset="0.5" stop-color="#F2F2F2"/>
    <stop offset="1" stop-color="white"/>
    </linearGradient>
    <linearGradient id="paint14_linear_17_959" x1="1.86892" y1="1.42441" x2="2.038" y2="0.766469" gradientUnits="userSpaceOnUse">
    <stop stop-color="#D9D9D9"/>
    <stop offset="0.5" stop-color="#F2F2F2"/>
    <stop offset="1" stop-color="white"/>
    </linearGradient>
    <linearGradient id="paint15_linear_17_959" x1="1.21467" y1="1.12628" x2="1.29046" y2="0.831332" gradientUnits="userSpaceOnUse">
    <stop stop-color="#D9D9D9"/>
    <stop offset="0.5" stop-color="#F2F2F2"/>
    <stop offset="1" stop-color="white"/>
    </linearGradient>
    <linearGradient id="paint16_linear_17_959" x1="2.86505" y1="1.13215" x2="2.77589" y2="1.47911" gradientUnits="userSpaceOnUse">
    <stop stop-color="#D9D9D9"/>
    <stop offset="0.5" stop-color="#F2F2F2"/>
    <stop offset="1" stop-color="white"/>
    </linearGradient>
    <linearGradient id="paint17_linear_17_959" x1="2.83412" y1="0.647945" x2="2.71835" y2="1.09844" gradientUnits="userSpaceOnUse">
    <stop stop-color="#D9D9D9"/>
    <stop offset="0.5" stop-color="#F2F2F2"/>
    <stop offset="1" stop-color="white"/>
    </linearGradient>
    <linearGradient id="paint18_linear_17_959" x1="1.93053" y1="1.70298" x2="2.05185" y2="1.23089" gradientUnits="userSpaceOnUse">
    <stop stop-color="#D9D9D9"/>
    <stop offset="0.5" stop-color="#F2F2F2"/>
    <stop offset="1" stop-color="white"/>
    </linearGradient>
    <linearGradient id="paint19_linear_17_959" x1="1.86006" y1="1.56558" x2="1.77834" y2="1.88361" gradientUnits="userSpaceOnUse">
    <stop stop-color="#D9D9D9"/>
    <stop offset="0.5" stop-color="#F2F2F2"/>
    <stop offset="1" stop-color="white"/>
    </linearGradient>
    <linearGradient id="paint20_linear_17_959" x1="2.23168" y1="1.52339" x2="2.14533" y2="1.85941" gradientUnits="userSpaceOnUse">
    <stop stop-color="#D9D9D9"/>
    <stop offset="0.5" stop-color="#F2F2F2"/>
    <stop offset="1" stop-color="white"/>
    </linearGradient>
    <linearGradient id="paint21_linear_17_959" x1="2.59055" y1="0.876432" x2="2.51911" y2="1.15443" gradientUnits="userSpaceOnUse">
    <stop stop-color="#D9D9D9"/>
    <stop offset="0.5" stop-color="#F2F2F2"/>
    <stop offset="1" stop-color="white"/>
    </linearGradient>
    <linearGradient id="paint22_linear_17_959" x1="2.0234" y1="1.51859" x2="1.96963" y2="1.72785" gradientUnits="userSpaceOnUse">
    <stop stop-color="#D9D9D9"/>
    <stop offset="0.5" stop-color="#F2F2F2"/>
    <stop offset="1" stop-color="white"/>
    </linearGradient>
    <linearGradient id="paint23_linear_17_959" x1="2.22677" y1="1.03575" x2="2.29709" y2="0.762087" gradientUnits="userSpaceOnUse">
    <stop stop-color="#D9D9D9"/>
    <stop offset="0.5" stop-color="#F2F2F2"/>
    <stop offset="1" stop-color="white"/>
    </linearGradient>
    <linearGradient id="paint24_linear_17_959" x1="2.61529" y1="1.87895" x2="2.72227" y2="1.46268" gradientUnits="userSpaceOnUse">
    <stop stop-color="#D9D9D9"/>
    <stop offset="0.5" stop-color="#F2F2F2"/>
    <stop offset="1" stop-color="white"/>
    </linearGradient>
    <linearGradient id="paint25_linear_17_959" x1="2.40594" y1="1.56816" x2="2.31959" y2="1.90418" gradientUnits="userSpaceOnUse">
    <stop stop-color="#D9D9D9"/>
    <stop offset="0.5" stop-color="#F2F2F2"/>
    <stop offset="1" stop-color="white"/>
    </linearGradient>
    <linearGradient id="paint26_linear_17_959" x1="2.02934" y1="1.12519" x2="2.14282" y2="0.683592" gradientUnits="userSpaceOnUse">
    <stop stop-color="#D9D9D9"/>
    <stop offset="0.5" stop-color="#F2F2F2"/>
    <stop offset="1" stop-color="white"/>
    </linearGradient>
    <linearGradient id="paint27_linear_17_959" x1="2.01364" y1="0.0283873" x2="1.91838" y2="0.399059" gradientUnits="userSpaceOnUse">
    <stop stop-color="#D9D9D9"/>
    <stop offset="0.5" stop-color="#F2F2F2"/>
    <stop offset="1" stop-color="white"/>
    </linearGradient>
    <linearGradient id="paint28_linear_17_959" x1="1.25877" y1="0.596064" x2="1.16935" y2="0.944032" gradientUnits="userSpaceOnUse">
    <stop stop-color="#D9D9D9"/>
    <stop offset="0.5" stop-color="#F2F2F2"/>
    <stop offset="1" stop-color="white"/>
    </linearGradient>
    <linearGradient id="paint29_linear_17_959" x1="1.91465" y1="0.880899" x2="2.03046" y2="0.430229" gradientUnits="userSpaceOnUse">
    <stop stop-color="#D9D9D9"/>
    <stop offset="0.5" stop-color="#F2F2F2"/>
    <stop offset="1" stop-color="white"/>
    </linearGradient>
    <linearGradient id="paint30_linear_17_959" x1="1.48609" y1="0.801179" x2="1.38646" y2="1.18885" gradientUnits="userSpaceOnUse">
    <stop stop-color="#D9D9D9"/>
    <stop offset="0.5" stop-color="#F2F2F2"/>
    <stop offset="1" stop-color="white"/>
    </linearGradient>
    <linearGradient id="paint31_linear_17_959" x1="1.46392" y1="1.32609" x2="1.37758" y2="1.66211" gradientUnits="userSpaceOnUse">
    <stop stop-color="#D9D9D9"/>
    <stop offset="0.5" stop-color="#F2F2F2"/>
    <stop offset="1" stop-color="white"/>
    </linearGradient>
    <linearGradient id="paint32_linear_17_959" x1="1.70724" y1="1.38862" x2="1.62089" y2="1.72463" gradientUnits="userSpaceOnUse">
    <stop stop-color="#D9D9D9"/>
    <stop offset="0.5" stop-color="#F2F2F2"/>
    <stop offset="1" stop-color="white"/>
    </linearGradient>
    <linearGradient id="paint33_linear_17_959" x1="2.77938" y1="0.798159" x2="2.63404" y2="1.36374" gradientUnits="userSpaceOnUse">
    <stop stop-color="#D9D9D9"/>
    <stop offset="0.5" stop-color="#F2F2F2"/>
    <stop offset="1" stop-color="white"/>
    </linearGradient>
    <linearGradient id="paint34_linear_17_959" x1="2.33024" y1="0.818179" x2="2.40597" y2="0.523507" gradientUnits="userSpaceOnUse">
    <stop stop-color="#D9D9D9"/>
    <stop offset="0.5" stop-color="#F2F2F2"/>
    <stop offset="1" stop-color="white"/>
    </linearGradient>
    </defs>
</svg>
