<svg viewBox="0 0 11 6" fill="none" xmlns="http://www.w3.org/2000/svg">
    <g clip-path="url(#clip0_104_1791)">
    <path d="M5 2L5.5 1.5C5.77614 1.22386 6.22386 1.22386 6.5 1.5C6.77614 1.77614 6.77614 2.22386 6.5 2.5L6 3" stroke="url(#paint0_linear_104_1791)" stroke-width="0.29643"/>
    <path d="M7.5 1.27487C7.36193 1.27487 7.25 1.3868 7.25 1.52487C7.25 1.66294 7.36193 1.77487 7.5 1.77487C7.63807 1.77487 7.75 1.66294 7.75 1.52487C7.75 1.3868 7.63807 1.27487 7.5 1.27487Z" fill="url(#paint1_linear_104_1791)"/>
    <path d="M6 1.57794C7.11111 2.13349 11 0.466827 11 0.466827" stroke="url(#paint2_linear_104_1791)" stroke-width="0.01"/>
    <path d="M8.5 1C8.36193 1 8.25 1.11193 8.25 1.25C8.25 1.38807 8.36193 1.5 8.5 1.5C8.63807 1.5 8.75 1.38807 8.75 1.25C8.75 1.11193 8.63807 1 8.5 1Z" fill="url(#paint3_linear_104_1791)"/>
    <path d="M9.5 0.699997C9.36193 0.699997 9.25 0.811926 9.25 0.949997C9.25 1.08807 9.36193 1.2 9.5 1.2C9.63807 1.2 9.75 1.08807 9.75 0.949997C9.75 0.811926 9.63807 0.699997 9.5 0.699997Z" fill="url(#paint4_linear_104_1791)"/>
    <path d="M10.5 0.400002C10.3619 0.400002 10.25 0.51193 10.25 0.650002C10.25 0.788073 10.3619 0.900002 10.5 0.900002C10.6381 0.900002 10.75 0.788073 10.75 0.650002C10.75 0.51193 10.6381 0.400002 10.5 0.400002Z" fill="url(#paint5_linear_104_1791)"/>
    <path d="M2.86251 0.897769C1.28159 1.39359 0.334947 2.86353 0.748136 4.18097C1.16132 5.49841 2.77787 6.16446 4.3588 5.66863C5.93972 5.1728 6.88636 3.70286 6.47317 2.38543C6.05998 1.06799 4.44343 0.401943 2.86251 0.897769Z" fill="url(#paint6_linear_104_1791)"/>
    <path d="M0.843556 4.15103C0.451779 2.90184 1.3472 1.47781 2.89246 0.99318C4.43772 0.508549 5.98599 1.16617 6.37777 2.41536C6.76954 3.66456 5.87413 5.08858 4.32887 5.57321C2.78361 6.05784 1.23534 5.40022 0.843556 4.15103Z" stroke="url(#paint7_linear_104_1791)" stroke-width="0.2"/>
    <g filter="url(#filter0_f_104_1791)">
    <path d="M3.5 4C4.32843 4 5 3.55228 5 3C5 2.44772 4.32843 2 3.5 2C2.67157 2 2 2.44772 2 3C2 3.55228 2.67157 4 3.5 4Z" fill="white"/>
    </g>
    </g>
    <defs>
    <filter id="filter0_f_104_1791" x="1" y="1" width="5" height="4" filterUnits="userSpaceOnUse" color-interpolation-filters="sRGB">
    <feFlood flood-opacity="0" result="BackgroundImageFix"/>
    <feBlend mode="normal" in="SourceGraphic" in2="BackgroundImageFix" result="shape"/>
    <feGaussianBlur stdDeviation="0.5" result="effect1_foregroundBlur_104_1791"/>
    </filter>
    <linearGradient id="paint0_linear_104_1791" x1="5" y1="2" x2="7" y2="2" gradientUnits="userSpaceOnUse">
    <stop offset="0.645" stop-color="#3C3C3C"/>
    <stop offset="1" stop-color="#999191"/>
    </linearGradient>
    <linearGradient id="paint1_linear_104_1791" x1="7.5" y1="1.77487" x2="7.5" y2="1.27487" gradientUnits="userSpaceOnUse">
    <stop stop-color="#3C3C3C"/>
    <stop offset="1" stop-color="#737373"/>
    </linearGradient>
    <linearGradient id="paint2_linear_104_1791" x1="6" y1="1.07907" x2="11" y2="1.07907" gradientUnits="userSpaceOnUse">
    <stop offset="0.645" stop-color="#3C3C3C"/>
    <stop offset="1" stop-color="#999191"/>
    </linearGradient>
    <linearGradient id="paint3_linear_104_1791" x1="8.5" y1="1.5" x2="8.5" y2="1" gradientUnits="userSpaceOnUse">
    <stop stop-color="#3C3C3C"/>
    <stop offset="1" stop-color="#737373"/>
    </linearGradient>
    <linearGradient id="paint4_linear_104_1791" x1="9.5" y1="1.2" x2="9.5" y2="0.699997" gradientUnits="userSpaceOnUse">
    <stop stop-color="#3C3C3C"/>
    <stop offset="1" stop-color="#737373"/>
    </linearGradient>
    <linearGradient id="paint5_linear_104_1791" x1="10.5" y1="0.900002" x2="10.5" y2="0.400002" gradientUnits="userSpaceOnUse">
    <stop stop-color="#3C3C3C"/>
    <stop offset="1" stop-color="#737373"/>
    </linearGradient>
    <linearGradient id="paint6_linear_104_1791" x1="2.86251" y1="0.897768" x2="4.3588" y2="5.66863" gradientUnits="userSpaceOnUse">
    <stop offset="0.705" stop-color="#D9D9D9"/>
    <stop offset="1" stop-color="#737373"/>
    </linearGradient>
    <linearGradient id="paint7_linear_104_1791" x1="2.86253" y1="0.897763" x2="4.35879" y2="5.66863" gradientUnits="userSpaceOnUse">
    <stop stop-color="#666666"/>
    <stop offset="0.8" stop-color="#3C3C3C"/>
    <stop offset="1"/>
    </linearGradient>
    <clipPath id="clip0_104_1791">
    <rect width="11" height="6" fill="white"/>
    </clipPath>
    </defs>
</svg>

