<svg width="45" height="29" viewBox="0 0 45 29" fill="none" xmlns="http://www.w3.org/2000/svg">
    <g clip-path="url(#clip0_39_1181)">
    <path d="M17.0145 17.7099C17.0145 16.6707 17.7221 15.8282 18.595 15.8282H29.0083C29.8813 15.8282 30.5888 16.6707 30.5888 17.7099V24.0191H17.0145V17.7099Z" fill="black" stroke="#7A7A7A"/>
    <path d="M42.7686 10.2914L41.374 10.7658V17.8781V17.9775L41.328 18.0606L40.9424 18.7584L40.9277 18.785L40.9091 18.8077C40.8301 18.9041 40.7735 19.0233 40.7451 19.1536C40.7451 19.1536 40.7451 19.1537 40.7451 19.1536L40.4846 20.3461C40.4619 20.4501 40.4576 20.5589 40.4721 20.6656C40.4721 20.6656 40.4721 20.6656 40.4721 20.6656L40.569 21.3746C40.617 21.7277 40.553 22.0897 40.3893 22.3898L40.3892 22.39L39.9916 23.1177C39.923 23.2436 39.8864 23.3904 39.8864 23.5403V27.8931C39.8864 28.3211 40.1777 28.668 40.5372 28.668H43.5124C43.8718 28.668 44.1632 28.3211 44.1632 27.8931V23.5403C44.1632 23.3904 44.1266 23.2436 44.058 23.1177L43.6604 22.39L43.6602 22.3898C43.4966 22.0897 43.4326 21.7279 43.4806 21.3748L43.5775 20.6657C43.592 20.5589 43.5879 20.4501 43.565 20.3461L43.2982 19.124L42.7686 10.2914ZM42.7686 10.2914V17.8781V17.9613L42.8015 18.0347L43.1208 18.7452L43.136 18.779L43.1572 18.8077C43.2242 18.8984 43.2723 19.0066 43.298 19.1238L42.7686 10.2914Z" fill="black"/>
    <path d="M42.7686 10.2914L41.374 10.7658V17.8781V17.9775L41.328 18.0606L40.9424 18.7584L40.9277 18.785L40.9091 18.8077C40.8301 18.9041 40.7735 19.0233 40.7451 19.1536M42.7686 10.2914L43.2982 19.124L43.565 20.3461C43.5879 20.4501 43.592 20.5589 43.5775 20.6657L43.4806 21.3748C43.4326 21.7279 43.4966 22.0897 43.6602 22.3898L43.6604 22.39L44.058 23.1177C44.1266 23.2436 44.1632 23.3904 44.1632 23.5403V27.8931C44.1632 28.3211 43.8718 28.668 43.5124 28.668H40.5372C40.1777 28.668 39.8864 28.3211 39.8864 27.8931V23.5403C39.8864 23.3904 39.923 23.2436 39.9916 23.1177L40.3892 22.39L40.3893 22.3898C40.553 22.0897 40.617 21.7277 40.569 21.3746L40.4721 20.6656M42.7686 10.2914V17.8781V17.9613L42.8015 18.0347L43.1208 18.7452L43.136 18.779L43.1572 18.8077C43.2242 18.8984 43.2723 19.0066 43.298 19.1238L42.7686 10.2914ZM40.7451 19.1536C40.7451 19.1537 40.7451 19.1536 40.7451 19.1536ZM40.7451 19.1536L40.4846 20.3461M40.4846 20.3461L40.2146 20.2625M40.4846 20.3461C40.4619 20.4501 40.4576 20.5589 40.4721 20.6656M40.4721 20.6656C40.4721 20.6656 40.4721 20.6656 40.4721 20.6656Z" stroke="#7A7A7A"/>
    <path d="M9.92898 4.96914L9.93217 4.9681L9.93535 4.96697L22.5928 0.457336L29.0211 2.75316L29.0218 2.75341L39.3421 6.40608L39.3453 6.40723L39.3484 6.40827L44.6281 8.11279V10.2035L36.8174 13.5231L36.8078 13.5272L36.7985 13.5321L22.6036 20.9941L17.2372 17.6373L17.2237 17.6289L17.2096 17.6223L11.5381 14.9658L11.5337 14.9638L11.5293 14.9619L0.278931 10.2031V8.11219L9.92898 4.96914Z" fill="black" stroke="#7A7A7A"/>
    <path d="M5.20661 9.74012L22.2211 15.1641V16.7137L4.66736 9.51907L5.20661 9.74012Z" fill="#D9D9D9"/>
    <path d="M22.6859 21.0305L12.647 15.092L22.6859 19.0767L32.3578 15.3134L22.6859 21.0305Z" fill="#D9D9D9"/>
    </g>
    <defs>
    <clipPath id="clip0_39_1181">
    <rect width="45" height="29" fill="white"/>
    </clipPath>
    </defs>
</svg>

