<svg width="19" height="17" viewBox="0 0 19 17" fill="none" xmlns="http://www.w3.org/2000/svg">
    <path d="M9.37146 0C4.5788 0 4.87805 1.77751 4.87805 1.77751L4.88337 3.61906H9.45692V4.17194H3.06682C3.06682 4.17194 0 3.87448 0 8.01019C0 12.146 2.6768 11.9994 2.6768 11.9994H4.2743V10.0802C4.2743 10.0802 4.18818 7.79087 6.90838 7.79087H11.4445C11.4445 7.79087 13.9931 7.82609 13.9931 5.68436V2.14312C13.9931 2.14312 14.3801 0 9.37146 0ZM6.84961 1.23841C6.95768 1.23832 7.06472 1.25647 7.16459 1.2918C7.26445 1.32713 7.35519 1.37896 7.43162 1.44432C7.50804 1.50968 7.56864 1.58728 7.60995 1.67269C7.65127 1.75811 7.67248 1.84965 7.67238 1.94208C7.67248 2.03451 7.65127 2.12605 7.60995 2.21146C7.56864 2.29687 7.50804 2.37447 7.43162 2.43983C7.35519 2.50519 7.26445 2.55702 7.16459 2.59235C7.06472 2.62768 6.95768 2.64583 6.84961 2.64574C6.74153 2.64583 6.6345 2.62768 6.53463 2.59235C6.43476 2.55702 6.34402 2.50519 6.2676 2.43983C6.19118 2.37447 6.13058 2.29687 6.08926 2.21146C6.04795 2.12605 6.02673 2.03451 6.02683 1.94208C6.02673 1.84965 6.04795 1.75811 6.08926 1.67269C6.13058 1.58728 6.19118 1.50968 6.2676 1.44432C6.34402 1.37896 6.43476 1.32713 6.53463 1.2918C6.6345 1.25647 6.74153 1.23832 6.84961 1.23841Z" fill="url(#paint0_linear_17_959)"/>
    <path d="M9.62861 17C14.4213 17 14.122 15.2225 14.122 15.2225L14.1167 13.381H9.54308V12.8281H15.9332C15.9332 12.8281 19 13.1256 19 8.98974C19 4.85397 16.3232 5.00064 16.3232 5.00064H14.7257V6.91977C14.7257 6.91977 14.8118 9.20906 12.0916 9.20906H7.55548C7.55548 9.20906 5.00693 9.17385 5.00693 11.3156V14.8569C5.00693 14.8569 4.61994 17 9.62854 17H9.62861ZM12.1505 15.7617C12.0424 15.7618 11.9354 15.7437 11.8355 15.7083C11.7356 15.673 11.6449 15.6212 11.5685 15.5558C11.492 15.4904 11.4314 15.4128 11.3901 15.3274C11.3488 15.242 11.3276 15.1505 11.3277 15.0581C11.3276 14.9656 11.3488 14.8741 11.3901 14.7886C11.4314 14.7032 11.492 14.6256 11.5684 14.5603C11.6449 14.4949 11.7356 14.4431 11.8355 14.4077C11.9353 14.3724 12.0424 14.3542 12.1505 14.3543C12.2585 14.3542 12.3656 14.3724 12.4654 14.4077C12.5653 14.443 12.6561 14.4949 12.7325 14.5602C12.8089 14.6256 12.8695 14.7032 12.9108 14.7886C12.9521 14.874 12.9733 14.9656 12.9732 15.058C12.9733 15.1504 12.9521 15.242 12.9108 15.3274C12.8695 15.4128 12.8089 15.4904 12.7325 15.5557C12.6561 15.6211 12.5653 15.6729 12.4654 15.7083C12.3656 15.7436 12.2585 15.7618 12.1505 15.7617Z" fill="url(#paint1_linear_17_959)"/>
    <defs>
    <linearGradient id="paint0_linear_17_959" x1="181.426" y1="144.468" x2="973.117" y2="1060.93" gradientUnits="userSpaceOnUse">
    <stop stop-color="#387EB8"/>
    <stop offset="1" stop-color="#366994"/>
    </linearGradient>
    <linearGradient id="paint1_linear_17_959" x1="272.792" y1="251.948" x2="1129.11" y2="1198.48" gradientUnits="userSpaceOnUse">
    <stop stop-color="#FFE052"/>
    <stop offset="1" stop-color="#FFC331"/>
    </linearGradient>
    </defs>
</svg>
