<svg width="22" height="19" viewBox="0 0 22 19" fill="none" xmlns="http://www.w3.org/2000/svg">
    <path d="M22 9.50206C22 8.16491 20.1749 6.89771 17.3767 6.11187C18.0224 3.49517 17.7354 1.41333 16.4709 0.746814C16.1794 0.59047 15.8386 0.516413 15.4664 0.516413V1.4339C15.6726 1.4339 15.8386 1.47093 15.9776 1.54088C16.5874 1.86179 16.852 3.08374 16.6457 4.65541C16.5964 5.04215 16.5157 5.44947 16.417 5.86501C15.5381 5.66753 14.5785 5.5153 13.5695 5.41655C12.9641 4.65541 12.3363 3.9642 11.704 3.3594C13.1659 2.11276 14.5381 1.42979 15.4709 1.42979V0.512299C14.2377 0.512299 12.6233 1.3187 10.991 2.71757C9.35874 1.32693 7.74439 0.528756 6.51121 0.528756V1.44625C7.43946 1.44625 8.81614 2.12511 10.278 3.36351C9.65022 3.96832 9.02242 4.65541 8.42601 5.41655C7.41256 5.5153 6.45292 5.66753 5.57399 5.86913C5.47085 5.4577 5.39462 5.05861 5.34081 4.67598C5.13004 3.10431 5.39013 1.88236 5.99552 1.55733C6.13005 1.48328 6.30493 1.45036 6.51121 1.45036V0.53287C6.13453 0.53287 5.79372 0.606928 5.49776 0.763271C4.23767 1.42979 3.95516 3.50752 4.60538 6.11599C1.81614 6.90593 0 8.16903 0 9.50206C0 10.8392 1.82511 12.1064 4.62332 12.8923C3.97758 15.509 4.26457 17.5908 5.52915 18.2573C5.82063 18.4137 6.16144 18.4877 6.53812 18.4877C7.7713 18.4877 9.38565 17.6813 11.0179 16.2824C12.6502 17.6731 14.2646 18.4713 15.4978 18.4713C15.8744 18.4713 16.2152 18.3972 16.5112 18.2409C17.7713 17.5743 18.0538 15.4966 17.4036 12.8881C20.1839 12.1023 22 10.8351 22 9.50206ZM16.1614 6.75782C15.9955 7.28857 15.7892 7.83577 15.5561 8.38297C15.3722 8.05383 15.1794 7.72468 14.9686 7.39554C14.7623 7.06639 14.5426 6.74548 14.3229 6.43279C14.9596 6.51919 15.574 6.62616 16.1614 6.75782ZM14.1076 11.1396C13.7578 11.695 13.3991 12.2216 13.0269 12.7112C12.3587 12.7647 11.6816 12.7935 11 12.7935C10.3229 12.7935 9.64574 12.7647 8.98206 12.7153C8.60987 12.2257 8.24664 11.7032 7.89686 11.1519C7.55605 10.6129 7.24664 10.0657 6.96413 9.51441C7.24215 8.96309 7.55605 8.41177 7.89238 7.8728C8.24215 7.31737 8.6009 6.79073 8.97309 6.30113C9.64126 6.24765 10.3184 6.21884 11 6.21884C11.6771 6.21884 12.3543 6.24765 13.0179 6.29702C13.3901 6.78662 13.7534 7.30914 14.1031 7.86045C14.4439 8.39943 14.7534 8.94663 15.0359 9.49795C14.7534 10.0493 14.4439 10.6006 14.1076 11.1396ZM15.5561 10.6047C15.7982 11.156 16.0045 11.7073 16.1749 12.2422C15.5874 12.3739 14.9686 12.4849 14.3274 12.5713C14.5471 12.2545 14.7668 11.9295 14.9731 11.5962C15.1794 11.2671 15.3722 10.9338 15.5561 10.6047ZM11.009 14.9947C10.5919 14.5997 10.1749 14.1595 9.76233 13.6781C10.1659 13.6945 10.5785 13.7069 10.9955 13.7069C11.417 13.7069 11.8341 13.6987 12.2422 13.6781C11.8386 14.1595 11.4215 14.5997 11.009 14.9947ZM7.67265 12.5713C7.03587 12.4849 6.42152 12.378 5.83408 12.2463C6 11.7156 6.20628 11.1684 6.43946 10.6212C6.62332 10.9503 6.81614 11.2794 7.02691 11.6086C7.23767 11.9377 7.45291 12.2587 7.67265 12.5713ZM10.9865 4.00946C11.4036 4.40443 11.8206 4.84467 12.2332 5.32604C11.8296 5.30958 11.417 5.29724 11 5.29724C10.5785 5.29724 10.1614 5.30547 9.75336 5.32604C10.157 4.84467 10.574 4.40443 10.9865 4.00946ZM7.66816 6.43279C7.44843 6.74959 7.2287 7.07462 7.02242 7.40788C6.81614 7.73703 6.62332 8.06617 6.43946 8.39531C6.19731 7.844 5.99103 7.29268 5.82063 6.75782C6.40807 6.63028 7.02691 6.51919 7.66816 6.43279ZM3.60987 11.5839C2.02242 10.9626 0.995516 10.148 0.995516 9.50206C0.995516 8.85612 2.02242 8.03737 3.60987 7.42022C3.99552 7.26799 4.41704 7.13222 4.85202 7.00468C5.10762 7.81108 5.44395 8.6504 5.86099 9.51029C5.44843 10.3661 5.11659 11.2013 4.86547 12.0036C4.42153 11.876 4 11.7361 3.60987 11.5839ZM6.02242 17.4633C5.41256 17.1423 5.14798 15.9204 5.35426 14.3487C5.40359 13.962 5.48431 13.5547 5.58296 13.1391C6.46188 13.3366 7.42153 13.4888 8.43049 13.5876C9.03588 14.3487 9.66368 15.0399 10.296 15.6447C8.83408 16.8914 7.46188 17.5743 6.52915 17.5743C6.32735 17.5702 6.15695 17.5332 6.02242 17.4633ZM16.6592 14.3281C16.87 15.8998 16.6099 17.1218 16.0045 17.4468C15.87 17.5209 15.6951 17.5538 15.4888 17.5538C14.5605 17.5538 13.1839 16.8749 11.722 15.6365C12.3498 15.0317 12.9776 14.3446 13.574 13.5835C14.5874 13.4847 15.5471 13.3325 16.426 13.1309C16.5291 13.5464 16.6099 13.9455 16.6592 14.3281ZM18.3857 11.5839C18 11.7361 17.5785 11.8719 17.1435 11.9994C16.8879 11.193 16.5516 10.3537 16.1345 9.49383C16.5471 8.63806 16.8789 7.80285 17.13 7.00056C17.574 7.12811 17.9955 7.26799 18.3901 7.42022C19.9776 8.04148 21.0045 8.85612 21.0045 9.50206C21 10.148 19.9731 10.9668 18.3857 11.5839Z" fill="#FDFF9B"/>
    <path d="M10.9955 11.3823C12.1273 11.3823 13.0448 10.5405 13.0448 9.50207C13.0448 8.46364 12.1273 7.62183 10.9955 7.62183C9.8637 7.62183 8.94618 8.46364 8.94618 9.50207C8.94618 10.5405 9.8637 11.3823 10.9955 11.3823Z" fill="#FDFF9B"/>
</svg>
