<svg width="38" height="25" viewBox="0 0 38 25" fill="none" xmlns="http://www.w3.org/2000/svg">
    <g clip-path="url(#clip0_44_1234)">
    <path d="M1.37137 20.1705L2.78171 7.44403C2.8722 6.62749 3.32703 5.90698 4.00402 5.50769L11.8336 0.889932C12.1914 0.678915 12.594 0.568176 13.0033 0.568176H25.7453C26.1855 0.568176 26.6172 0.696222 26.9937 0.938409L34.0499 5.47836C34.6937 5.89255 35.118 6.6025 35.1968 7.39727L35.593 11.3933L35.5939 11.4019L35.5952 11.4103L36.8813 19.6023H35.3017L34.465 9.38835C34.3328 7.77352 33.0594 6.53409 31.5325 6.53409H6.31336C4.73529 6.53409 3.43795 7.85517 3.37226 9.52897L2.95459 20.1705H1.37137Z" fill="url(#paint0_linear_44_1234)" stroke="url(#paint1_linear_44_1234)"/>
    <path d="M37.7324 18.4659C37.7324 19.3728 36.9284 20.1705 35.8591 20.1705C34.7899 20.1705 33.9859 19.3728 33.9859 18.4659C33.9859 17.559 34.7899 16.7614 35.8591 16.7614C36.9284 16.7614 37.7324 17.559 37.7324 18.4659Z" fill="url(#paint2_linear_44_1234)" stroke="url(#paint3_linear_44_1234)"/>
    <path d="M4.01409 18.4659C4.01409 19.3728 3.21009 20.1705 2.14085 20.1705C1.0716 20.1705 0.267609 19.3728 0.267609 18.4659C0.267609 17.559 1.0716 16.7614 2.14085 16.7614C3.21009 16.7614 4.01409 17.559 4.01409 18.4659Z" fill="url(#paint4_linear_44_1234)" stroke="url(#paint5_linear_44_1234)"/>
    <path d="M19.2716 24.4319L19.2676 24.4318L19.2636 24.4319L3.5376 24.6848C2.49781 24.7015 1.56533 24.0079 1.22516 22.9647L0.502007 20.7468C0.390161 20.4038 0.495239 20.0232 0.763818 19.7986L2.81404 18.0838C2.95738 17.9639 3.13491 17.8994 3.31737 17.901L34.4773 18.1686C34.6288 18.1699 34.7769 18.2168 34.9045 18.3037L37.2939 19.9321C37.5517 20.1078 37.6928 20.4239 37.6577 20.747L37.4764 22.4147C37.3346 23.7191 36.2852 24.6974 35.0484 24.6782L19.2716 24.4319Z" fill="url(#paint6_linear_44_1234)" fill-opacity="0.95"/>
    <path d="M19.2716 24.4319L19.2676 24.4318L19.2636 24.4319L3.5376 24.6848C2.49781 24.7015 1.56533 24.0079 1.22516 22.9647L0.502007 20.7468C0.390161 20.4038 0.495239 20.0232 0.763818 19.7986L2.81404 18.0838C2.95738 17.9639 3.13491 17.8994 3.31737 17.901L34.4773 18.1686C34.6288 18.1699 34.7769 18.2168 34.9045 18.3037L37.2939 19.9321C37.5517 20.1078 37.6928 20.4239 37.6577 20.747L37.4764 22.4147C37.3346 23.7191 36.2852 24.6974 35.0484 24.6782L19.2716 24.4319Z" fill="url(#paint7_linear_44_1234)" fill-opacity="0.33"/>
    <g filter="url(#filter0_d_44_1234)">
    <path d="M19.2716 24.4319L19.2676 24.4318L19.2636 24.4319L3.5376 24.6848C2.49781 24.7015 1.56533 24.0079 1.22516 22.9647L0.502007 20.7468C0.390161 20.4038 0.495239 20.0232 0.763818 19.7986L2.81404 18.0838C2.95738 17.9639 3.13491 17.8994 3.31737 17.901L34.4773 18.1686C34.6288 18.1699 34.7769 18.2168 34.9045 18.3037L37.2939 19.9321C37.5517 20.1078 37.6928 20.4239 37.6577 20.747L37.4764 22.4147C37.3346 23.7191 36.2852 24.6974 35.0484 24.6782L19.2716 24.4319Z" fill="#4000FF" fill-opacity="0.5" shape-rendering="crispEdges"/>
    </g>
    <path d="M19.2716 24.4319L19.2676 24.4318L19.2636 24.4319L3.5376 24.6848C2.49781 24.7015 1.56533 24.0079 1.22516 22.9647L0.502007 20.7468C0.390161 20.4038 0.495239 20.0232 0.763818 19.7986L2.81404 18.0838C2.95738 17.9639 3.13491 17.8994 3.31737 17.901L34.4773 18.1686C34.6288 18.1699 34.7769 18.2168 34.9045 18.3037L37.2939 19.9321C37.5517 20.1078 37.6928 20.4239 37.6577 20.747L37.4764 22.4147C37.3346 23.7191 36.2852 24.6974 35.0484 24.6782L19.2716 24.4319Z" stroke="url(#paint8_linear_44_1234)"/>
    </g>
    <defs>
    <filter id="filter0_d_44_1234" x="-5.54221" y="11.9009" width="49.2052" height="18.7841" filterUnits="userSpaceOnUse" color-interpolation-filters="sRGB">
    <feFlood flood-opacity="0" result="BackgroundImageFix"/>
    <feColorMatrix in="SourceAlpha" type="matrix" values="0 0 0 0 0 0 0 0 0 0 0 0 0 0 0 0 0 0 127 0" result="hardAlpha"/>
    <feOffset/>
    <feGaussianBlur stdDeviation="3"/>
    <feComposite in2="hardAlpha" operator="out"/>
    <feColorMatrix type="matrix" values="0 0 0 0 0 0 0 0 0 1 0 0 0 0 1 0 0 0 1 0"/>
    <feBlend mode="normal" in2="BackgroundImageFix" result="effect1_dropShadow_44_1234"/>
    <feBlend mode="normal" in="SourceGraphic" in2="effect1_dropShadow_44_1234" result="shape"/>
    </filter>
    <linearGradient id="paint0_linear_44_1234" x1="36.5972" y1="10.3693" x2="1.65546" y2="10.3693" gradientUnits="userSpaceOnUse">
    <stop stop-color="#106857"/>
    <stop offset="0.5" stop-color="#50FBD9"/>
    <stop offset="1" stop-color="#D3D3D3"/>
    </linearGradient>
    <linearGradient id="paint1_linear_44_1234" x1="19.1338" y1="0.284085" x2="19.1338" y2="20.4545" gradientUnits="userSpaceOnUse">
    <stop stop-color="#00FFFF"/>
    <stop offset="0.5" stop-color="#0080FF"/>
    <stop offset="0.8" stop-color="#4000FF"/>
    <stop offset="1" stop-color="white"/>
    </linearGradient>
    <linearGradient id="paint2_linear_44_1234" x1="35.8591" y1="16.7614" x2="35.8591" y2="20.1705" gradientUnits="userSpaceOnUse">
    <stop stop-color="#D9D9D9"/>
    <stop offset="1"/>
    </linearGradient>
    <linearGradient id="paint3_linear_44_1234" x1="35.8591" y1="16.4773" x2="35.8591" y2="20.4545" gradientUnits="userSpaceOnUse">
    <stop stop-color="#00FFFF"/>
    <stop offset="0.5" stop-color="#0080FF"/>
    <stop offset="0.8" stop-color="#4000FF"/>
    <stop offset="1" stop-color="white"/>
    </linearGradient>
    <linearGradient id="paint4_linear_44_1234" x1="2.14085" y1="16.7614" x2="2.14085" y2="20.1705" gradientUnits="userSpaceOnUse">
    <stop stop-color="#D9D9D9"/>
    <stop offset="1"/>
    </linearGradient>
    <linearGradient id="paint5_linear_44_1234" x1="2.14085" y1="16.4773" x2="2.14085" y2="20.4545" gradientUnits="userSpaceOnUse">
    <stop stop-color="#00FFFF"/>
    <stop offset="0.5" stop-color="#0080FF"/>
    <stop offset="0.8" stop-color="#4000FF"/>
    <stop offset="1" stop-color="white"/>
    </linearGradient>
    <linearGradient id="paint6_linear_44_1234" x1="1.25677e-05" y1="21.3068" x2="38" y2="21.3068" gradientUnits="userSpaceOnUse">
    <stop stop-color="#50FBD9"/>
    <stop offset="0.5" stop-color="#FDFF9B"/>
    <stop offset="1" stop-color="#106857"/>
    </linearGradient>
    <linearGradient id="paint7_linear_44_1234" x1="1.25677e-05" y1="21.3068" x2="38" y2="21.3068" gradientUnits="userSpaceOnUse">
    <stop stop-color="#FDFF9B"/>
    <stop offset="1" stop-color="#50FBD9"/>
    </linearGradient>
    <linearGradient id="paint8_linear_44_1234" x1="1.25677e-05" y1="21.3068" x2="38" y2="21.3068" gradientUnits="userSpaceOnUse">
    <stop stop-color="#00FFFF"/>
    <stop offset="0.5" stop-color="#0080FF"/>
    <stop offset="0.8" stop-color="#4000FF"/>
    <stop offset="1" stop-color="white"/>
    </linearGradient>
    <clipPath id="clip0_44_1234">
    <rect width="38" height="25" fill="white"/>
    </clipPath>
    </defs>
</svg>
